<svg width="64" height="64" viewBox="0 0 64 64" shape-rendering="geometricPrecision" version="1.1" xmlns="http://www.w3.org/2000/svg"><desc>Created by https://guilds.gw2w2w.com/</desc><rect x="0" y="0" width="64" height="64" fill="none" stroke="none" /><g transform="matrix(-0.25,0,0,0.25,64,0)">
<g fill="rgb(135,0,10)" stroke="rgb(135,0,10)" stroke-width=".05%" stroke-opacity="50%" opacity="0.7"><path d=" M 192.70 52.58 C 197.72 46.96 205.63 46.70 212.57 45.64 C 209.41 47.14 206.10 48.26 202.81 49.43 C 198.80 50.81 195.55 53.61 192.13 56.01 C 187.74 59.10 183.36 62.21 179.20 65.60 C 184.30 66.26 188.82 63.74 193.35 61.87 C 190.72 64.02 187.75 65.70 184.68 67.13 C 184.49 67.50 184.11 68.23 183.92 68.60 C 185.08 69.00 186.25 69.39 187.43 69.79 C 186.85 72.91 186.66 76.24 184.91 78.99 C 182.99 82.10 180.86 85.10 179.21 88.37 C 176.23 90.62 173.28 92.92 170.49 95.40 C 174.01 93.86 177.48 92.22 180.96 90.57 C 182.60 91.19 184.25 91.82 185.90 92.45 C 185.31 95.89 184.67 99.32 184.05 102.76 C 186.44 101.30 188.88 99.94 191.37 98.66 C 187.95 104.61 182.21 108.46 176.59 112.11 C 185.98 107.68 195.76 104.21 205.17 99.82 C 196.24 105.17 186.99 110.17 179.04 116.95 C 184.41 116.41 188.64 112.87 193.27 110.48 C 197.66 108.14 201.87 105.49 206.20 103.03 C 198.77 108.36 190.50 112.32 182.67 117.00 C 182.64 117.86 182.58 119.58 182.54 120.44 C 185.22 119.21 187.90 117.98 190.48 116.55 C 197.67 112.36 205.70 109.96 213.13 106.27 C 217.87 103.89 222.90 102.17 228.09 101.11 C 227.82 104.21 226.58 107.05 224.39 109.27 C 225.69 109.80 226.98 110.34 228.28 110.89 C 227.01 112.12 225.75 113.36 224.49 114.60 C 224.53 115.94 224.57 117.28 224.61 118.63 C 220.25 120.90 215.78 122.98 211.55 125.49 C 207.10 128.10 203.49 131.83 199.87 135.44 C 199.28 135.64 198.70 135.85 198.12 136.06 C 195.76 140.12 191.33 141.63 187.14 143.02 C 186.37 144.36 186.00 146.21 184.37 146.80 C 179.80 148.82 175.38 151.16 170.99 153.53 C 171.52 154.41 172.07 155.28 172.61 156.16 C 168.07 157.73 164.07 160.39 160.22 163.20 C 153.58 167.43 147.65 172.64 141.47 177.49 C 141.01 177.01 140.54 176.53 140.08 176.06 C 134.87 180.74 130.09 186.37 123.60 189.28 C 125.87 185.13 129.37 181.92 132.60 178.54 C 122.27 185.41 113.99 194.79 104.12 202.22 C 102.17 203.76 101.41 200.87 100.79 199.59 C 103.34 196.84 105.84 194.05 108.43 191.34 C 108.45 190.39 108.46 189.45 108.47 188.51 C 114.01 185.22 116.62 179.22 119.61 173.83 C 118.59 174.51 117.58 175.20 116.56 175.88 C 116.15 175.41 115.33 174.46 114.92 173.98 C 113.23 175.65 111.50 177.26 109.73 178.83 C 110.55 179.45 111.36 180.07 112.18 180.70 C 109.28 183.11 106.37 185.51 103.65 188.12 C 103.61 189.19 103.56 190.27 103.52 191.35 C 102.78 192.08 102.04 192.81 101.30 193.55 C 101.48 191.95 101.65 190.35 101.84 188.75 C 100.29 190.38 98.72 192.00 97.11 193.56 C 97.50 191.65 97.29 189.36 98.91 187.95 C 103.76 182.76 109.65 178.43 113.26 172.17 C 109.47 174.42 106.23 177.43 103.25 180.66 C 103.41 179.09 103.58 177.53 103.75 175.97 C 100.22 179.87 96.57 183.70 92.14 186.59 C 95.81 181.21 99.33 175.57 104.46 171.43 C 104.45 170.45 104.44 169.48 104.43 168.51 C 107.98 165.11 111.57 161.74 114.67 157.91 C 108.09 162.84 102.40 168.80 96.39 174.38 C 94.68 175.97 92.64 177.12 90.61 178.24 C 92.17 176.25 93.84 174.35 95.59 172.53 C 94.98 171.89 94.38 171.25 93.78 170.62 C 95.26 170.59 96.74 170.55 98.22 170.53 C 108.28 160.21 119.16 150.73 130.50 141.83 C 128.14 142.89 125.80 143.96 123.46 145.04 C 130.20 137.47 139.34 132.71 146.56 125.68 C 137.30 130.76 129.57 138.11 120.57 143.59 C 115.78 146.20 113.51 152.35 107.67 153.11 C 109.84 150.33 112.22 147.72 114.57 145.09 C 106.65 151.76 98.05 157.65 90.77 165.05 C 87.48 166.37 85.13 169.06 83.21 171.95 C 82.02 171.48 80.83 171.01 79.64 170.53 C 79.62 171.47 79.60 172.41 79.59 173.35 C 77.92 174.52 76.26 175.70 74.60 176.87 C 74.62 177.74 74.63 178.62 74.63 179.50 C 73.40 179.55 72.16 179.59 70.92 179.64 C 67.72 185.95 63.70 191.88 58.56 196.78 C 59.61 194.63 60.69 192.49 61.79 190.36 C 59.50 192.17 57.19 193.96 54.84 195.69 C 58.48 191.02 62.66 186.81 66.24 182.10 C 66.56 179.68 67.12 177.30 67.83 174.96 C 64.33 178.78 60.53 182.31 56.96 186.06 C 55.95 185.59 54.95 185.12 53.95 184.66 C 51.17 188.30 47.63 191.21 44.12 194.10 C 35.76 201.83 28.44 210.59 20.83 219.04 C 24.22 214.55 27.60 210.05 30.28 205.10 C 32.70 200.39 37.60 197.83 40.59 193.58 C 42.90 190.45 44.98 187.14 46.80 183.70 C 45.81 183.37 44.10 184.07 43.86 182.63 C 45.00 181.11 46.89 180.69 48.71 180.85 C 50.79 179.48 52.95 178.09 54.43 176.06 C 55.76 173.85 56.17 171.24 56.88 168.80 C 52.00 170.76 47.20 172.94 42.78 175.79 C 44.42 173.28 45.85 170.65 47.37 168.07 C 48.51 166.26 49.42 164.31 50.10 162.28 C 46.15 165.09 42.86 169.01 38.05 170.40 C 41.86 165.25 45.18 159.17 51.45 156.68 C 50.95 156.00 50.45 155.33 49.95 154.66 C 53.21 150.70 56.78 147.02 60.43 143.42 C 64.59 139.40 67.56 134.37 71.55 130.20 C 70.78 130.35 69.25 130.65 68.48 130.80 C 73.28 124.85 79.40 120.19 84.48 114.51 C 90.56 107.63 97.45 101.55 103.60 94.75 C 106.39 91.88 109.70 89.48 111.93 86.11 C 112.98 85.21 114.03 84.31 115.09 83.43 C 113.82 83.46 111.27 83.53 110.00 83.56 C 113.09 81.63 116.25 79.81 119.35 77.91 C 113.06 80.19 107.73 84.39 101.56 86.93 C 103.62 85.00 105.77 83.19 107.90 81.35 C 106.07 81.30 104.24 81.25 102.41 81.18 C 106.03 77.68 111.14 77.32 115.62 75.58 C 112.80 75.96 110.02 76.55 107.24 77.08 C 110.73 74.40 114.44 72.04 118.23 69.81 C 110.51 73.69 102.51 77.04 95.08 81.46 C 95.24 80.52 95.41 79.57 95.58 78.62 C 96.21 78.61 97.48 78.58 98.11 78.57 C 102.38 73.73 108.57 71.47 113.41 67.35 C 112.83 66.82 111.68 65.78 111.11 65.26 C 116.98 62.68 122.29 59.06 127.76 55.75 C 130.89 53.84 133.82 51.44 137.40 50.42 C 140.64 49.49 144.00 49.19 147.32 48.70 C 148.13 49.31 148.93 49.92 149.74 50.54 C 151.31 50.44 152.88 50.34 154.45 50.23 C 151.25 51.62 148.53 53.80 145.66 55.73 C 143.12 56.95 140.18 56.80 137.44 57.12 C 137.36 58.73 137.31 60.35 137.24 61.97 C 143.47 60.22 149.30 57.06 155.80 56.34 C 149.13 62.56 140.05 64.97 132.58 70.01 C 143.18 66.53 152.51 59.88 163.37 57.06 C 163.54 56.59 163.86 55.65 164.02 55.18 C 161.86 55.37 159.70 55.54 157.54 55.68 C 163.42 52.58 170.13 51.53 175.91 48.22 C 178.82 46.45 182.27 46.51 185.55 46.42 C 182.07 48.19 178.28 49.65 175.71 52.76 C 176.88 52.46 179.23 51.85 180.40 51.55 C 177.39 54.02 174.60 56.75 172.28 59.88 C 179.01 58.51 185.60 56.44 192.40 55.37 C 192.47 54.67 192.62 53.28 192.70 52.58 M 153.63 150.13 C 149.47 152.30 144.93 153.96 141.37 157.11 C 138.67 159.86 136.38 162.98 133.55 165.61 C 136.61 163.48 139.89 161.69 143.22 160.00 C 148.31 157.63 151.29 152.16 156.99 150.84 C 159.97 147.75 163.40 145.16 167.14 143.07 C 162.56 145.28 158.23 147.95 153.63 150.13 Z" />
<path d=" M 187.57 149.50 C 192.39 145.26 197.51 141.17 203.52 138.75 C 198.48 142.73 192.99 146.07 187.57 149.50 Z" /></g>
</g><g transform="matrix(0.25,0,0,0.25,0,0)">
<g fill="rgb(26,24,27)" stroke="rgb(26,24,27)" stroke-width=".05%" stroke-opacity="50%"><path d=" M 65.92 82.22 C 71.00 81.06 76.05 79.80 81.15 78.74 C 88.73 81.74 96.91 82.81 104.49 85.74 C 109.54 91.83 111.65 99.83 117.34 105.46 C 119.08 105.73 120.86 105.86 122.54 106.43 C 123.65 107.85 124.52 109.44 125.45 110.98 C 125.05 111.97 124.67 112.98 124.29 113.98 C 122.93 114.80 121.60 115.65 120.36 116.62 C 120.84 117.22 121.82 118.42 122.30 119.02 C 122.37 119.45 122.51 120.29 122.57 120.71 C 125.56 124.27 128.08 128.42 132.52 130.37 C 134.81 130.18 137.67 130.45 139.24 128.38 C 142.17 125.00 144.96 121.45 147.23 117.59 C 150.48 110.26 155.29 102.04 163.92 100.54 C 168.02 101.91 171.72 104.22 175.69 105.91 C 176.48 111.08 175.20 116.27 175.74 121.49 C 172.96 121.35 170.19 121.60 167.42 121.67 C 167.74 120.29 168.09 118.92 168.44 117.55 C 169.11 117.94 170.46 118.71 171.14 119.10 C 174.34 116.96 172.33 112.04 170.28 109.71 C 168.00 106.28 162.66 107.51 161.14 111.02 C 156.06 120.48 151.79 130.53 144.74 138.75 C 142.05 141.20 138.65 143.23 134.86 142.84 C 138.32 149.58 140.87 157.12 146.78 162.21 C 146.01 164.73 145.32 167.28 144.67 169.84 C 140.51 167.46 136.21 165.32 131.77 163.52 C 129.43 159.19 126.73 155.07 124.18 150.87 C 123.15 149.04 121.24 148.09 119.53 147.02 C 119.01 152.69 118.99 158.44 119.34 164.11 C 121.02 169.11 123.25 173.95 125.36 178.79 C 127.14 180.03 129.25 180.69 131.15 181.74 C 134.66 183.45 137.74 186.14 141.66 186.91 C 144.47 189.74 147.69 192.28 149.81 195.71 C 149.26 200.17 148.37 205.02 144.64 207.98 C 144.95 205.03 145.54 202.12 145.91 199.18 C 143.01 196.94 139.47 196.04 136.17 194.61 C 129.82 191.25 122.91 188.45 118.05 182.93 C 113.76 177.94 109.06 173.24 105.32 167.81 C 103.45 161.81 103.63 155.33 101.75 149.33 C 101.95 148.92 102.35 148.10 102.54 147.69 C 102.20 148.08 101.50 148.85 101.16 149.23 C 98.87 153.66 94.83 157.03 93.30 161.87 C 92.56 164.48 90.45 167.15 91.67 169.94 C 92.77 172.54 93.88 175.18 95.41 177.56 C 99.77 181.29 106.06 181.66 110.38 185.45 C 111.62 188.51 113.06 191.71 113.27 195.03 C 111.60 197.50 109.73 200.28 107.08 201.67 C 103.50 200.95 100.12 199.50 96.79 198.05 C 97.93 195.60 99.50 193.41 101.33 191.44 C 102.88 191.83 104.41 192.28 105.94 192.76 C 104.96 193.90 103.94 195.03 102.93 196.15 C 102.73 195.17 102.33 193.22 102.12 192.24 C 101.33 193.80 100.69 195.41 100.19 197.08 C 102.38 197.75 104.58 199.26 106.94 198.77 C 110.83 197.01 110.82 190.95 107.43 188.68 C 100.49 184.36 91.40 185.29 84.90 180.09 C 82.01 175.71 80.19 170.70 77.88 166.00 C 79.69 160.32 82.40 155.01 85.02 149.67 L 85.26 149.64 C 85.52 149.06 86.03 147.92 86.28 147.35 C 86.58 145.18 87.06 143.05 87.59 140.93 C 86.83 142.69 86.03 144.42 85.22 146.16 C 83.03 149.03 80.69 152.13 77.27 153.57 C 73.58 155.12 69.70 153.25 65.89 153.54 C 58.41 152.73 51.25 150.14 43.88 148.69 C 39.34 148.54 36.22 152.11 32.99 154.75 C 35.06 158.45 37.45 162.68 41.90 163.75 C 43.61 164.38 45.04 162.86 46.53 162.29 C 46.59 161.43 46.72 159.72 46.78 158.86 C 44.87 157.06 40.97 155.95 41.29 152.75 C 44.07 155.88 48.26 157.33 50.73 160.81 C 48.56 162.87 46.27 164.79 44.18 166.92 C 40.95 165.80 37.44 165.29 34.44 163.63 C 31.92 160.10 29.37 156.54 27.43 152.66 C 30.73 148.96 34.58 145.76 38.42 142.64 C 47.57 139.10 57.14 143.83 66.18 145.54 C 68.02 143.80 69.91 142.09 71.55 140.14 C 70.70 141.70 69.11 144.36 72.12 144.38 C 74.76 141.76 78.06 139.52 79.38 135.88 C 80.45 132.58 82.37 129.68 83.90 126.60 C 83.14 123.29 82.29 119.68 80.06 117.04 C 69.39 111.52 58.29 106.87 47.56 101.47 C 50.88 95.84 53.83 89.94 57.88 84.80 C 60.09 82.89 63.22 82.90 65.92 82.22 M 97.33 108.97 C 98.45 111.93 98.97 115.83 102.52 116.76 C 103.79 116.11 105.05 115.46 106.32 114.81 C 103.45 112.67 100.46 110.71 97.33 108.97 Z" />
<path d=" M 135.26 96.17 C 138.25 94.44 141.27 92.77 144.19 90.91 C 145.75 91.44 147.32 91.92 148.83 92.61 C 149.82 94.70 150.11 97.04 150.76 99.25 C 149.07 100.84 147.35 102.41 145.66 103.99 C 144.71 102.36 143.76 100.74 142.79 99.13 C 143.08 98.87 143.64 98.37 143.93 98.12 C 145.02 98.99 146.26 99.61 147.63 99.96 C 147.76 97.82 147.58 95.70 147.11 93.60 C 145.17 93.98 143.31 94.66 141.49 95.43 C 140.48 96.57 139.50 97.72 138.57 98.91 C 138.97 101.33 139.44 103.73 139.79 106.16 C 141.05 109.95 142.36 113.81 142.36 117.85 C 141.24 120.97 139.92 124.01 138.28 126.91 C 137.57 127.94 136.87 128.98 136.18 130.02 C 131.98 128.93 127.96 126.25 127.01 121.77 C 129.03 121.02 131.79 121.34 133.10 119.32 C 135.46 116.81 134.64 113.25 134.98 110.15 C 135.48 105.50 134.98 100.82 135.26 96.17 Z" />
<path d=" M 65.18 125.28 C 66.71 123.45 69.04 122.56 70.99 121.28 C 74.39 123.53 77.65 126.00 81.25 127.93 C 80.91 129.03 80.58 130.15 80.27 131.26 C 78.89 133.92 77.37 136.50 75.78 139.04 C 74.09 135.42 71.04 132.92 67.61 131.03 C 65.73 133.57 65.11 136.70 64.32 139.69 C 60.76 139.75 57.19 140.09 53.63 139.77 C 53.32 137.41 52.69 135.05 52.84 132.66 C 53.86 130.54 56.25 129.99 58.40 130.10 C 57.96 131.75 57.48 133.38 56.98 135.02 C 56.80 133.68 56.63 132.35 56.46 131.03 C 55.72 131.49 54.25 132.43 53.51 132.89 C 53.94 134.67 54.32 136.46 54.94 138.18 C 57.18 137.84 59.75 138.02 61.73 136.81 C 63.78 133.30 63.47 128.92 65.18 125.28 Z" />
<path d=" M 174.33 132.51 C 175.88 131.30 177.58 130.31 179.33 129.42 C 181.53 131.24 183.39 133.47 184.81 135.94 C 183.67 138.64 182.05 141.13 180.46 143.59 C 178.49 145.19 175.65 145.12 173.22 145.39 C 169.97 142.96 165.87 142.47 162.17 141.05 C 162.32 139.47 162.64 137.91 162.98 136.37 C 166.67 137.92 169.88 140.66 173.91 141.34 C 177.13 141.10 181.67 139.84 181.97 135.96 C 181.93 133.83 179.60 133.26 177.99 132.68 C 175.95 132.82 175.46 134.88 174.62 136.35 C 174.55 135.39 174.41 133.47 174.33 132.51 Z" />
<path d=" M 149.84 132.53 C 151.86 133.17 153.92 133.60 156.03 133.84 C 155.26 136.28 154.64 138.77 153.58 141.10 C 151.63 142.06 149.28 141.38 147.19 141.50 C 146.56 138.18 148.31 135.30 149.84 132.53 Z" />
<path d=" M 149.47 147.37 C 151.76 143.60 156.20 142.18 160.24 141.18 C 163.01 142.04 165.72 143.09 168.55 143.73 C 170.15 144.71 171.87 145.58 173.23 146.91 C 172.84 153.28 172.17 159.63 171.65 165.99 C 165.93 167.76 160.73 171.79 154.49 171.29 C 155.23 169.50 155.42 167.40 156.65 165.86 C 159.95 165.10 163.59 164.71 165.96 161.96 C 169.08 159.78 168.45 155.64 168.50 152.33 L 167.76 152.39 C 167.78 151.51 167.81 149.76 167.83 148.88 C 165.87 148.07 163.89 147.32 161.94 146.52 C 158.78 146.78 155.46 146.99 152.70 148.72 C 151.20 150.71 150.59 153.20 149.88 155.53 C 149.51 152.92 147.64 149.85 149.47 147.37 Z" />
<path d=" M 157.87 155.73 C 158.67 153.49 159.58 151.28 160.66 149.16 C 161.38 151.15 161.15 153.21 160.60 155.19 C 159.92 155.32 158.55 155.59 157.87 155.73 Z" />
<path d=" M 135.42 198.90 C 136.13 198.69 137.55 198.26 138.26 198.04 C 137.35 200.36 136.54 202.71 135.93 205.12 C 135.65 205.33 135.07 205.75 134.78 205.96 C 134.86 203.59 135.01 201.23 135.42 198.90 Z" /></g>
<g fill="rgb(157,142,108)" stroke="rgb(157,142,108)" stroke-width=".05%" stroke-opacity="50%"><path d=" M 184.49 28.37 C 185.21 24.80 188.05 22.29 190.07 19.42 C 189.54 24.27 190.64 29.30 189.04 34.00 C 186.81 41.04 185.38 48.29 183.73 55.48 C 182.93 58.92 183.13 62.47 183.36 65.96 C 186.94 68.56 191.28 69.57 195.66 69.57 C 194.34 60.95 197.30 52.60 197.86 44.07 C 198.29 39.76 199.12 35.50 200.21 31.31 C 202.42 36.49 204.10 41.86 206.05 47.13 C 205.03 46.72 204.01 46.31 202.99 45.90 C 200.03 56.28 200.36 67.65 204.25 77.75 C 197.58 76.40 190.86 75.24 184.16 74.02 C 181.12 76.19 176.65 77.65 175.88 81.79 C 174.63 88.51 172.89 95.13 170.93 101.67 C 169.49 100.63 167.38 100.01 166.69 98.23 C 168.08 91.75 170.40 85.49 171.78 79.01 C 172.78 74.17 168.61 70.38 164.87 68.15 C 159.70 65.84 154.55 63.35 149.08 61.83 C 152.41 58.96 155.26 55.59 158.34 52.47 C 161.88 47.76 164.55 42.28 165.68 36.47 C 164.87 36.22 163.24 35.71 162.42 35.46 C 167.37 31.79 171.85 27.58 175.90 22.95 C 174.61 31.03 170.92 38.42 167.83 45.91 C 165.61 50.36 164.42 55.36 161.13 59.22 C 161.26 59.69 161.51 60.65 161.63 61.12 C 165.45 62.40 169.67 64.50 173.67 62.63 C 175.46 60.89 175.64 58.16 176.39 55.90 C 178.44 46.53 182.53 37.76 184.49 28.37 Z" />
<path d=" M 160.07 123.01 C 161.54 118.04 162.25 112.78 164.77 108.18 C 166.02 109.03 167.34 109.84 168.41 110.94 C 166.59 120.94 162.85 130.50 161.11 140.53 C 159.11 140.90 157.08 141.21 155.06 141.46 C 158.28 135.76 158.05 129.09 160.07 123.01 Z" />
<path d=" M 154.77 149.10 C 155.78 148.90 157.80 148.49 158.80 148.29 C 154.05 161.83 151.78 176.10 147.77 189.87 C 146.38 188.34 144.99 186.83 143.59 185.31 C 147.33 173.27 148.76 160.33 154.77 149.10 Z" />
<path d=" M 139.41 199.97 C 140.67 200.37 141.93 200.77 143.19 201.16 C 141.29 206.75 141.79 212.67 141.64 218.47 C 136.62 222.01 134.31 227.83 132.05 233.29 C 131.91 227.52 133.59 221.62 130.92 216.15 C 132.88 214.06 135.25 212.22 136.46 209.56 C 137.82 206.49 138.56 203.20 139.41 199.97 Z" /></g>


</g></svg>