<svg width="64" height="64" viewBox="0 0 64 64" shape-rendering="geometricPrecision" version="1.1" xmlns="http://www.w3.org/2000/svg"><desc>Created by https://guilds.gw2w2w.com/</desc><rect x="0" y="0" width="64" height="64" fill="none" stroke="none" /><g transform="matrix(-0.25,0,0,0.25,64,0)">
<g fill="rgb(117,25,67)" stroke="rgb(117,25,67)" stroke-width=".05%" stroke-opacity="50%" opacity="0.7"><path d=" M 108.06 30.10 C 110.36 23.80 116.27 20.04 120.75 15.39 C 121.85 22.03 121.58 28.79 120.33 35.38 C 125.69 35.27 131.05 35.28 136.40 35.38 C 135.13 28.81 135.02 22.06 135.97 15.43 C 140.64 19.91 146.21 23.87 148.85 29.99 C 168.14 34.14 186.53 43.48 200.14 57.93 C 212.32 69.78 220.94 85.07 225.47 101.41 C 227.28 108.96 234.76 112.84 239.35 118.56 C 232.73 119.88 225.96 119.41 219.36 118.24 C 219.73 124.45 219.73 130.68 219.23 136.88 C 226.02 136.33 232.84 136.06 239.62 136.82 C 235.13 142.65 227.34 146.44 226.12 154.30 C 218.26 186.61 192.89 213.87 161.41 224.38 C 157.17 225.93 152.53 226.33 148.52 228.43 C 144.06 231.83 140.63 236.38 136.46 240.12 C 135.01 233.64 135.39 226.98 136.66 220.51 C 131.20 220.58 125.75 220.52 120.30 220.38 C 121.54 226.97 121.96 233.73 120.58 240.33 C 117.82 237.80 115.10 235.21 112.54 232.47 C 110.37 230.26 108.22 227.67 105.02 227.02 C 97.96 225.10 90.79 223.25 84.28 219.79 C 75.78 215.33 67.24 210.49 60.47 203.56 C 55.47 198.50 50.15 193.66 46.23 187.68 C 40.13 178.57 34.67 168.81 32.05 158.08 C 30.95 154.66 30.79 150.64 28.09 147.98 C 24.57 144.39 20.85 141.00 17.46 137.27 C 24.12 136.00 30.92 136.41 37.57 137.54 C 37.19 131.12 37.15 124.69 37.62 118.27 C 30.98 119.42 24.18 119.89 17.54 118.51 C 21.44 114.06 26.18 110.38 29.88 105.76 C 32.57 100.08 33.37 93.67 36.10 87.98 C 39.33 81.11 43.31 74.62 47.51 68.31 C 51.85 62.45 57.32 57.57 62.46 52.44 C 67.21 47.61 73.24 44.43 78.97 40.95 C 87.92 35.64 97.86 32.11 108.06 30.10 M 148.07 33.19 C 148.24 35.59 148.41 38.00 148.60 40.40 C 150.99 41.52 153.39 42.62 155.80 43.71 C 158.63 41.89 161.42 40.02 164.15 38.05 C 158.91 36.05 153.52 34.49 148.07 33.19 M 93.11 37.99 C 96.52 40.40 100.57 44.44 105.07 42.05 C 109.05 41.04 108.38 36.34 108.85 33.17 C 103.51 34.45 98.23 36.00 93.11 37.99 M 90.84 38.85 C 90.01 42.33 90.89 45.90 91.37 49.36 C 93.75 47.94 96.12 46.50 98.49 45.06 C 96.49 42.64 94.57 40.10 92.04 38.22 L 90.84 38.85 M 158.85 45.25 C 161.32 46.86 163.80 48.44 166.29 50.01 C 166.73 46.62 167.22 43.24 167.70 39.86 C 167.00 39.46 165.60 38.65 164.90 38.25 C 162.87 40.57 160.86 42.91 158.85 45.25 M 68.39 52.14 C 69.70 55.80 71.07 59.43 72.52 63.04 C 74.97 61.10 77.41 59.14 79.84 57.18 C 76.83 55.08 73.83 52.96 70.88 50.77 C 75.62 52.05 80.43 54.24 85.45 53.51 C 88.31 49.52 88.70 44.42 89.75 39.77 C 81.80 42.28 74.97 47.17 68.39 52.14 M 167.86 39.84 C 168.08 44.71 169.34 49.45 171.33 53.89 C 176.51 53.75 181.56 52.41 186.25 50.21 C 180.48 46.16 174.55 42.21 167.86 39.84 M 116.82 48.85 C 113.39 52.73 112.06 57.99 109.24 62.29 C 97.73 81.18 81.47 97.19 62.32 108.27 C 58.71 110.43 54.63 111.77 51.26 114.30 C 50.21 115.97 50.16 118.05 49.88 119.95 C 49.33 127.11 49.58 134.32 50.69 141.42 C 78.64 154.29 102.22 176.92 115.20 204.92 C 116.18 207.76 119.49 207.77 121.98 208.00 C 128.36 208.12 134.82 207.83 141.09 206.55 C 147.49 191.32 157.48 177.77 169.42 166.43 C 180.00 155.84 192.66 147.51 206.29 141.38 C 207.91 132.29 207.24 122.93 205.72 113.88 C 184.18 104.65 165.91 88.65 152.32 69.70 C 147.53 63.16 144.04 55.83 140.38 48.64 C 132.63 47.60 124.42 46.57 116.82 48.85 M 178.07 57.32 C 179.76 60.05 182.70 61.57 185.29 63.31 C 186.43 60.06 187.53 56.79 188.55 53.50 C 188.51 58.28 188.63 63.06 189.17 67.81 C 194.17 68.52 199.24 68.64 204.28 68.21 C 199.88 61.27 193.50 55.93 187.00 51.03 C 183.95 53.02 180.75 54.84 178.07 57.32 M 55.44 101.23 C 65.97 96.60 75.15 89.37 83.42 81.46 C 91.47 73.11 98.66 63.74 103.45 53.12 C 82.79 63.28 65.31 80.37 55.44 101.23 M 153.13 53.02 C 157.65 62.31 163.41 71.02 170.57 78.49 C 179.35 87.83 189.54 96.11 201.39 101.21 C 191.25 80.38 173.93 63.19 153.13 53.02 M 52.78 68.33 C 57.67 68.65 62.60 68.49 67.43 67.60 C 67.59 62.73 67.62 57.84 67.26 52.97 C 61.85 57.47 56.29 62.11 52.78 68.33 M 50.96 68.11 C 51.56 72.67 54.71 76.15 57.28 79.75 C 59.21 77.29 61.15 74.83 63.09 72.38 C 59.24 70.45 55.17 68.99 50.96 68.11 M 194.01 72.74 C 196.00 75.29 197.98 77.85 199.99 80.38 C 202.06 77.46 204.12 74.53 206.17 71.59 C 204.55 76.38 203.28 81.32 203.16 86.41 C 207.20 88.06 211.40 89.31 215.69 90.19 C 212.70 90.59 209.73 91.05 206.75 91.52 C 208.27 94.24 209.77 96.97 211.30 99.69 C 213.37 97.84 215.35 95.88 217.02 93.65 C 217.47 94.12 217.91 94.59 218.35 95.08 C 215.20 97.73 213.22 101.44 213.04 105.58 C 216.42 106.25 219.83 106.69 223.26 106.94 C 222.33 102.33 220.73 97.86 220.25 93.16 C 219.84 93.08 219.03 92.93 218.62 92.85 C 216.04 83.93 210.88 76.03 205.14 68.82 C 201.38 69.98 197.67 71.28 194.01 72.74 M 39.72 89.88 C 44.52 89.04 49.21 87.66 53.64 85.65 C 52.57 81.04 51.76 76.31 49.79 71.97 C 45.07 77.00 41.71 83.29 39.72 89.88 M 37.62 90.48 C 39.34 94.19 42.44 96.85 45.70 99.17 C 47.23 96.40 48.71 93.61 50.13 90.78 C 45.96 90.50 41.79 90.34 37.62 90.48 M 36.78 95.29 C 35.66 99.14 34.51 102.99 33.34 106.82 C 36.68 106.64 40.01 106.32 43.32 105.84 C 42.72 101.93 40.90 98.41 38.63 95.21 C 38.17 95.23 37.24 95.27 36.78 95.29 M 33.05 148.73 C 34.07 154.03 35.52 159.24 37.70 164.19 C 40.47 159.94 45.77 154.96 42.48 149.57 C 39.33 149.34 36.19 149.03 33.05 148.73 M 212.77 153.05 C 212.37 157.03 215.80 160.13 217.56 163.42 C 215.22 161.52 212.88 159.61 210.55 157.71 C 209.13 160.50 207.82 163.35 206.64 166.25 C 210.53 166.52 214.43 166.71 218.33 166.79 C 220.80 160.83 222.98 154.71 223.97 148.31 C 220.19 149.12 213.90 148.07 212.77 153.05 M 153.26 202.40 C 174.25 192.44 191.80 175.06 201.68 154.01 C 180.77 164.21 163.63 181.62 153.26 202.40 M 55.44 154.28 C 65.10 175.35 82.73 192.41 103.40 202.67 C 93.67 181.63 76.10 164.58 55.44 154.28 M 46.40 157.92 C 43.73 160.20 41.07 162.47 38.39 164.74 C 38.47 165.64 38.55 166.53 38.64 167.43 C 42.52 167.01 46.41 166.61 50.31 166.30 C 49.11 163.46 47.80 160.67 46.40 157.92 M 203.06 171.63 C 203.65 176.76 204.89 181.79 206.88 186.55 C 211.76 180.84 215.30 174.13 218.04 167.17 C 212.93 168.23 207.92 169.72 203.06 171.63 M 39.68 168.40 C 41.85 175.20 45.76 181.25 50.10 186.86 C 51.76 182.15 52.97 177.31 53.77 172.39 C 49.24 170.54 44.51 169.18 39.68 168.40 M 199.54 178.17 C 197.53 180.18 195.92 182.56 194.23 184.84 C 198.33 186.57 202.57 188.00 206.96 188.83 C 204.97 185.04 203.33 180.52 199.54 178.17 M 50.35 188.52 C 54.82 188.82 58.87 186.49 62.98 185.11 C 61.06 182.66 59.12 180.22 57.15 177.81 C 54.70 181.25 52.02 184.60 50.35 188.52 M 189.45 189.39 C 188.72 194.41 188.52 199.50 189.04 204.56 C 195.71 200.91 200.85 194.98 205.03 188.74 C 199.83 188.50 194.61 188.64 189.45 189.39 M 52.68 190.47 C 57.19 195.84 62.17 200.82 67.57 205.30 C 68.65 200.31 68.44 195.19 67.52 190.20 C 62.60 189.34 57.57 189.40 52.68 190.47 M 72.39 194.76 C 70.64 198.75 68.66 202.86 69.06 207.35 C 72.80 205.24 76.28 202.72 79.60 200.00 C 77.22 198.23 74.81 196.49 72.39 194.76 M 177.27 200.08 C 180.89 202.81 184.62 205.43 188.83 207.17 C 188.28 202.67 186.63 198.44 184.75 194.35 C 182.26 196.26 179.77 198.17 177.27 200.08 M 71.84 207.77 C 76.63 212.84 83.32 215.68 89.68 218.26 C 88.87 213.40 87.47 208.68 85.62 204.13 C 80.89 204.66 76.10 205.51 71.84 207.77 M 168.19 218.27 C 174.60 214.94 181.36 211.96 186.66 206.93 C 181.79 205.18 176.78 203.88 171.66 203.15 C 169.59 207.93 167.95 212.99 168.19 218.27 M 91.50 206.95 C 90.64 211.38 89.97 215.98 91.41 220.37 C 94.37 217.55 96.97 214.40 99.44 211.15 C 96.79 209.76 94.14 208.35 91.50 206.95 M 157.82 210.82 C 160.00 213.51 162.23 216.18 164.50 218.81 C 165.57 218.66 166.65 218.52 167.72 218.38 C 167.22 214.49 166.71 210.60 166.28 206.71 C 163.43 208.02 160.61 209.38 157.82 210.82 M 92.73 219.64 C 97.87 222.01 103.36 223.44 108.84 224.75 C 108.53 220.83 109.57 214.69 104.44 213.55 C 99.85 213.37 96.36 217.34 92.73 219.64 M 148.55 215.52 C 148.45 218.60 148.30 221.68 148.18 224.76 C 153.70 223.28 159.33 222.01 164.44 219.38 C 161.33 217.27 158.37 214.73 154.77 213.50 C 152.46 212.77 150.49 214.59 148.55 215.52 Z" /></g>
</g><g transform="matrix(0.5,0,0,0.5,0,0)">
<g fill="rgb(189,186,185)" stroke="rgb(189,186,185)" stroke-width=".05%" stroke-opacity="50%"><path d="M29.74 16.05c-2.7 7.76 1.78 16.07 8.28 20.35.19 2.51-.11 5-1.36 7.22-2.98 1.42-6.01 2.81-9.24 3.56-2.82-4.9-5.1-10.39-4.43-16.17.31-5.61 3.19-10.74 6.75-14.96zM98.98 16.42c4.01 4.17 6.45 9.81 6.8 15.58.24 5.52-1.97 10.74-4.81 15.35-2.98-1.14-5.92-2.35-8.91-3.47-1.03-2.14-1.68-4.47-1.63-6.87 3.58-3.44 7.62-6.96 8.68-12.07.94-2.79.34-5.7-.13-8.52z" />
<path d="M39.87 30.02c2.42-4.58 9.29-6.83 13.53-3.39 2.44 1.66 3.66 4.54 3.66 7.44.04 3.29 2.75 6.07 6.05 6.19.23-2.29-.49-4.41-1.57-6.39 1.27-1.29 2.3-2.77 3.17-4.35.28 1.68.98 3.27 2.67 3.94-.8 2.08-2.55 4.33-1.29 6.59 4.15.12 6.04-4.7 6.01-8.21.72-5.69 7.97-8.75 12.71-5.7 5.44 2.05 6.59 10.37 2.47 14.15.83.41 1.67.82 2.51 1.22.37 1.35.65 3.01 2.02 3.75 3.09 1.76 6.47 2.98 9.76 4.32 1.43 11.44 3.16 22.83 4.62 34.26.23 1.81.77 3.63.42 5.47-1.84-6.2-4.13-12.25-6.19-18.37-1.15-2.56.15-5.24.35-7.85.54-5.74-1.74-11.86-6.42-15.38-2.17-1.79-5-2.29-7.61-3.12-2.58.07-5.87 1.7-7.83-.76 3.27.27 6.53-.36 9.37-2.05-.96-.39-1.92-.78-2.89-1.15l1.31.96c-2.58 1.31-6.61 2.57-8.59-.4 3.82.45 8.31-1.13 9.18-5.3 1.91-5.5-4.54-11.08-9.72-8.43-4.47 1.88-5.45 7.82-2.56 11.49-4.53-.21-7.89 3.52-10.97 6.34l-.07-1.06c-3.13-2.13-5.94-5.51-10.07-5.33 2.37-3.47 2.1-8.96-1.93-11.05-3.4-2.07-7.62-.62-9.94 2.37-1.07 2.47-1.09 5.09 0 7.56 2.11 2.66 5.25 3.73 8.58 3.4-1.39 2.43-4.56 1.16-6.45 2.85 1.36-.11 4.08-.33 5.44-.45-1.02 2.8-4.74.94-6.86 1.34 1.86 2.77 6.53-.76 7.71 2.46-1.36 2.25-3.55 3.34-6.15 3.19-.61-2.56-2.05-6.59-5.56-5.01-.34-.55-.67-1.09-.99-1.64l1.07-.86c.08-.65.23-1.97.31-2.63 1.73 1.22 3.4 2.64 5.55 3.06-.27-.39-.8-1.18-1.07-1.57-4.54-1.7-5.48-7.85-3.74-11.9z" />
<path d="M52.96 46.29c-4.01.99-2.66-5.37.29-5.67 4.72-1.2 8.11 2.89 11.36 5.54 1.53-2.12 3.77-3.48 5.78-5.06 2.61-.97 5.6-.98 7.72 1.04.11 1.27.05 2.54-.18 3.8-1.87 1.23-4.28-.57-6.15.87-2.21 1.52-5.01 1.55-7.25 2.96-1.44-.86-3.09-1.19-4.73-1.38-2.01-1.38-4.3-2.67-6.84-2.1zM27.19 50.06c2.52-2.27 6.64-2.81 9.62-4.67-.33.44-.99 1.33-1.32 1.78-7.68 3.73-8.92 14.14-6.52 21.56-2.62 6.84-4.4 14.03-7.46 20.69 2.17-13.08 3.49-26.29 5.68-39.36zM78.36 47.23c.79-2.01 3.01-.9 4.55-1.16 1.55-.15 3.07-.52 4.53-1.11-1.56 1.69-2.45 3.83-3.48 5.85-1.2-.34-2.4-.66-3.61-.97-.63-.9-1.29-1.77-1.99-2.61z" />
<path d="M85.17 50.96c.58-2.18 2.92-4.42 5.29-3.41 3.87.99 6.25 4.69 7.37 8.29 2.03 5.82 1.27 12.65-2.23 17.75-4.18 4.78-10.71 7.48-13.5 13.47-1.75 3.93 2.12 7.06 3.49 10.41 1.91 3.68 3.77 9.09.13 12.35-2.86 1.84-6.61 2.64-9.83 1.32-2.52-1.32-3.83-4.01-5.06-6.44-4.34.03-8.68.01-13.02.02-1.18 3.04-3.12 6.46-6.67 6.95-3.95.58-9.27-1.03-10.12-5.47-.41-4.95 2.38-9.35 4.84-13.41 1.09-1.64 1.62-3.72.84-5.6-3.67-7.83-14.25-10.21-16.14-19.13-1.23-5.4-.89-11.49 2.22-16.23 1.65-2.43 4.22-4.64 7.33-4.55 1.79.48 2.75 2.1 3.62 3.59-1.54 2.14-2.32 5.07.39 6.71.12 1.56-1.6 1.97-2.33.65-2.51-2.19-1.02-5.54-.54-8.26-.54-.22-1.63-.67-2.18-.89-5.66 2.45-7.71 9.13-7.12 14.86 0 5.81 3.67 10.78 7.97 14.35 3.44 3.13 7.89 5.92 9.11 10.69-.13 4.92-5.15 8.76-4.02 13.96 1.08 2.7 4.09 4.32 6.93 4.45 2.5-.06 3.62-2.57 4.41-4.55 5.38-.02 10.75-.02 16.12 0 .68 1.72 1.41 4.05 3.56 4.34 2.56.59 4.83-1.12 6.92-2.33 3.79-6.14-4.6-11.25-2.99-17.52 4.37-7.28 13.75-10.63 16.11-19.25 2.23-6.75.45-16.49-7.02-19.13-.63.6-1.26 1.2-1.89 1.81 2.02 2.93 1.39 6.99-1.87 8.68-.13-.47-.4-1.4-.53-1.87 2.62-1.59 1.46-4.49.41-6.61z" />
<path d="M50.64 48.72c2.11-2.47 5.47-1.23 7.85.08-2.67.88-4.32 4.63-1.8 6.62.76 1.62 1.92-.58 2.85-.96.32 1.19.72 2.36 1.27 3.47.62-1.56 1.84-3.09 1.2-4.85-1.92-.65-4.55-.51-4.3 2.24-.44-.59-1.33-1.77-1.78-2.36.64-1.07 1.33-2.1 2.07-3.1 2.15-.21 4.27.13 6.25.98 2.11-.72 4.27-1.2 6.51-1.01 1.57 1.74 2.68 3.63.63 5.5-.33-2.3-2.23-3.08-4.22-2.37-.2.5-.59 1.5-.79 2 .89 1.37 1.91 2.67 3.25 3.64-.82 1.94-3.1 1.79-4.8 2.21-.1-1.59-.19-3.17-.28-4.75l-.39 4.78c-1.31-.26-2.61-.56-3.9-.9-.72-.74-1.32-2.18-2.61-1.84-2.6.37-5.22-.06-7.48-1.4-1.31-2.5-1.94-5.9.47-7.98z" />
<path d="M70.32 48.78c2.5-1.65 5.64-2.14 8.14-.23 2.32 3.03 1.52 7.46-1.78 9.39-3.07.41-8.67 1.34-7.58-3.82.64.56 1.91 1.68 2.54 2.23 2.65-2.22 1.96-6.34-1.32-7.57zM44.22 52.24c1.19-.36 2.39-.7 3.59-1.02-.11 2.78.89 5.37 2.89 7.31-1.48-.22-2.95-.41-4.43-.59-1.03-1.02-2.04-2.06-3.02-3.12.24-.64.72-1.94.97-2.58z" />
<path d="M80.9 51.2c1.38.34 3.38.45 4.01 1.97 1.31 1.98-1 3.43-2.16 4.7-1.49.24-2.99.5-4.47.78 1.84-2.06 2.77-4.69 2.62-7.45z" /></g>
<g fill="rgb(135,0,10)" stroke="rgb(135,0,10)" stroke-width=".05%" stroke-opacity="50%"><path d="M42.46 32.17c.82-4.64 7.72-5.79 10.47-2.26 1.87 1.85 1.47 4.63 1.1 6.97-1.24 1.1-2.53 2.15-3.86 3.15-1.3-.01-2.61-.01-3.91 0-2.92-1.41-4.91-4.6-3.8-7.86m4.24 2.66c.48.2 1.45.62 1.93.83.56-.67 1.12-1.35 1.66-2.04l-2.41-1.61c-.42.93-.81 1.87-1.18 2.82zM78.31 27.92c2.19.12 4.63-.3 6.44 1.26 2.85 2.72 2.49 8.58-1.32 10.28-3.2 1.72-7.64-.02-8.65-3.56-1.3-3.1.85-6.43 3.53-7.98m1.89 4.55c-2.09.33-1.4 3.38.59 2.93 2.3.04 1.24-3.58-.59-2.93zM44.29 70.37c-.84-4.03-1.2-8.26.8-12.03l3.8.92c-.91 3.96-3.4 7.25-4.6 11.11zM49.09 61.19c-.05-1.94 1.84-2.2 3.32-2.54 1.7.43 3.45.57 5.2.57 3.9 3.09 9.76 2.73 13.74-.05 1.76.07 3.54-.07 5.25-.56.55.18 1.67.54 2.22.72 2.27 4.52.62 9.74-1.35 14.05.11-3.64-.46-7.26-1.62-10.71-.93 1.91-2.52 2.87-4.63 2.12-.87.31-2.61.92-3.49 1.23-.4-.54-1.21-1.62-1.61-2.15l.21 1.95h-4.11c.11-.44.34-1.32.45-1.76-.92 1.94-4.19 2.39-4.97.1-.95.7-2.12.84-3.25 1.01-.23-.62-.68-1.88-.91-2.5-2.31 3.02-2.24 7.01-2.32 10.64-1.97-3.73-2.7-7.95-2.13-12.12zM79.89 59.19c.92-.2 2.75-.59 3.67-.78 2.02 3.52 1.92 7.93.55 11.67-.71-3.94-3.69-6.92-4.22-10.89zM54.28 84.45c.45-.59 1.33-1.77 1.78-2.36-1.78 3.93-3.37 8.38-2.06 12.7.38-.71 1.13-2.13 1.5-2.84.69 1.49 1.42 2.97 2.19 4.43l-.06-2.13c2.52.32 5.87-.93 7.35 1.88.03-.48.1-1.45.13-1.93 1.74.06 3.48.11 5.22.16.25.46.74 1.39.99 1.86.58-1.34 1.19-2.67 1.91-3.94.44.61 1.32 1.82 1.76 2.42.6-4.33-.57-8.57-2.19-12.55 3.66 6.52 9.47 12.77 9.28 20.66-.81.73-1.62 1.48-2.43 2.22-1.44.01-2.89-.02-4.33-.07-.64-1.3-1.24-2.62-1.77-3.97-6.12.11-12.23.08-18.35.03-.68 1.37-1.21 2.88-2.36 3.95-2.08.64-4.1-.26-5.9-1.2-1.61-7.26 4.26-13.28 7.34-19.32z" /></g>


</g></svg>