<svg width="64" height="64" viewBox="0 0 64 64" shape-rendering="geometricPrecision" version="1.1" xmlns="http://www.w3.org/2000/svg"><desc>Created by https://guilds.gw2w2w.com/</desc><rect x="0" y="0" width="64" height="64" fill="none" stroke="none"/><g transform="matrix(0.5,0,0,0.5,0,0)">
<g fill="rgb(0,108,108)" stroke="rgb(0,108,108)" stroke-width=".05%" stroke-opacity="50%"><path d="M36 49.87c1.15.54 2.27 1.14 3.38 1.77 1.49 1.21 2.95 2.5 3.87 4.22-2.76-1.55-4.87-3.96-7.25-5.99zM84.88 56.09c2.26-2.69 5.18-4.8 8.38-6.22-2.73 2.12-4.99 5.11-8.38 6.22zM32.84 53.17c1.64.63 3.24 1.36 4.84 2.08 2.61 1.65 6.64 1.94 7.27 5.57-4.07-2.5-8.17-4.96-12.11-7.65zM85.91 58.02c3.52-1.38 6.67-3.63 10.21-4.87-.76.88-1.66 1.64-2.73 2.11-3.31 1.88-6.48 3.99-9.69 6.01.44-1.24.68-2.88 2.21-3.25zM30.9 57.23c4.6 1.36 9.2 2.85 13.67 4.57.25.36.73 1.07.98 1.42 1.18 5.59 2.43 11.18 3.28 16.84-1.13.81-2.28 1.59-3.52 2.25-4.29 1.43-7.85 4.57-12.19 5.69 4.42-3.38 9.44-5.85 13.97-9.07-5.51 1.21-10.64 3.73-16.16 4.92 5.07-2.69 10.66-4.36 15.43-7.58-1.82.43-3.65.87-5.46 1.37-.49-.52-.98-1.04-1.48-1.55 2.27-.48 4.51-1.1 6.71-1.83-6.06.23-12.21.41-18.19 1.42 5.53-2.27 11.7-2.02 17.3-4.03-5.79-.25-11.58-.66-17.36-1.16 5.76-.85 11.61-.13 17.36-.98-5.41-1.48-10.97-2.32-16.5-3.19 5.56-.76 11.08 1.19 16.62.47-4.93-1.6-9.83-3.35-14.91-4.44-.3-.23-.92-.7-1.22-.94 5.43 1.06 10.83 2.27 16.31 3.08-4.66-2.85-9.9-4.57-14.64-7.26zM83.35 62.4c5-2.22 10.32-3.77 15.58-5.26-5.19 2.48-10.62 4.52-15.52 7.57 5.46-.93 10.85-2.46 16.34-3.09-5.11 2.12-10.74 3.28-16.01 5.18 5.77.69 11.53-1.31 17.3-.35-5.83.58-11.64 1.56-17.28 3.19 5.8.55 11.64.07 17.42.83-5.81.57-11.63.94-17.46 1.19 5.46 1.52 11.08 2.46 16.72 2.95 2.01.99-1.05.77-1.72.68-5.07-.53-10.21-.87-15.31-1.16 5.35 2.4 11.3 3.16 16.58 5.63-5.79-.93-11.52-2.28-17.28-3.43 4.38 2.54 9.05 4.62 13.82 6.3.35.3 1.05.92 1.4 1.23-5.12-1.74-10.6-2.79-15.31-5.46-.12.19-.36.59-.48.78 4.79 2.73 9.51 5.62 13.97 8.86-5.25-2.14-10.14-5.08-15.42-7.16 4.37 3.82 9.04 7.27 13.4 11.1-3.91-2.04-7.47-4.67-11.17-7.05-.57-1.35-1.44-.65-2.2-.39 3.72 3.41 7.01 7.26 10.28 11.09-3.89-3.24-7.74-6.53-11.58-9.84.1-1.58-.02-3.18.38-4.73.69-6.3 2.01-12.52 3.55-18.66zM64.38 62.88c.75 3.04 3.45 6.66 1.29 9.59-.53-.06-1.6-.19-2.13-.26-.92-3.16.14-6.25.84-9.33m-.07 4.29c-.42 1.47-.53 3.28.13 4.7 2.48.44.91-4.12-.13-4.7z"/>
<path d="M39.21 75.39c.06.93.15 1.85.25 2.78-3.6-.3-6.89 1.7-10.49 1.71 3.05-1.41 6.32-2.15 9.51-3.15l.73-1.34zM47.5 81.73c.51-.01 1.53-.04 2.03-.05l-.96 1.77c-4.38 3-8.88 5.87-13.42 8.63 1.03-.96 2.08-1.89 3.12-2.83 3.22-2.32 6.17-4.99 9.23-7.52zM40.46 92.6c3.24-2.58 5.84-5.83 8.58-8.91 1.01 3.97-3.47 5.32-5.75 7.57-1.33 1.37-2.73 2.7-4.32 3.77.2-1 .7-1.81 1.49-2.43zM47.75 90.21c-.7 3.38-3.51 5.69-5.79 8.08 1.59-2.92 3.61-5.58 5.79-8.08zM80.92 89.18c2.36 3.25 5 6.31 6.98 9.82-2.19-2.54-4.5-4.99-6.8-7.43-.04-.6-.13-1.79-.18-2.39zM77.8 93.08c.62-.1 1.24-.21 1.87-.3 1.25 2.84 2.97 5.44 4.24 8.27-.91-1.09-1.76-2.24-2.63-3.37-1-1.64-2.23-3.14-3.48-4.6zM45.18 101.26c1.42-2.82 2.78-5.74 4.75-8.21l1.31-.19c-1.86 2.91-3.86 5.74-6.06 8.4zM52.38 94.33c.43.32.85.65 1.26.99-1.82 2.67-2.32 6.06-4.35 8.56.52-3.33 2.5-6.23 3.09-9.55zM75.88 96.06c-.69-.83-.1-1.67.39-2.37 1.07 3.16 3.42 5.88 3.63 9.31-1.46-2.25-2.85-4.54-4.02-6.94zM73.41 97.99c1.76 1.94 1.8 4.71 2.43 7.13-1.12-2.26-2.12-4.61-2.43-7.13zM54.34 100.34c2.12.26.49 4.12-.87 4.37-.25-1.37-.13-3.3.87-4.37zM69.67 102.85l1.51-.24c.65 1.17.89 2.8.28 4.02-1.3-.27-1.18-2.69-1.79-3.78zM57.53 106.67c-.41-1.1-.3-3.82 1.42-3.52.95 1.02-.25 3.35-1.42 3.52z"/></g>
<g fill="rgb(189,186,185)" stroke="rgb(189,186,185)" stroke-width=".05%" stroke-opacity="50%"><path d="M62.38 16.29c3.31-.47 7.04.7 8.23 4.11 1.77 3.99-1.49 7.81-5.03 9.29 1.82.37 3.78.74 4.98 2.33-4.06.31-8.14.21-12.21.03.93-2.01 3.28-1.88 5.09-2.3-3.52-1.55-6.35-4.73-5.53-8.85 1.02-1.96 2.51-3.57 4.47-4.61m-2.79 7.59c.46 3.87 5.21 4.16 8.05 2.96 2.83-2.51 2.07-6.8-.8-8.94-3.76-1.39-8.49 1.8-7.25 5.98zM54.65 36.84c1.26-1.07 1.76-2.64 2.35-4.12 4.86.12 9.73.1 14.6.09.84 2.52 2.62 4.49 4.2 6.55 1.34.31 2.69.56 4.02.9-.49 2.09-3.25.17-4.66.45-8.62-.32-17.34-.62-25.93.43-.02.17-.05.5-.07.66 12.51-.4 25.33-1.27 37.65 1.86-.17-.5-.5-1.49-.67-1.99.77.13 2.32.39 3.09.51l-.68.65-.58.5c.86 1.54 3.29.43 4.7 1.19.14.66.42 2 .56 2.67-8.71-1.44-17.26-4.51-26.18-3.99-4.31.12-8.65-.27-12.94.25-6.24 1.21-12.47 2.53-18.72 3.73.12-.57.35-1.72.47-2.29 3.85-1.06 7.86-1.74 11.85-1.99.08-1.26.17-2.53.27-3.79l.17 1.43c1.67-.42 3.34-.83 5.02-1.24.47-.84.96-1.66 1.48-2.46m-.64 1.18V39c7.14.23 14.3.24 21.44-.05-.53-.22-1.59-.66-2.12-.89-6.43-.16-12.88-.02-19.32-.04z"/>
<path d="M81.55 41.98c-1.31-.25-.69-2.27.5-1.5l.88.26c.47.26 1.42.78 1.9 1.04l-3.28.2zM38.84 42.99c2.54-1.78 5.74-1.84 8.68-2.38-.12.35-.34 1.05-.46 1.4-2.77.02-5.44 1.01-8.22.98zM35.74 48.19c6.53-.54 12.82-2.57 19.29-3.49 5.98-.12 11.96-.06 17.94-.03 6.74.66 13.2 3.01 19.95 3.56-2.37 1.03-5.18 1.73-6.27 4.36-.87.89-1.68 1.86-1.96 3.11-3.31 10.15-5.85 20.74-5.75 31.47-.25 1.47 2.89 3.46.61 4.25-4.27.9-7.25 4.98-6.66 9.33-1.29.05-2.45.46-3.46 1.21-3.94.06-8.29.98-11.94-.8-.47-.07-1.39-.22-1.85-.3-.27-1.98-.3-4.09-1.39-5.84-1.15-2.38-3.89-3.05-6.2-3.77-.02-.62-.07-1.85-.09-2.46l2-.12c-.31-11.44-2.52-22.78-6.2-33.6-1.7-3.27-4.44-5.83-8.02-6.88m10.93 4.22c3.76 11.75 5.75 24.02 6.58 36.31l4.35.06c-1.21-12.55-2.17-25.14-3.63-37.67-2.4.61-4.85.97-7.3 1.3M57.44 51c1.34 12.81 2.17 25.67 3.86 38.45l1.2-1c.32-3.91.04-7.84.09-11.76.98-1.29 1.66-2.77 2.46-4.17-.05.84-.14 2.51-.19 3.34l1.78-.28c.05 4.68-.31 9.38.24 14.05.23-.43.67-1.27.89-1.7 1.07-12.31 2.37-24.61 3.32-36.93H57.44m17.07.18c-1.22 12.53-2.14 25.09-3.56 37.6 1.45-.01 2.9-.02 4.35-.04 1.03-12.31 2.72-24.68 6.72-36.42-2.53-.23-5.03-.62-7.51-1.14zM60.91 102.97c2.13.04 4.27.02 6.41-.06-1.2 2.02-1.53 4.33-1.43 6.64-.33.71-1 2.11-1.33 2.81-2.39-2.6-1.66-6.54-3.65-9.39z"/></g>
<g fill="rgb(189,186,185)" stroke="rgb(189,186,185)" stroke-width=".05%" stroke-opacity="50%" opacity="0.3"><path d="M54.01 38.02c6.44.02 12.89-.12 19.32.04.53.23 1.59.67 2.12.89-7.14.29-14.3.28-21.44.05v-.98z"/></g>

</g></svg>