<svg width="64" height="64" viewBox="0 0 64 64" shape-rendering="geometricPrecision" version="1.1" xmlns="http://www.w3.org/2000/svg"><desc>Created by https://guilds.gw2w2w.com/</desc><rect x="0" y="0" width="64" height="64" fill="none" stroke="none"/><g transform="matrix(0.25,0,0,0.25,0,0)">
<g fill="rgb(26,24,27)" stroke="rgb(26,24,27)" stroke-width=".05%" stroke-opacity="50%" opacity="0.7"><path d=" M 192.70 52.58 C 197.72 46.96 205.63 46.70 212.57 45.64 C 209.41 47.14 206.10 48.26 202.81 49.43 C 198.80 50.81 195.55 53.61 192.13 56.01 C 187.74 59.10 183.36 62.21 179.20 65.60 C 184.30 66.26 188.82 63.74 193.35 61.87 C 190.72 64.02 187.75 65.70 184.68 67.13 C 184.49 67.50 184.11 68.23 183.92 68.60 C 185.08 69.00 186.25 69.39 187.43 69.79 C 186.85 72.91 186.66 76.24 184.91 78.99 C 182.99 82.10 180.86 85.10 179.21 88.37 C 176.23 90.62 173.28 92.92 170.49 95.40 C 174.01 93.86 177.48 92.22 180.96 90.57 C 182.60 91.19 184.25 91.82 185.90 92.45 C 185.31 95.89 184.67 99.32 184.05 102.76 C 186.44 101.30 188.88 99.94 191.37 98.66 C 187.95 104.61 182.21 108.46 176.59 112.11 C 185.98 107.68 195.76 104.21 205.17 99.82 C 196.24 105.17 186.99 110.17 179.04 116.95 C 184.41 116.41 188.64 112.87 193.27 110.48 C 197.66 108.14 201.87 105.49 206.20 103.03 C 198.77 108.36 190.50 112.32 182.67 117.00 C 182.64 117.86 182.58 119.58 182.54 120.44 C 185.22 119.21 187.90 117.98 190.48 116.55 C 197.67 112.36 205.70 109.96 213.13 106.27 C 217.87 103.89 222.90 102.17 228.09 101.11 C 227.82 104.21 226.58 107.05 224.39 109.27 C 225.69 109.80 226.98 110.34 228.28 110.89 C 227.01 112.12 225.75 113.36 224.49 114.60 C 224.53 115.94 224.57 117.28 224.61 118.63 C 220.25 120.90 215.78 122.98 211.55 125.49 C 207.10 128.10 203.49 131.83 199.87 135.44 C 199.28 135.64 198.70 135.85 198.12 136.06 C 195.76 140.12 191.33 141.63 187.14 143.02 C 186.37 144.36 186.00 146.21 184.37 146.80 C 179.80 148.82 175.38 151.16 170.99 153.53 C 171.52 154.41 172.07 155.28 172.61 156.16 C 168.07 157.73 164.07 160.39 160.22 163.20 C 153.58 167.43 147.65 172.64 141.47 177.49 C 141.01 177.01 140.54 176.53 140.08 176.06 C 134.87 180.74 130.09 186.37 123.60 189.28 C 125.87 185.13 129.37 181.92 132.60 178.54 C 122.27 185.41 113.99 194.79 104.12 202.22 C 102.17 203.76 101.41 200.87 100.79 199.59 C 103.34 196.84 105.84 194.05 108.43 191.34 C 108.45 190.39 108.46 189.45 108.47 188.51 C 114.01 185.22 116.62 179.22 119.61 173.83 C 118.59 174.51 117.58 175.20 116.56 175.88 C 116.15 175.41 115.33 174.46 114.92 173.98 C 113.23 175.65 111.50 177.26 109.73 178.83 C 110.55 179.45 111.36 180.07 112.18 180.70 C 109.28 183.11 106.37 185.51 103.65 188.12 C 103.61 189.19 103.56 190.27 103.52 191.35 C 102.78 192.08 102.04 192.81 101.30 193.55 C 101.48 191.95 101.65 190.35 101.84 188.75 C 100.29 190.38 98.72 192.00 97.11 193.56 C 97.50 191.65 97.29 189.36 98.91 187.95 C 103.76 182.76 109.65 178.43 113.26 172.17 C 109.47 174.42 106.23 177.43 103.25 180.66 C 103.41 179.09 103.58 177.53 103.75 175.97 C 100.22 179.87 96.57 183.70 92.14 186.59 C 95.81 181.21 99.33 175.57 104.46 171.43 C 104.45 170.45 104.44 169.48 104.43 168.51 C 107.98 165.11 111.57 161.74 114.67 157.91 C 108.09 162.84 102.40 168.80 96.39 174.38 C 94.68 175.97 92.64 177.12 90.61 178.24 C 92.17 176.25 93.84 174.35 95.59 172.53 C 94.98 171.89 94.38 171.25 93.78 170.62 C 95.26 170.59 96.74 170.55 98.22 170.53 C 108.28 160.21 119.16 150.73 130.50 141.83 C 128.14 142.89 125.80 143.96 123.46 145.04 C 130.20 137.47 139.34 132.71 146.56 125.68 C 137.30 130.76 129.57 138.11 120.57 143.59 C 115.78 146.20 113.51 152.35 107.67 153.11 C 109.84 150.33 112.22 147.72 114.57 145.09 C 106.65 151.76 98.05 157.65 90.77 165.05 C 87.48 166.37 85.13 169.06 83.21 171.95 C 82.02 171.48 80.83 171.01 79.64 170.53 C 79.62 171.47 79.60 172.41 79.59 173.35 C 77.92 174.52 76.26 175.70 74.60 176.87 C 74.62 177.74 74.63 178.62 74.63 179.50 C 73.40 179.55 72.16 179.59 70.92 179.64 C 67.72 185.95 63.70 191.88 58.56 196.78 C 59.61 194.63 60.69 192.49 61.79 190.36 C 59.50 192.17 57.19 193.96 54.84 195.69 C 58.48 191.02 62.66 186.81 66.24 182.10 C 66.56 179.68 67.12 177.30 67.83 174.96 C 64.33 178.78 60.53 182.31 56.96 186.06 C 55.95 185.59 54.95 185.12 53.95 184.66 C 51.17 188.30 47.63 191.21 44.12 194.10 C 35.76 201.83 28.44 210.59 20.83 219.04 C 24.22 214.55 27.60 210.05 30.28 205.10 C 32.70 200.39 37.60 197.83 40.59 193.58 C 42.90 190.45 44.98 187.14 46.80 183.70 C 45.81 183.37 44.10 184.07 43.86 182.63 C 45.00 181.11 46.89 180.69 48.71 180.85 C 50.79 179.48 52.95 178.09 54.43 176.06 C 55.76 173.85 56.17 171.24 56.88 168.80 C 52.00 170.76 47.20 172.94 42.78 175.79 C 44.42 173.28 45.85 170.65 47.37 168.07 C 48.51 166.26 49.42 164.31 50.10 162.28 C 46.15 165.09 42.86 169.01 38.05 170.40 C 41.86 165.25 45.18 159.17 51.45 156.68 C 50.95 156.00 50.45 155.33 49.95 154.66 C 53.21 150.70 56.78 147.02 60.43 143.42 C 64.59 139.40 67.56 134.37 71.55 130.20 C 70.78 130.35 69.25 130.65 68.48 130.80 C 73.28 124.85 79.40 120.19 84.48 114.51 C 90.56 107.63 97.45 101.55 103.60 94.75 C 106.39 91.88 109.70 89.48 111.93 86.11 C 112.98 85.21 114.03 84.31 115.09 83.43 C 113.82 83.46 111.27 83.53 110.00 83.56 C 113.09 81.63 116.25 79.81 119.35 77.91 C 113.06 80.19 107.73 84.39 101.56 86.93 C 103.62 85.00 105.77 83.19 107.90 81.35 C 106.07 81.30 104.24 81.25 102.41 81.18 C 106.03 77.68 111.14 77.32 115.62 75.58 C 112.80 75.96 110.02 76.55 107.24 77.08 C 110.73 74.40 114.44 72.04 118.23 69.81 C 110.51 73.69 102.51 77.04 95.08 81.46 C 95.24 80.52 95.41 79.57 95.58 78.62 C 96.21 78.61 97.48 78.58 98.11 78.57 C 102.38 73.73 108.57 71.47 113.41 67.35 C 112.83 66.82 111.68 65.78 111.11 65.26 C 116.98 62.68 122.29 59.06 127.76 55.75 C 130.89 53.84 133.82 51.44 137.40 50.42 C 140.64 49.49 144.00 49.19 147.32 48.70 C 148.13 49.31 148.93 49.92 149.74 50.54 C 151.31 50.44 152.88 50.34 154.45 50.23 C 151.25 51.62 148.53 53.80 145.66 55.73 C 143.12 56.95 140.18 56.80 137.44 57.12 C 137.36 58.73 137.31 60.35 137.24 61.97 C 143.47 60.22 149.30 57.06 155.80 56.34 C 149.13 62.56 140.05 64.97 132.58 70.01 C 143.18 66.53 152.51 59.88 163.37 57.06 C 163.54 56.59 163.86 55.65 164.02 55.18 C 161.86 55.37 159.70 55.54 157.54 55.68 C 163.42 52.58 170.13 51.53 175.91 48.22 C 178.82 46.45 182.27 46.51 185.55 46.42 C 182.07 48.19 178.28 49.65 175.71 52.76 C 176.88 52.46 179.23 51.85 180.40 51.55 C 177.39 54.02 174.60 56.75 172.28 59.88 C 179.01 58.51 185.60 56.44 192.40 55.37 C 192.47 54.67 192.62 53.28 192.70 52.58 M 153.63 150.13 C 149.47 152.30 144.93 153.96 141.37 157.11 C 138.67 159.86 136.38 162.98 133.55 165.61 C 136.61 163.48 139.89 161.69 143.22 160.00 C 148.31 157.63 151.29 152.16 156.99 150.84 C 159.97 147.75 163.40 145.16 167.14 143.07 C 162.56 145.28 158.23 147.95 153.63 150.13 Z"/>
<path d=" M 187.57 149.50 C 192.39 145.26 197.51 141.17 203.52 138.75 C 198.48 142.73 192.99 146.07 187.57 149.50 Z"/></g>
</g><g transform="matrix(0.25,0,0,0.25,0,0)">
<g fill="rgb(189,186,185)" stroke="rgb(189,186,185)" stroke-width=".05%" stroke-opacity="50%"><path d=" M 136.66 104.38 C 140.66 104.01 144.90 103.83 148.38 101.58 C 150.71 102.65 149.33 105.09 149.36 107.02 C 150.17 108.98 152.47 108.17 154.08 108.37 C 154.84 108.86 155.60 109.34 156.37 109.83 L 156.52 110.17 C 162.41 112.14 167.38 116.04 172.17 119.86 C 174.35 123.03 177.06 125.79 179.24 128.94 C 181.77 135.29 180.29 142.36 180.89 149.02 C 180.53 150.73 180.26 153.46 178.00 153.55 C 171.83 154.16 166.10 156.58 160.19 158.24 C 155.98 159.53 151.63 160.61 147.81 162.87 C 145.44 164.66 143.63 167.06 141.77 169.35 C 137.24 168.10 132.64 166.84 127.91 167.74 C 122.62 167.27 117.34 167.61 112.31 169.47 L 112.59 168.51 L 111.99 168.33 C 111.29 167.56 110.59 166.80 109.88 166.05 C 105.12 159.90 96.69 159.76 89.97 157.14 C 85.08 155.03 79.81 154.05 74.56 153.38 C 72.84 149.47 73.66 145.11 73.42 140.98 C 73.63 135.88 73.29 129.89 77.27 126.05 C 79.82 123.63 81.17 120.11 84.15 118.14 C 89.29 114.54 94.09 110.18 100.22 108.32 C 101.71 108.32 103.21 108.32 104.71 108.29 C 104.96 105.94 103.67 103.28 105.46 101.31 C 109.22 103.49 113.75 104.50 118.08 104.09 C 121.97 105.08 125.79 103.10 129.74 103.65 C 131.87 104.66 134.25 104.55 136.54 104.39 L 136.66 104.38 Z"/></g>
<g fill="rgb(135,0,10)" stroke="rgb(135,0,10)" stroke-width=".05%" stroke-opacity="50%"><path d=" M 95.29 42.27 C 101.50 39.50 108.20 38.18 114.71 36.35 C 114.64 36.81 114.49 37.72 114.41 38.18 C 117.84 36.79 121.02 38.82 123.81 40.60 C 118.89 42.18 113.86 43.82 109.71 47.02 C 109.22 48.69 108.67 50.33 108.10 51.97 C 107.07 51.10 106.06 50.22 105.04 49.34 C 102.63 51.00 101.58 53.57 101.57 56.43 C 96.27 57.51 91.79 61.84 89.50 66.65 C 83.30 66.48 79.67 60.94 74.69 58.12 C 74.42 57.63 73.88 56.64 73.61 56.15 C 78.78 50.82 84.68 46.24 91.03 42.40 C 92.45 42.56 93.98 43.12 95.29 42.27 Z"/>
<path d=" M 132.20 58.90 C 135.76 53.72 142.25 52.72 148.02 51.90 C 152.65 51.40 157.32 51.80 161.88 52.71 C 164.54 54.22 167.44 55.43 170.55 55.41 C 174.31 57.03 178.35 58.20 181.54 60.89 C 182.28 60.85 183.76 60.78 184.50 60.75 C 182.25 66.41 177.29 70.17 172.09 72.94 C 169.00 68.05 162.56 67.26 157.29 66.80 C 156.62 65.49 156.05 64.11 155.12 62.96 C 153.92 61.52 151.97 62.51 150.44 62.62 C 149.90 61.88 149.36 61.15 148.82 60.41 C 143.31 59.58 137.79 58.79 132.20 58.90 Z"/>
<path d=" M 62.81 66.03 C 65.08 63.08 67.65 60.34 70.82 58.34 C 75.90 62.29 81.08 66.15 86.50 69.63 C 89.87 70.98 93.52 71.71 97.07 72.47 C 100.10 71.69 102.33 69.35 104.69 67.46 C 105.06 67.39 105.80 67.24 106.17 67.16 C 107.63 64.84 110.47 64.58 112.83 63.74 C 116.24 62.58 119.53 61.08 122.95 59.96 C 120.71 62.39 118.42 64.82 115.66 66.67 C 110.56 70.21 106.29 74.81 101.02 78.10 C 96.98 80.69 93.29 83.80 89.11 86.18 C 86.97 87.40 84.99 88.87 83.34 90.70 C 79.31 90.59 74.44 91.67 71.06 88.99 C 66.90 81.93 65.66 73.64 62.81 66.03 Z"/>
<path d=" M 174.05 74.06 C 178.37 70.40 182.49 66.50 186.97 63.03 C 190.12 64.78 192.82 67.19 195.16 69.91 C 193.22 77.67 192.18 85.67 189.14 93.13 C 185.51 94.83 181.50 95.39 177.52 95.46 C 174.44 92.21 169.91 91.17 166.29 88.69 C 161.66 85.58 156.37 83.56 152.05 79.98 C 147.89 76.69 142.78 74.68 139.09 70.82 C 138.20 70.33 137.31 69.85 136.42 69.36 C 142.07 69.53 147.12 72.45 152.69 73.11 C 152.67 73.51 152.63 74.32 152.61 74.72 C 154.22 74.72 155.83 74.72 157.44 74.73 C 158.75 78.94 163.40 81.46 167.63 80.59 C 170.80 79.60 171.58 75.93 174.05 74.06 Z"/>
<path d=" M 56.54 74.77 C 58.34 74.06 60.14 73.33 61.90 72.51 C 63.24 79.28 66.27 85.56 69.56 91.57 C 65.90 90.64 62.16 89.18 59.82 86.06 C 57.01 83.03 56.71 78.68 56.54 74.77 Z"/>
<path d=" M 196.64 75.94 C 198.33 76.76 200.76 76.66 201.92 78.19 C 203.51 85.64 198.27 93.42 190.78 94.82 C 193.71 88.87 195.67 82.50 196.64 75.94 Z"/>
<path d=" M 116.13 84.46 C 117.19 85.70 118.23 86.95 119.27 88.20 C 118.31 88.73 117.36 89.31 116.34 89.71 C 114.82 88.18 115.09 86.17 116.13 84.46 Z"/>
<path d=" M 138.00 84.68 C 138.88 85.99 139.83 88.10 138.08 89.14 C 136.91 90.50 136.10 88.69 135.25 87.97 C 136.17 86.87 137.08 85.77 138.00 84.68 Z"/>
<path d=" M 55.39 90.70 C 57.00 90.52 58.70 90.11 60.25 90.85 C 64.30 92.43 68.42 93.89 72.69 94.78 C 76.26 95.50 78.59 98.54 81.36 100.63 C 85.07 103.89 89.46 106.20 93.88 108.34 C 89.95 111.30 85.86 114.02 81.78 116.77 C 78.92 114.44 75.63 112.64 73.02 110.01 C 67.27 103.46 60.53 97.80 55.39 90.70 Z"/>
<path d=" M 117.59 91.31 C 118.30 94.88 118.59 98.51 119.07 102.11 C 118.43 102.15 117.16 102.21 116.52 102.25 C 117.12 98.63 117.36 94.97 117.59 91.31 Z"/>
<path d=" M 136.54 104.39 C 134.63 100.56 135.90 96.33 136.49 92.36 C 136.93 95.49 137.19 98.65 137.90 101.74 C 137.59 102.40 136.97 103.72 136.66 104.38 L 136.54 104.39 Z"/>
<path d=" M 180.04 99.04 C 183.26 97.33 187.00 97.18 190.56 96.88 C 190.97 97.24 191.79 97.96 192.19 98.32 C 193.84 98.72 195.47 99.16 197.09 99.64 C 189.09 105.60 180.29 110.46 172.59 116.83 C 168.42 114.17 164.28 111.44 160.37 108.41 C 166.65 104.69 173.71 102.64 180.04 99.04 Z"/>
<path d=" M 43.47 111.73 C 43.71 114.79 44.26 117.82 44.37 120.89 C 42.65 122.03 40.74 122.82 38.88 123.70 C 39.91 119.52 42.28 115.85 43.47 111.73 Z"/>
<path d=" M 209.89 120.96 C 210.07 117.98 210.63 115.05 210.90 112.08 C 212.25 116.00 214.32 119.63 215.54 123.60 C 213.63 122.79 211.60 122.16 209.89 120.96 Z"/>
<path d=" M 43.05 123.47 C 43.52 122.84 44.45 121.60 44.92 120.97 C 47.99 123.88 50.81 127.09 54.36 129.43 C 54.17 132.26 52.53 134.57 50.82 136.71 C 46.87 133.12 42.96 129.45 39.72 125.19 C 40.83 124.62 41.94 124.04 43.05 123.47 Z"/>
<path d=" M 199.67 129.66 C 203.40 127.44 206.12 124.00 209.17 121.00 C 210.08 121.99 210.98 122.99 211.88 124.01 C 212.56 124.25 213.91 124.73 214.59 124.97 C 211.61 129.48 207.55 133.10 203.52 136.65 C 201.88 134.54 200.38 132.27 199.67 129.66 Z"/>
<path d=" M 54.51 131.72 C 59.68 129.27 65.36 133.11 70.81 132.27 C 70.41 135.36 69.88 138.43 69.15 141.46 C 68.99 140.98 68.68 140.01 68.53 139.52 C 63.74 138.73 59.04 137.52 54.26 136.65 C 54.32 135.42 54.45 132.95 54.51 131.72 Z"/>
<path d=" M 183.58 132.34 C 188.93 133.11 194.58 129.17 199.61 131.80 C 199.74 133.41 199.93 135.01 200.17 136.61 C 195.23 137.32 190.48 139.04 185.50 139.48 C 185.37 139.99 185.12 141.00 184.99 141.51 C 184.37 138.48 183.85 135.42 183.58 132.34 Z"/>
<path d=" M 228.50 143.42 C 233.60 141.60 238.56 139.39 243.51 137.19 C 241.14 142.19 235.57 143.98 231.03 146.42 C 230.18 145.42 229.33 144.43 228.50 143.42 Z"/>
<path d=" M 10.73 137.23 C 15.80 139.36 20.99 141.22 25.94 143.63 C 25.02 144.57 24.10 145.51 23.17 146.45 C 18.75 143.80 13.17 142.20 10.73 137.23 Z"/>
<path d=" M 28.06 143.64 C 33.66 143.95 39.19 144.95 44.77 145.48 C 44.46 146.92 44.09 148.35 43.67 149.77 C 37.77 150.05 31.93 148.89 26.13 147.99 C 26.78 146.54 27.42 145.09 28.06 143.64 Z"/>
<path d=" M 209.69 145.42 C 215.31 145.10 220.83 143.75 226.48 143.74 C 227.02 145.16 227.59 146.58 228.16 148.00 C 222.32 149.10 216.41 149.68 210.49 150.03 C 210.24 148.49 209.96 146.95 209.69 145.42 Z"/>
<path d=" M 43.52 151.02 C 44.50 148.95 45.37 146.78 46.80 144.98 C 51.64 145.43 56.42 146.38 61.23 146.98 C 61.12 148.63 60.99 150.28 60.86 151.94 C 55.06 152.29 49.27 151.70 43.52 151.02 Z"/>
<path d=" M 62.98 145.41 C 65.42 145.31 67.86 145.14 70.29 144.78 C 70.43 146.69 70.58 148.60 70.73 150.51 C 68.14 150.91 65.53 151.21 62.92 151.48 C 62.94 149.46 62.96 147.43 62.98 145.41 Z"/>
<path d=" M 183.91 144.61 C 186.37 145.17 188.89 145.37 191.41 145.42 C 191.34 147.45 191.31 149.49 191.33 151.53 C 188.78 151.23 186.22 150.95 183.67 150.61 C 183.75 148.61 183.84 146.61 183.91 144.61 Z"/>
<path d=" M 194.01 147.01 C 198.61 146.02 203.33 145.67 207.97 144.84 C 208.86 146.89 209.71 148.96 210.51 151.05 C 204.90 151.75 199.26 152.16 193.60 152.10 C 193.73 150.46 192.04 147.91 194.01 147.01 Z"/>
<path d=" M 55.54 161.92 C 62.39 161.12 68.86 158.62 75.28 156.22 C 75.47 157.03 75.86 158.64 76.05 159.44 C 76.13 158.87 76.29 157.72 76.37 157.15 C 79.18 156.92 81.51 158.34 83.61 160.01 C 78.97 162.44 73.62 162.78 68.87 164.89 C 65.92 166.10 62.95 167.27 60.06 168.61 C 59.32 168.50 57.85 168.26 57.12 168.15 C 57.27 167.40 57.58 165.92 57.73 165.18 C 57.00 164.08 56.27 163.00 55.54 161.92 Z"/>
<path d=" M 178.67 156.22 C 185.22 158.32 191.61 161.22 198.54 161.87 C 197.34 163.91 196.60 166.16 196.35 168.52 C 192.15 168.20 188.48 165.90 184.58 164.51 C 180.12 162.49 174.94 162.62 170.73 159.96 C 172.70 158.36 174.97 157.26 177.53 157.07 C 177.66 157.66 177.90 158.84 178.02 159.43 C 178.18 158.63 178.51 157.02 178.67 156.22 Z"/>
<path d=" M 82.44 165.15 C 87.77 164.72 93.09 160.62 98.28 163.77 C 98.40 164.16 98.65 164.93 98.77 165.31 C 94.54 166.32 90.36 167.62 86.60 169.85 C 85.25 168.25 83.86 166.69 82.44 165.15 Z"/>
<path d=" M 157.11 162.92 C 162.22 161.35 166.88 164.85 171.93 165.15 C 170.53 166.68 169.15 168.23 167.83 169.84 C 163.91 167.72 159.68 166.28 155.38 165.14 C 155.81 164.58 156.68 163.47 157.11 162.92 Z"/>
<path d=" M 43.42 173.58 C 46.54 170.76 49.13 167.44 51.70 164.13 C 53.58 165.32 55.64 166.35 57.07 168.10 C 56.01 170.54 53.86 172.23 52.02 174.06 C 50.47 174.43 48.94 174.87 47.41 175.33 C 47.07 180.61 46.70 185.94 45.30 191.08 C 43.63 186.32 43.70 181.23 43.19 176.27 C 44.20 176.25 46.23 176.20 47.24 176.18 C 45.97 175.30 44.70 174.43 43.42 173.58 Z"/>
<path d=" M 196.68 167.94 C 198.65 166.62 200.66 165.36 202.72 164.19 C 205.25 167.58 207.98 170.82 211.00 173.79 C 209.60 174.52 208.22 175.26 206.84 176.03 C 208.27 176.18 209.71 176.33 211.15 176.45 C 210.50 181.28 210.68 186.28 208.99 190.92 C 207.28 185.84 207.54 180.41 206.73 175.17 C 205.25 174.75 203.76 174.36 202.26 174.01 C 200.28 172.10 198.41 170.07 196.68 167.94 Z"/>
<path d=" M 69.00 181.12 C 72.49 175.97 76.58 171.08 81.78 167.59 C 83.18 168.42 84.59 169.26 85.99 170.09 C 81.98 173.87 77.86 177.55 74.21 181.69 C 72.48 181.49 70.74 181.30 69.00 181.12 Z"/>
<path d=" M 168.46 170.31 C 169.78 169.39 171.11 168.48 172.44 167.58 C 177.71 170.79 181.37 175.89 185.19 180.60 C 183.49 180.96 181.80 181.33 180.10 181.69 C 176.47 177.65 172.50 173.93 168.46 170.31 Z"/>
<path d=" M 67.87 181.75 C 70.60 181.09 72.72 183.07 74.75 184.53 C 72.84 189.45 72.25 194.69 71.46 199.87 C 70.26 193.84 68.36 187.89 67.87 181.75 Z"/>
<path d=" M 179.68 184.68 C 181.56 182.92 183.60 181.18 186.34 181.19 C 186.52 187.20 186.75 193.50 184.60 199.22 C 183.27 194.27 181.93 189.30 179.68 184.68 Z"/></g>


</g></svg>