<svg width="64" height="64" viewBox="0 0 64 64" shape-rendering="geometricPrecision" version="1.1" xmlns="http://www.w3.org/2000/svg"><desc>Created by https://guilds.gw2w2w.com/</desc><rect x="0" y="0" width="64" height="64" fill="none" stroke="none"/><g transform="matrix(0.25,0,0,0.25,0,0)">
<g fill="rgb(135,0,10)" stroke="rgb(135,0,10)" stroke-width=".05%" stroke-opacity="50%" opacity="0.7"><path d=" M 113.93 14.29 C 118.71 17.98 120.92 24.04 120.88 29.95 C 121.55 40.64 115.79 50.43 116.31 61.13 C 112.78 59.58 108.75 57.63 107.61 53.59 C 105.23 45.38 109.08 37.20 111.92 29.65 C 113.90 24.77 113.71 19.45 113.93 14.29 Z"/>
<path d=" M 141.14 16.64 C 142.63 19.89 143.95 23.46 143.10 27.08 C 141.68 33.17 138.30 38.65 134.15 43.26 C 133.07 41.27 132.00 39.29 130.92 37.31 C 136.01 31.39 138.73 23.96 141.14 16.64 Z"/>
<path d=" M 98.88 18.50 C 107.13 25.22 105.51 37.12 102.20 45.96 C 100.48 44.60 98.76 43.23 97.04 41.88 C 99.55 34.32 99.46 26.34 98.88 18.50 Z"/>
<path d=" M 147.51 33.62 C 152.13 29.43 154.42 23.51 156.83 17.92 C 158.99 22.58 159.99 27.91 158.29 32.88 C 155.59 44.19 145.55 51.56 141.79 62.38 C 138.39 59.67 135.62 55.57 136.50 51.02 C 137.94 44.12 142.46 38.33 147.51 33.62 Z"/>
<path d=" M 72.86 27.65 C 78.15 29.36 82.45 33.29 84.79 38.31 C 90.18 48.14 88.34 60.02 93.29 70.01 C 88.96 70.22 83.97 69.54 81.49 65.50 C 74.84 56.13 79.15 44.05 75.24 33.84 C 74.52 31.75 73.66 29.71 72.86 27.65 Z"/>
<path d=" M 126.14 36.96 C 126.02 33.67 127.31 30.59 128.52 27.61 C 128.48 30.94 127.76 34.52 129.35 37.64 C 131.43 41.93 134.26 46.08 134.50 51.00 C 134.89 54.29 133.21 57.27 131.90 60.15 C 131.66 51.98 125.81 45.19 126.14 36.96 Z"/>
<path d=" M 164.82 45.89 C 171.98 42.50 177.45 36.70 182.98 31.22 C 183.45 42.01 173.75 49.06 164.80 52.71 C 164.80 50.43 164.81 48.16 164.82 45.89 Z"/>
<path d=" M 91.26 33.46 C 92.30 36.84 93.23 40.52 96.05 42.91 C 99.60 46.01 103.58 48.96 105.57 53.39 C 107.03 56.12 106.44 59.29 106.22 62.22 C 103.11 55.43 96.19 51.48 93.09 44.69 C 91.15 41.28 91.23 37.26 91.26 33.46 Z"/>
<path d=" M 160.46 43.73 C 161.76 40.65 164.20 38.27 166.53 35.94 C 165.38 38.54 163.63 41.02 163.47 43.95 C 163.08 49.58 164.13 55.48 161.94 60.86 C 160.88 63.56 158.32 65.13 156.06 66.74 C 159.31 59.44 157.18 51.01 160.46 43.73 Z"/>
<path d=" M 60.70 37.59 C 71.03 40.55 73.88 52.30 74.38 61.71 C 72.18 60.98 69.97 60.25 67.77 59.51 C 67.65 51.60 63.86 44.60 60.70 37.59 Z"/>
<path d=" M 183.40 48.48 C 188.48 46.41 192.52 42.65 196.39 38.90 C 196.73 44.41 194.66 49.80 190.90 53.81 C 183.71 62.60 171.75 64.98 164.11 73.28 C 162.77 69.56 161.33 65.27 163.64 61.59 C 167.57 54.13 176.22 51.66 183.40 48.48 Z"/>
<path d=" M 121.11 53.01 C 120.57 49.12 123.02 45.79 124.82 42.60 C 125.93 45.40 127.03 48.21 128.23 50.97 C 127.26 54.01 126.66 57.16 126.29 60.33 C 124.20 58.23 121.19 56.30 121.11 53.01 Z"/>
<path d=" M 148.90 56.97 C 149.79 52.90 153.43 50.36 156.48 47.90 C 156.52 50.95 156.55 53.99 156.62 57.04 C 154.53 59.42 152.68 62.00 151.03 64.71 C 150.07 62.24 148.24 59.74 148.90 56.97 Z"/>
<path d=" M 93.73 60.26 C 91.58 56.84 92.61 52.62 93.34 48.94 C 95.34 51.01 97.48 52.99 99.18 55.33 C 100.00 58.42 100.30 61.64 101.07 64.76 C 98.42 63.71 95.28 62.90 93.73 60.26 Z"/>
<path d=" M 59.31 54.43 C 61.69 56.75 63.71 59.78 66.98 60.92 C 71.70 62.61 76.89 63.81 80.55 67.47 C 82.73 69.45 83.43 72.42 84.38 75.09 C 78.61 69.82 70.22 68.89 64.72 63.30 C 62.18 60.85 60.70 57.60 59.31 54.43 Z"/>
<path d=" M 39.40 56.65 C 44.65 56.14 49.98 57.55 54.15 60.83 C 63.52 67.64 66.98 79.48 75.63 86.99 C 72.20 88.25 68.36 90.15 64.77 88.32 C 57.39 85.12 53.57 77.33 50.47 70.37 C 48.12 64.84 43.80 60.58 39.40 56.65 Z"/>
<path d=" M 185.98 65.99 C 188.81 62.25 193.25 60.33 197.56 58.86 C 194.75 61.18 191.36 63.23 189.99 66.80 C 188.20 71.17 186.95 76.04 183.30 79.32 C 181.20 81.43 178.15 81.95 175.40 82.67 C 180.21 77.96 181.91 71.22 185.98 65.99 Z"/>
<path d=" M 213.60 61.32 C 213.62 62.08 213.64 62.84 213.67 63.60 C 208.17 71.22 198.39 74.30 189.30 73.35 C 190.19 71.18 191.09 69.02 191.98 66.85 C 199.63 67.35 206.75 64.31 213.60 61.32 Z"/>
<path d=" M 173.11 70.05 C 175.70 67.06 179.91 66.70 183.53 65.91 C 182.29 68.58 181.03 71.23 179.80 73.91 C 176.86 75.28 174.05 76.90 171.33 78.66 C 171.46 75.76 170.98 72.39 173.11 70.05 Z"/>
<path d=" M 67.20 67.64 C 69.88 68.85 72.57 70.05 75.31 71.13 C 76.89 73.98 78.60 76.75 80.50 79.40 C 77.64 79.55 74.36 79.99 72.00 77.95 C 68.68 75.58 67.97 71.36 67.20 67.64 Z"/>
<path d=" M 32.55 70.65 C 43.22 69.15 50.75 78.57 54.87 87.14 C 52.63 87.32 50.39 87.51 48.16 87.70 C 44.57 80.68 38.38 75.71 32.55 70.65 Z"/>
<path d=" M 205.06 77.50 C 211.40 78.29 217.48 75.90 223.35 73.87 C 221.30 78.98 217.38 83.25 212.19 85.25 C 201.92 90.05 190.10 87.69 179.65 91.84 C 179.99 87.94 180.64 83.55 184.07 81.10 C 190.05 76.68 198.00 76.83 205.06 77.50 Z"/>
<path d=" M 38.34 86.62 C 41.75 87.94 45.18 89.98 48.98 89.34 C 53.71 88.71 58.69 88.00 63.29 89.76 C 66.04 90.69 67.77 93.15 69.64 95.22 C 62.13 92.40 53.86 95.35 46.41 92.30 C 43.28 91.12 40.77 88.83 38.34 86.62 Z"/>
<path d=" M 203.90 93.76 C 207.74 91.64 212.21 91.62 216.47 91.91 C 212.70 92.87 208.64 93.85 206.03 96.98 C 202.32 101.23 197.87 105.00 192.24 106.34 C 190.43 105.88 188.63 105.44 186.81 105.03 C 193.61 103.04 197.55 96.57 203.90 93.76 Z"/>
<path d=" M 190.41 92.58 C 193.83 91.04 197.51 92.38 200.96 93.07 C 198.69 95.13 196.36 97.13 194.07 99.17 C 190.90 99.19 187.75 99.44 184.61 99.88 C 185.97 97.10 187.21 93.70 190.41 92.58 Z"/>
<path d=" M 20.98 97.43 C 25.70 94.39 31.54 93.83 36.89 95.36 C 47.79 97.79 55.49 106.90 66.20 109.82 C 63.68 112.92 60.34 116.07 56.01 115.72 C 47.84 115.15 41.35 109.51 35.41 104.41 C 31.31 100.83 26.02 99.22 20.98 97.43 Z"/>
<path d=" M 50.89 95.53 C 53.92 95.46 56.96 95.40 59.99 95.31 C 62.46 97.24 65.10 98.92 67.76 100.58 C 65.28 101.76 62.72 103.34 59.84 102.83 C 55.72 102.29 53.28 98.49 50.89 95.53 Z"/>
<path d=" M 203.21 102.14 C 204.78 100.53 206.33 98.90 207.88 97.27 C 215.08 100.55 223.11 100.33 230.85 100.63 C 223.60 108.42 211.83 106.05 203.21 102.14 Z"/>
<path d=" M 187.37 115.40 C 189.24 111.45 192.17 107.44 196.85 106.82 C 204.26 106.03 211.31 109.33 217.83 112.44 C 223.01 114.93 228.82 115.46 234.47 115.87 C 231.02 118.94 226.92 121.62 222.14 121.71 C 210.00 123.31 199.30 115.78 187.37 115.40 Z"/>
<path d=" M 20.34 113.11 C 23.36 111.64 26.56 110.16 30.01 110.55 C 36.64 110.91 42.37 114.84 47.55 118.67 C 45.66 119.75 43.86 121.05 41.80 121.80 C 39.85 120.99 38.13 119.73 36.29 118.72 C 31.36 115.88 25.71 114.79 20.34 113.11 Z"/>
<path d=" M 42.46 123.46 C 46.74 121.05 50.99 118.08 56.02 117.61 C 59.02 117.24 61.73 118.82 64.38 119.95 C 56.87 120.17 51.10 125.92 43.75 126.73 C 39.97 127.27 36.19 126.48 32.52 125.63 C 35.84 125.02 39.46 125.24 42.46 123.46 Z"/>
<path d=" M 187.77 123.76 C 189.80 121.66 191.83 118.98 195.00 118.74 C 198.95 118.40 202.30 120.92 205.40 123.01 C 202.57 124.01 199.75 125.02 196.95 126.11 C 193.93 125.15 190.86 124.42 187.77 123.76 Z"/>
<path d=" M 55.39 124.38 C 58.61 124.38 61.77 125.24 64.96 125.60 C 63.02 127.79 61.18 130.56 58.12 131.22 C 54.22 131.84 50.56 129.91 47.51 127.70 C 50.12 126.57 52.65 125.19 55.39 124.38 Z"/>
<path d=" M 187.82 129.68 C 195.64 129.44 202.30 124.38 210.13 124.33 C 213.55 124.00 216.72 125.65 219.88 126.69 C 216.74 126.81 213.43 126.31 210.46 127.62 C 205.76 129.56 201.26 132.55 195.99 132.50 C 192.99 132.64 190.40 130.93 187.82 129.68 Z"/>
<path d=" M 18.89 137.47 C 22.77 133.27 28.07 130.25 33.89 130.19 C 45.17 129.09 55.73 134.82 67.03 133.81 C 65.52 137.76 62.68 141.41 58.46 142.61 C 50.70 145.30 42.63 142.00 35.36 139.31 C 30.09 137.42 24.42 137.43 18.89 137.47 Z"/>
<path d=" M 204.44 132.23 C 206.50 131.26 208.56 130.27 210.63 129.31 C 216.34 134.92 224.05 137.26 231.30 140.06 C 226.56 142.56 220.77 142.36 215.93 140.24 C 211.54 138.48 207.95 135.31 204.44 132.23 Z"/>
<path d=" M 184.33 139.32 C 187.76 136.26 192.18 133.33 197.02 134.58 C 204.55 136.40 210.10 142.22 215.40 147.50 C 219.21 151.34 224.29 153.42 229.07 155.74 C 223.70 158.14 217.49 158.27 212.06 155.97 C 201.72 152.28 194.90 142.58 184.33 139.32 Z"/></g>
</g><g transform="matrix(0.25,0,0,0.25,0,0)">
<g fill="rgb(189,186,185)" stroke="rgb(189,186,185)" stroke-width=".05%" stroke-opacity="50%"><path d=" M 65.92 82.22 C 71.00 81.06 76.05 79.80 81.15 78.74 C 88.73 81.74 96.91 82.81 104.49 85.74 C 109.54 91.83 111.65 99.83 117.34 105.46 C 119.08 105.73 120.86 105.86 122.54 106.43 C 123.65 107.85 124.52 109.44 125.45 110.98 C 125.05 111.97 124.67 112.98 124.29 113.98 C 122.93 114.80 121.60 115.65 120.36 116.62 C 120.84 117.22 121.82 118.42 122.30 119.02 C 122.37 119.45 122.51 120.29 122.57 120.71 C 125.56 124.27 128.08 128.42 132.52 130.37 C 134.81 130.18 137.67 130.45 139.24 128.38 C 142.17 125.00 144.96 121.45 147.23 117.59 C 150.48 110.26 155.29 102.04 163.92 100.54 C 168.02 101.91 171.72 104.22 175.69 105.91 C 176.48 111.08 175.20 116.27 175.74 121.49 C 172.96 121.35 170.19 121.60 167.42 121.67 C 167.74 120.29 168.09 118.92 168.44 117.55 C 169.11 117.94 170.46 118.71 171.14 119.10 C 174.34 116.96 172.33 112.04 170.28 109.71 C 168.00 106.28 162.66 107.51 161.14 111.02 C 156.06 120.48 151.79 130.53 144.74 138.75 C 142.05 141.20 138.65 143.23 134.86 142.84 C 138.32 149.58 140.87 157.12 146.78 162.21 C 146.01 164.73 145.32 167.28 144.67 169.84 C 140.51 167.46 136.21 165.32 131.77 163.52 C 129.43 159.19 126.73 155.07 124.18 150.87 C 123.15 149.04 121.24 148.09 119.53 147.02 C 119.01 152.69 118.99 158.44 119.34 164.11 C 121.02 169.11 123.25 173.95 125.36 178.79 C 127.14 180.03 129.25 180.69 131.15 181.74 C 134.66 183.45 137.74 186.14 141.66 186.91 C 144.47 189.74 147.69 192.28 149.81 195.71 C 149.26 200.17 148.37 205.02 144.64 207.98 C 144.95 205.03 145.54 202.12 145.91 199.18 C 143.01 196.94 139.47 196.04 136.17 194.61 C 129.82 191.25 122.91 188.45 118.05 182.93 C 113.76 177.94 109.06 173.24 105.32 167.81 C 103.45 161.81 103.63 155.33 101.75 149.33 C 101.95 148.92 102.35 148.10 102.54 147.69 C 102.20 148.08 101.50 148.85 101.16 149.23 C 98.87 153.66 94.83 157.03 93.30 161.87 C 92.56 164.48 90.45 167.15 91.67 169.94 C 92.77 172.54 93.88 175.18 95.41 177.56 C 99.77 181.29 106.06 181.66 110.38 185.45 C 111.62 188.51 113.06 191.71 113.27 195.03 C 111.60 197.50 109.73 200.28 107.08 201.67 C 103.50 200.95 100.12 199.50 96.79 198.05 C 97.93 195.60 99.50 193.41 101.33 191.44 C 102.88 191.83 104.41 192.28 105.94 192.76 C 104.96 193.90 103.94 195.03 102.93 196.15 C 102.73 195.17 102.33 193.22 102.12 192.24 C 101.33 193.80 100.69 195.41 100.19 197.08 C 102.38 197.75 104.58 199.26 106.94 198.77 C 110.83 197.01 110.82 190.95 107.43 188.68 C 100.49 184.36 91.40 185.29 84.90 180.09 C 82.01 175.71 80.19 170.70 77.88 166.00 C 79.69 160.32 82.40 155.01 85.02 149.67 L 85.26 149.64 C 85.52 149.06 86.03 147.92 86.28 147.35 C 86.58 145.18 87.06 143.05 87.59 140.93 C 86.83 142.69 86.03 144.42 85.22 146.16 C 83.03 149.03 80.69 152.13 77.27 153.57 C 73.58 155.12 69.70 153.25 65.89 153.54 C 58.41 152.73 51.25 150.14 43.88 148.69 C 39.34 148.54 36.22 152.11 32.99 154.75 C 35.06 158.45 37.45 162.68 41.90 163.75 C 43.61 164.38 45.04 162.86 46.53 162.29 C 46.59 161.43 46.72 159.72 46.78 158.86 C 44.87 157.06 40.97 155.95 41.29 152.75 C 44.07 155.88 48.26 157.33 50.73 160.81 C 48.56 162.87 46.27 164.79 44.18 166.92 C 40.95 165.80 37.44 165.29 34.44 163.63 C 31.92 160.10 29.37 156.54 27.43 152.66 C 30.73 148.96 34.58 145.76 38.42 142.64 C 47.57 139.10 57.14 143.83 66.18 145.54 C 68.02 143.80 69.91 142.09 71.55 140.14 C 70.70 141.70 69.11 144.36 72.12 144.38 C 74.76 141.76 78.06 139.52 79.38 135.88 C 80.45 132.58 82.37 129.68 83.90 126.60 C 83.14 123.29 82.29 119.68 80.06 117.04 C 69.39 111.52 58.29 106.87 47.56 101.47 C 50.88 95.84 53.83 89.94 57.88 84.80 C 60.09 82.89 63.22 82.90 65.92 82.22 M 97.33 108.97 C 98.45 111.93 98.97 115.83 102.52 116.76 C 103.79 116.11 105.05 115.46 106.32 114.81 C 103.45 112.67 100.46 110.71 97.33 108.97 Z"/>
<path d=" M 135.26 96.17 C 138.25 94.44 141.27 92.77 144.19 90.91 C 145.75 91.44 147.32 91.92 148.83 92.61 C 149.82 94.70 150.11 97.04 150.76 99.25 C 149.07 100.84 147.35 102.41 145.66 103.99 C 144.71 102.36 143.76 100.74 142.79 99.13 C 143.08 98.87 143.64 98.37 143.93 98.12 C 145.02 98.99 146.26 99.61 147.63 99.96 C 147.76 97.82 147.58 95.70 147.11 93.60 C 145.17 93.98 143.31 94.66 141.49 95.43 C 140.48 96.57 139.50 97.72 138.57 98.91 C 138.97 101.33 139.44 103.73 139.79 106.16 C 141.05 109.95 142.36 113.81 142.36 117.85 C 141.24 120.97 139.92 124.01 138.28 126.91 C 137.57 127.94 136.87 128.98 136.18 130.02 C 131.98 128.93 127.96 126.25 127.01 121.77 C 129.03 121.02 131.79 121.34 133.10 119.32 C 135.46 116.81 134.64 113.25 134.98 110.15 C 135.48 105.50 134.98 100.82 135.26 96.17 Z"/>
<path d=" M 65.18 125.28 C 66.71 123.45 69.04 122.56 70.99 121.28 C 74.39 123.53 77.65 126.00 81.25 127.93 C 80.91 129.03 80.58 130.15 80.27 131.26 C 78.89 133.92 77.37 136.50 75.78 139.04 C 74.09 135.42 71.04 132.92 67.61 131.03 C 65.73 133.57 65.11 136.70 64.32 139.69 C 60.76 139.75 57.19 140.09 53.63 139.77 C 53.32 137.41 52.69 135.05 52.84 132.66 C 53.86 130.54 56.25 129.99 58.40 130.10 C 57.96 131.75 57.48 133.38 56.98 135.02 C 56.80 133.68 56.63 132.35 56.46 131.03 C 55.72 131.49 54.25 132.43 53.51 132.89 C 53.94 134.67 54.32 136.46 54.94 138.18 C 57.18 137.84 59.75 138.02 61.73 136.81 C 63.78 133.30 63.47 128.92 65.18 125.28 Z"/>
<path d=" M 174.33 132.51 C 175.88 131.30 177.58 130.31 179.33 129.42 C 181.53 131.24 183.39 133.47 184.81 135.94 C 183.67 138.64 182.05 141.13 180.46 143.59 C 178.49 145.19 175.65 145.12 173.22 145.39 C 169.97 142.96 165.87 142.47 162.17 141.05 C 162.32 139.47 162.64 137.91 162.98 136.37 C 166.67 137.92 169.88 140.66 173.91 141.34 C 177.13 141.10 181.67 139.84 181.97 135.96 C 181.93 133.83 179.60 133.26 177.99 132.68 C 175.95 132.82 175.46 134.88 174.62 136.35 C 174.55 135.39 174.41 133.47 174.33 132.51 Z"/>
<path d=" M 149.84 132.53 C 151.86 133.17 153.92 133.60 156.03 133.84 C 155.26 136.28 154.64 138.77 153.58 141.10 C 151.63 142.06 149.28 141.38 147.19 141.50 C 146.56 138.18 148.31 135.30 149.84 132.53 Z"/>
<path d=" M 149.47 147.37 C 151.76 143.60 156.20 142.18 160.24 141.18 C 163.01 142.04 165.72 143.09 168.55 143.73 C 170.15 144.71 171.87 145.58 173.23 146.91 C 172.84 153.28 172.17 159.63 171.65 165.99 C 165.93 167.76 160.73 171.79 154.49 171.29 C 155.23 169.50 155.42 167.40 156.65 165.86 C 159.95 165.10 163.59 164.71 165.96 161.96 C 169.08 159.78 168.45 155.64 168.50 152.33 L 167.76 152.39 C 167.78 151.51 167.81 149.76 167.83 148.88 C 165.87 148.07 163.89 147.32 161.94 146.52 C 158.78 146.78 155.46 146.99 152.70 148.72 C 151.20 150.71 150.59 153.20 149.88 155.53 C 149.51 152.92 147.64 149.85 149.47 147.37 Z"/>
<path d=" M 157.87 155.73 C 158.67 153.49 159.58 151.28 160.66 149.16 C 161.38 151.15 161.15 153.21 160.60 155.19 C 159.92 155.32 158.55 155.59 157.87 155.73 Z"/>
<path d=" M 135.42 198.90 C 136.13 198.69 137.55 198.26 138.26 198.04 C 137.35 200.36 136.54 202.71 135.93 205.12 C 135.65 205.33 135.07 205.75 134.78 205.96 C 134.86 203.59 135.01 201.23 135.42 198.90 Z"/></g>
<g fill="rgb(113,73,16)" stroke="rgb(113,73,16)" stroke-width=".05%" stroke-opacity="50%"><path d=" M 184.49 28.37 C 185.21 24.80 188.05 22.29 190.07 19.42 C 189.54 24.27 190.64 29.30 189.04 34.00 C 186.81 41.04 185.38 48.29 183.73 55.48 C 182.93 58.92 183.13 62.47 183.36 65.96 C 186.94 68.56 191.28 69.57 195.66 69.57 C 194.34 60.95 197.30 52.60 197.86 44.07 C 198.29 39.76 199.12 35.50 200.21 31.31 C 202.42 36.49 204.10 41.86 206.05 47.13 C 205.03 46.72 204.01 46.31 202.99 45.90 C 200.03 56.28 200.36 67.65 204.25 77.75 C 197.58 76.40 190.86 75.24 184.16 74.02 C 181.12 76.19 176.65 77.65 175.88 81.79 C 174.63 88.51 172.89 95.13 170.93 101.67 C 169.49 100.63 167.38 100.01 166.69 98.23 C 168.08 91.75 170.40 85.49 171.78 79.01 C 172.78 74.17 168.61 70.38 164.87 68.15 C 159.70 65.84 154.55 63.35 149.08 61.83 C 152.41 58.96 155.26 55.59 158.34 52.47 C 161.88 47.76 164.55 42.28 165.68 36.47 C 164.87 36.22 163.24 35.71 162.42 35.46 C 167.37 31.79 171.85 27.58 175.90 22.95 C 174.61 31.03 170.92 38.42 167.83 45.91 C 165.61 50.36 164.42 55.36 161.13 59.22 C 161.26 59.69 161.51 60.65 161.63 61.12 C 165.45 62.40 169.67 64.50 173.67 62.63 C 175.46 60.89 175.64 58.16 176.39 55.90 C 178.44 46.53 182.53 37.76 184.49 28.37 Z"/>
<path d=" M 160.07 123.01 C 161.54 118.04 162.25 112.78 164.77 108.18 C 166.02 109.03 167.34 109.84 168.41 110.94 C 166.59 120.94 162.85 130.50 161.11 140.53 C 159.11 140.90 157.08 141.21 155.06 141.46 C 158.28 135.76 158.05 129.09 160.07 123.01 Z"/>
<path d=" M 154.77 149.10 C 155.78 148.90 157.80 148.49 158.80 148.29 C 154.05 161.83 151.78 176.10 147.77 189.87 C 146.38 188.34 144.99 186.83 143.59 185.31 C 147.33 173.27 148.76 160.33 154.77 149.10 Z"/>
<path d=" M 139.41 199.97 C 140.67 200.37 141.93 200.77 143.19 201.16 C 141.29 206.75 141.79 212.67 141.64 218.47 C 136.62 222.01 134.31 227.83 132.05 233.29 C 131.91 227.52 133.59 221.62 130.92 216.15 C 132.88 214.06 135.25 212.22 136.46 209.56 C 137.82 206.49 138.56 203.20 139.41 199.97 Z"/></g>


</g></svg>