<svg width="64" height="64" viewBox="0 0 64 64" shape-rendering="geometricPrecision" version="1.1" xmlns="http://www.w3.org/2000/svg"><desc>Created by https://guilds.gw2w2w.com/</desc><rect x="0" y="0" width="64" height="64" fill="none" stroke="none"/><g transform="matrix(0.25,0,0,0.25,0,0)">
<g fill="rgb(26,24,27)" stroke="rgb(26,24,27)" stroke-width=".05%" stroke-opacity="50%" opacity="0.7"><path d=" M 108.06 30.10 C 110.36 23.80 116.27 20.04 120.75 15.39 C 121.85 22.03 121.58 28.79 120.33 35.38 C 125.69 35.27 131.05 35.28 136.40 35.38 C 135.13 28.81 135.02 22.06 135.97 15.43 C 140.64 19.91 146.21 23.87 148.85 29.99 C 168.14 34.14 186.53 43.48 200.14 57.93 C 212.32 69.78 220.94 85.07 225.47 101.41 C 227.28 108.96 234.76 112.84 239.35 118.56 C 232.73 119.88 225.96 119.41 219.36 118.24 C 219.73 124.45 219.73 130.68 219.23 136.88 C 226.02 136.33 232.84 136.06 239.62 136.82 C 235.13 142.65 227.34 146.44 226.12 154.30 C 218.26 186.61 192.89 213.87 161.41 224.38 C 157.17 225.93 152.53 226.33 148.52 228.43 C 144.06 231.83 140.63 236.38 136.46 240.12 C 135.01 233.64 135.39 226.98 136.66 220.51 C 131.20 220.58 125.75 220.52 120.30 220.38 C 121.54 226.97 121.96 233.73 120.58 240.33 C 117.82 237.80 115.10 235.21 112.54 232.47 C 110.37 230.26 108.22 227.67 105.02 227.02 C 97.96 225.10 90.79 223.25 84.28 219.79 C 75.78 215.33 67.24 210.49 60.47 203.56 C 55.47 198.50 50.15 193.66 46.23 187.68 C 40.13 178.57 34.67 168.81 32.05 158.08 C 30.95 154.66 30.79 150.64 28.09 147.98 C 24.57 144.39 20.85 141.00 17.46 137.27 C 24.12 136.00 30.92 136.41 37.57 137.54 C 37.19 131.12 37.15 124.69 37.62 118.27 C 30.98 119.42 24.18 119.89 17.54 118.51 C 21.44 114.06 26.18 110.38 29.88 105.76 C 32.57 100.08 33.37 93.67 36.10 87.98 C 39.33 81.11 43.31 74.62 47.51 68.31 C 51.85 62.45 57.32 57.57 62.46 52.44 C 67.21 47.61 73.24 44.43 78.97 40.95 C 87.92 35.64 97.86 32.11 108.06 30.10 M 148.07 33.19 C 148.24 35.59 148.41 38.00 148.60 40.40 C 150.99 41.52 153.39 42.62 155.80 43.71 C 158.63 41.89 161.42 40.02 164.15 38.05 C 158.91 36.05 153.52 34.49 148.07 33.19 M 93.11 37.99 C 96.52 40.40 100.57 44.44 105.07 42.05 C 109.05 41.04 108.38 36.34 108.85 33.17 C 103.51 34.45 98.23 36.00 93.11 37.99 M 90.84 38.85 C 90.01 42.33 90.89 45.90 91.37 49.36 C 93.75 47.94 96.12 46.50 98.49 45.06 C 96.49 42.64 94.57 40.10 92.04 38.22 L 90.84 38.85 M 158.85 45.25 C 161.32 46.86 163.80 48.44 166.29 50.01 C 166.73 46.62 167.22 43.24 167.70 39.86 C 167.00 39.46 165.60 38.65 164.90 38.25 C 162.87 40.57 160.86 42.91 158.85 45.25 M 68.39 52.14 C 69.70 55.80 71.07 59.43 72.52 63.04 C 74.97 61.10 77.41 59.14 79.84 57.18 C 76.83 55.08 73.83 52.96 70.88 50.77 C 75.62 52.05 80.43 54.24 85.45 53.51 C 88.31 49.52 88.70 44.42 89.75 39.77 C 81.80 42.28 74.97 47.17 68.39 52.14 M 167.86 39.84 C 168.08 44.71 169.34 49.45 171.33 53.89 C 176.51 53.75 181.56 52.41 186.25 50.21 C 180.48 46.16 174.55 42.21 167.86 39.84 M 116.82 48.85 C 113.39 52.73 112.06 57.99 109.24 62.29 C 97.73 81.18 81.47 97.19 62.32 108.27 C 58.71 110.43 54.63 111.77 51.26 114.30 C 50.21 115.97 50.16 118.05 49.88 119.95 C 49.33 127.11 49.58 134.32 50.69 141.42 C 78.64 154.29 102.22 176.92 115.20 204.92 C 116.18 207.76 119.49 207.77 121.98 208.00 C 128.36 208.12 134.82 207.83 141.09 206.55 C 147.49 191.32 157.48 177.77 169.42 166.43 C 180.00 155.84 192.66 147.51 206.29 141.38 C 207.91 132.29 207.24 122.93 205.72 113.88 C 184.18 104.65 165.91 88.65 152.32 69.70 C 147.53 63.16 144.04 55.83 140.38 48.64 C 132.63 47.60 124.42 46.57 116.82 48.85 M 178.07 57.32 C 179.76 60.05 182.70 61.57 185.29 63.31 C 186.43 60.06 187.53 56.79 188.55 53.50 C 188.51 58.28 188.63 63.06 189.17 67.81 C 194.17 68.52 199.24 68.64 204.28 68.21 C 199.88 61.27 193.50 55.93 187.00 51.03 C 183.95 53.02 180.75 54.84 178.07 57.32 M 55.44 101.23 C 65.97 96.60 75.15 89.37 83.42 81.46 C 91.47 73.11 98.66 63.74 103.45 53.12 C 82.79 63.28 65.31 80.37 55.44 101.23 M 153.13 53.02 C 157.65 62.31 163.41 71.02 170.57 78.49 C 179.35 87.83 189.54 96.11 201.39 101.21 C 191.25 80.38 173.93 63.19 153.13 53.02 M 52.78 68.33 C 57.67 68.65 62.60 68.49 67.43 67.60 C 67.59 62.73 67.62 57.84 67.26 52.97 C 61.85 57.47 56.29 62.11 52.78 68.33 M 50.96 68.11 C 51.56 72.67 54.71 76.15 57.28 79.75 C 59.21 77.29 61.15 74.83 63.09 72.38 C 59.24 70.45 55.17 68.99 50.96 68.11 M 194.01 72.74 C 196.00 75.29 197.98 77.85 199.99 80.38 C 202.06 77.46 204.12 74.53 206.17 71.59 C 204.55 76.38 203.28 81.32 203.16 86.41 C 207.20 88.06 211.40 89.31 215.69 90.19 C 212.70 90.59 209.73 91.05 206.75 91.52 C 208.27 94.24 209.77 96.97 211.30 99.69 C 213.37 97.84 215.35 95.88 217.02 93.65 C 217.47 94.12 217.91 94.59 218.35 95.08 C 215.20 97.73 213.22 101.44 213.04 105.58 C 216.42 106.25 219.83 106.69 223.26 106.94 C 222.33 102.33 220.73 97.86 220.25 93.16 C 219.84 93.08 219.03 92.93 218.62 92.85 C 216.04 83.93 210.88 76.03 205.14 68.82 C 201.38 69.98 197.67 71.28 194.01 72.74 M 39.72 89.88 C 44.52 89.04 49.21 87.66 53.64 85.65 C 52.57 81.04 51.76 76.31 49.79 71.97 C 45.07 77.00 41.71 83.29 39.72 89.88 M 37.62 90.48 C 39.34 94.19 42.44 96.85 45.70 99.17 C 47.23 96.40 48.71 93.61 50.13 90.78 C 45.96 90.50 41.79 90.34 37.62 90.48 M 36.78 95.29 C 35.66 99.14 34.51 102.99 33.34 106.82 C 36.68 106.64 40.01 106.32 43.32 105.84 C 42.72 101.93 40.90 98.41 38.63 95.21 C 38.17 95.23 37.24 95.27 36.78 95.29 M 33.05 148.73 C 34.07 154.03 35.52 159.24 37.70 164.19 C 40.47 159.94 45.77 154.96 42.48 149.57 C 39.33 149.34 36.19 149.03 33.05 148.73 M 212.77 153.05 C 212.37 157.03 215.80 160.13 217.56 163.42 C 215.22 161.52 212.88 159.61 210.55 157.71 C 209.13 160.50 207.82 163.35 206.64 166.25 C 210.53 166.52 214.43 166.71 218.33 166.79 C 220.80 160.83 222.98 154.71 223.97 148.31 C 220.19 149.12 213.90 148.07 212.77 153.05 M 153.26 202.40 C 174.25 192.44 191.80 175.06 201.68 154.01 C 180.77 164.21 163.63 181.62 153.26 202.40 M 55.44 154.28 C 65.10 175.35 82.73 192.41 103.40 202.67 C 93.67 181.63 76.10 164.58 55.44 154.28 M 46.40 157.92 C 43.73 160.20 41.07 162.47 38.39 164.74 C 38.47 165.64 38.55 166.53 38.64 167.43 C 42.52 167.01 46.41 166.61 50.31 166.30 C 49.11 163.46 47.80 160.67 46.40 157.92 M 203.06 171.63 C 203.65 176.76 204.89 181.79 206.88 186.55 C 211.76 180.84 215.30 174.13 218.04 167.17 C 212.93 168.23 207.92 169.72 203.06 171.63 M 39.68 168.40 C 41.85 175.20 45.76 181.25 50.10 186.86 C 51.76 182.15 52.97 177.31 53.77 172.39 C 49.24 170.54 44.51 169.18 39.68 168.40 M 199.54 178.17 C 197.53 180.18 195.92 182.56 194.23 184.84 C 198.33 186.57 202.57 188.00 206.96 188.83 C 204.97 185.04 203.33 180.52 199.54 178.17 M 50.35 188.52 C 54.82 188.82 58.87 186.49 62.98 185.11 C 61.06 182.66 59.12 180.22 57.15 177.81 C 54.70 181.25 52.02 184.60 50.35 188.52 M 189.45 189.39 C 188.72 194.41 188.52 199.50 189.04 204.56 C 195.71 200.91 200.85 194.98 205.03 188.74 C 199.83 188.50 194.61 188.64 189.45 189.39 M 52.68 190.47 C 57.19 195.84 62.17 200.82 67.57 205.30 C 68.65 200.31 68.44 195.19 67.52 190.20 C 62.60 189.34 57.57 189.40 52.68 190.47 M 72.39 194.76 C 70.64 198.75 68.66 202.86 69.06 207.35 C 72.80 205.24 76.28 202.72 79.60 200.00 C 77.22 198.23 74.81 196.49 72.39 194.76 M 177.27 200.08 C 180.89 202.81 184.62 205.43 188.83 207.17 C 188.28 202.67 186.63 198.44 184.75 194.35 C 182.26 196.26 179.77 198.17 177.27 200.08 M 71.84 207.77 C 76.63 212.84 83.32 215.68 89.68 218.26 C 88.87 213.40 87.47 208.68 85.62 204.13 C 80.89 204.66 76.10 205.51 71.84 207.77 M 168.19 218.27 C 174.60 214.94 181.36 211.96 186.66 206.93 C 181.79 205.18 176.78 203.88 171.66 203.15 C 169.59 207.93 167.95 212.99 168.19 218.27 M 91.50 206.95 C 90.64 211.38 89.97 215.98 91.41 220.37 C 94.37 217.55 96.97 214.40 99.44 211.15 C 96.79 209.76 94.14 208.35 91.50 206.95 M 157.82 210.82 C 160.00 213.51 162.23 216.18 164.50 218.81 C 165.57 218.66 166.65 218.52 167.72 218.38 C 167.22 214.49 166.71 210.60 166.28 206.71 C 163.43 208.02 160.61 209.38 157.82 210.82 M 92.73 219.64 C 97.87 222.01 103.36 223.44 108.84 224.75 C 108.53 220.83 109.57 214.69 104.44 213.55 C 99.85 213.37 96.36 217.34 92.73 219.64 M 148.55 215.52 C 148.45 218.60 148.30 221.68 148.18 224.76 C 153.70 223.28 159.33 222.01 164.44 219.38 C 161.33 217.27 158.37 214.73 154.77 213.50 C 152.46 212.77 150.49 214.59 148.55 215.52 Z"/></g>
</g><g transform="matrix(0.5,0,0,0.5,0,0)">
<g fill="rgb(135,0,10)" stroke="rgb(135,0,10)" stroke-width=".05%" stroke-opacity="50%"><path d="M57.12 56.91c4.01-4.11 8.01-8.24 12.23-12.13-.06 2.6-.15 5.21-.05 7.81.73-.02 2.19-.06 2.91-.07-1.18 4.51.1 10.05 5.22 11.45-5.29.63-9.75-2.06-14.49-3.82 2.33 1.25 4.72 2.37 7.06 3.59-2.5 2.77-4.44 5.99-6.87 8.83l3.72.88c-.44.51-1.34 1.53-1.78 2.05 2.03.05 4.05.16 6.08.18-1.45-.37-2.91-.73-4.37-1.08.5-.55 1.5-1.66 2-2.21-1.37-.13-2.73-.27-4.09-.46 2.08-2.57 3.79-5.47 6.15-7.81 2.35-.13 4.7.04 7.05.11 1.07 1.37 2.13 3.73 3.92 1.76l-2.1-.76c-.32-.33-.95-.98-1.26-1.31 1.73-2.94 4.01-5.53 6.05-8.27 1.9-2.13 4.96-1.1 7.44-1.13-.1.21-.29.62-.39.83.27.69.2 1.3-.22 1.83-1.81.69-3.4-.01-4.76-1.17.59 1.01 1.18 2.02 1.75 3.04-1.02.17-3.07.52-4.1.69 2.02-.04 4.03-.09 6.05-.16.43 1.34 1.42 2.63 1.13 4.1-1.93-.9-3.57-2.28-5.22-3.6.42 1.02 1.25 3.06 1.67 4.08-2.24-.82-4.41-1.81-6.52-2.92.84 3.11 2.43 5.88 4.73 8.14-.8-.45-2.41-1.34-3.21-1.79-1.14 1.5-2.31 2.98-3.45 4.48 1.44.76 2.87 1.52 4.26 2.36-1.63.14-3.27.2-4.9.25 2.15 1.38 4.51 2.39 7.06 2.74-1.81 2.39-3.52 4.87-4.91 7.53-2.61-.16-4.2-2.9-6.85-2.77-4.36-.54-7.8 3.82-7.59 7.92-1.92-1.28-4.1-1.91-6.33-2.39 1.13-1.08 2.26-2.16 3.38-3.25-1.44-1.22-2.88-2.43-4.44-3.5 1.14 1.24 2.34 2.41 3.5 3.62-1.41 1.09-2.85 2.14-4.39 3.04 2.05.58 4.05 1.31 5.98 2.22-1.76.7-3.52 1.39-5.24 2.16-1.92.77-3.83 1.53-5.71 2.37.93 1.5 3.27 1.78 2.99 4.25-1.33-.59-2.64-1.21-3.86-1.99l-.39-.57-.52-.5c-5.34 2.09-10.38 4.98-15.95 6.43.09-2.55-.1-6.34-3.51-6.4-3.37-.4-5.2 2.68-5.95 5.47-.44-4.73-.92-9.43-2.05-14.04-.64-1.9.7-3.51 1.54-5.06-.24-.39-.71-1.17-.95-1.56 2.54-3.66 5.27-7.19 8.68-10.08.06.89.2 2.68.27 3.58 2.07-1.26 4.12-2.55 6.12-3.92.06-.71.17-2.14.23-2.85 2.98-2.2 6.44-4.11 8.17-7.53.4.31 1.2.95 1.6 1.26 2.42-2.78 4.96-5.45 7.46-8.17 0 1.06.02 3.17.02 4.22m-8.69 6.37c-.56 1.68.37 2.84 1.6 3.87-.88 1.26-1.89 2.42-2.84 3.63.44.26 1.34.8 1.78 1.06.98-1.28 1.82-2.71 3.08-3.74 1.37.14 2.43 1.18 3.62 1.79.3-.45.89-1.35 1.18-1.79-.96-.55-1.93-1.09-2.9-1.62.71-1.16 1.4-2.32 2.06-3.51-1.68-.36-2.71 1.14-3.89 1.98-1.21-.6-2.45-1.13-3.69-1.67M32.81 80.2c3.82-3.27 7.86-6.33 11.37-9.94-4.01 3.02-8.1 6.1-11.37 9.94m19.86-3.38c-.9 2.01-2.73 2.59-4.81 2.55-.02.35-.07 1.03-.09 1.37-.06.51-.19 1.54-.25 2.06-4.23-1.45-9.01-1.29-12.87 1.1 4.56 3.1 5.99 8.64 9.16 12.85 4.62-3.09 4.7-9.01 3.9-13.92.77.35 2.3 1.05 3.07 1.39-.04-.69-.13-2.08-.17-2.78 1.18.57 2.37 1.14 3.57 1.68-.43-1.74-1.08-3.42-1.78-5.06 4.87 0 9.74.64 14.38 2.17l-1.44-2.84c-4.22-.26-8.44-.6-12.67-.57m-24.1 3.35c.88 1.15 1.11 2.5.9 3.93-1.21.15-2.38.44-3.51.88-.53 2.36-.24 4.83-.73 7.21l1.45-1.85c1.87 1.64 3.99 2.95 6.31 3.85-.57-1.07-1.15-2.14-1.74-3.2 1.87.13 2.83-.73 2.87-2.59.97.4 1.93.86 2.9 1.25-2.07-2.05-1.38-5.56-3.79-7.34-.61.42-1.84 1.26-2.45 1.67-2.46-1.26.67-4.16.91-6.13-1.05.77-2.08 1.55-3.12 2.32zM92.59 55.12l.57-.64c.52.31 1.57.93 2.09 1.24-.34.15-1.01.45-1.34.6l-.95-.22-.37-.98zM97.31 57.4c.54.58.54.58 0 0z"/>
<path d="M87.99 57.93c2.01-.04 4.06-.78 6.07-.42 1.28.8 2.47 1.74 3.56 2.8-1.24-.37-2.47-.75-3.7-1.15-.92.12-1.84.23-2.77.32-1.26-.03-2.31-.55-3.16-1.55zM96.86 61.8c.93-.57 1.87-1.15 2.8-1.72l1.55-.24c-2.21 1.24-1.81 3.45-1.58 5.53-1.74.74-3.92 2.07-5.73.75-1.03-1.12-2.15-.58-2.6.74-1.29-.63-2.48-1.41-3.56-2.34 2.89-.07 5.78-.06 8.67-.06.41.19 1.23.57 1.64.75.5-1.2.99-2.4 1.47-3.61-1.51.58-2.99 1.21-4.54 1.64-1.06-.61-2.04-1.33-2.93-2.17 1.6.21 3.21.46 4.81.73zM83.59 65.31c.59-.13 1.77-.4 2.36-.54 1.88 0 3.24 1.67 4.94 2.27-.84.53-1.67 1.06-2.52 1.57.75.6 1.37 1.3 1.86 2.11l.21.86-3.49-.72c.16-.69.48-2.05.64-2.73-1.35-.92-2.68-1.86-4-2.82zM91.27 67.6c1.5-.14 3-.57 4.52-.37 1.33 1.56 2.54 3.24 4.09 4.62l-.95.1c-2.52.21-5.24.83-7.55-.61 1.55.1 3.09.17 4.64.23.22-.71.64-2.13.86-2.84-1.48.47-2.96.93-4.44 1.39-.32-.07-.96-.23-1.28-.3.03-.56.08-1.67.11-2.22zM97.61 67.95c.76-1.33 1.64-1.28 2.64.16-1.01 1.32-1.89 1.27-2.64-.16zM96.73 73.04c.59.34 1.17.68 1.75 1.04l1.12.68-3.19-.24c.71.63 2.14 1.89 2.85 2.52-1.93-.36-3.86-.77-5.8-1.09l3.27-2.91zM93.53 84.37c1.36-1.1 2.53-1.01 3.16.87-2.04.33-4.07.7-6.07 1.23 1.35.06 2.71.09 4.06.11-1.08 2.9-4.13 1.87-6.46 2 .11-.54.31-1.64.41-2.18l-1.39.57.03-2.75c2.08.18 4.17.11 6.26.15zM82.86 84.31c1.38-.32 4.51-.12 3.98 1.97-1.27 1.07-4.18-.51-3.98-1.97z"/>
<path d="M78.59 85.5c2.19-.2 5.55-.88 5.28 2.43.87 1.11 1.76 2.21 2.6 3.34-3.05 1.3-3.93-2.13-5.27-3.91-.88-.61-1.75-1.23-2.61-1.86zM85.58 87.47c1.32-.58 3.2 1.17 2.96 2.45-1.21.25-3.64-.98-2.96-2.45zM62.38 90.71c2.23-.17 4.47-.11 6.57.74-.28.77-.84 2.3-1.12 3.06-1.58-.63-1.93-2.75-3.28-3.75.6 1.42 1.21 2.83 1.83 4.24-.8 2.43-4.21 1.93-5.58.27-.55.35-1.67 1.03-2.22 1.37-.37.55-1.12 1.65-1.49 2.21-.34-1.55-1.78-3.06-1.05-4.72.49.17 1.48.52 1.97.69-.15-.49-.44-1.47-.59-1.96 1.02.29 2.04.58 3.05.88-.05-.52-.14-1.58-.19-2.1 2.86-.52 2.38 3.23 3.57 4.76.24-2.02-.79-3.85-1.47-5.69zM68.68 93.84l1.67-2.26c.11.99.32 2.95.43 3.93l.34-3.17c.72.69 1.45 1.38 2.17 2.08-1.39.87-5.09 2.59-4.61-.58z"/>
<path d="M93.16 54.48c2.52.09 4.96.69 7.34 1.48.05.83.15 2.48.21 3.31l-1.05.81c-.93.57-1.87 1.15-2.8 1.72-1.6-.27-3.21-.52-4.81-.73.89.84 1.87 1.56 2.93 2.17 1.55-.43 3.03-1.06 4.54-1.64-.48 1.21-.97 2.41-1.47 3.61-.41-.18-1.23-.56-1.64-.75-2.89 0-5.78-.01-8.67.06-.6.04-1.2.13-1.79.25-.59.14-1.77.41-2.36.54 1.32.96 2.65 1.9 4 2.82-.16.68-.48 2.04-.64 2.73l3.49.72-.21-.86-.12-1.14 1.05.24c.32.07.96.23 1.28.3 1.48-.46 2.96-.92 4.44-1.39-.22.71-.64 2.13-.86 2.84-1.55-.06-3.09-.13-4.64-.23 2.31 1.44 5.03.82 7.55.61-.11.53-.34 1.6-.45 2.13-.58-.36-1.16-.7-1.75-1.04l-3.27 2.91c-2.08-.95-4.11-2.04-6.29-2.74-1.82.37-3.01 1.46-3.55 3.27.55.23 1.65.7 2.2.94-2.55-.35-4.91-1.36-7.06-2.74 1.63-.05 3.27-.11 4.9-.25-1.39-.84-2.82-1.6-4.26-2.36 1.14-1.5 2.31-2.98 3.45-4.48.8.45 2.41 1.34 3.21 1.79-2.3-2.26-3.89-5.03-4.73-8.14 2.11 1.11 4.28 2.1 6.52 2.92-.42-1.02-1.25-3.06-1.67-4.08 1.65 1.32 3.29 2.7 5.22 3.6.29-1.47-.7-2.76-1.13-4.1l.88-.1c.93-.09 1.85-.2 2.77-.32 1.23.4 2.46.78 3.7 1.15-1.09-1.06-2.28-2-3.56-2.8l-.39-.6.24-.59c.33-.15 1-.45 1.34-.6-.52-.31-1.57-.93-2.09-1.24m4.15 2.92c.54.58.54.58 0 0m-15.63 14c2.1.86 4.28 2.13 6.61 1.27-2.04-.9-4.92-4.24-6.61-1.27m7.6.85c-.33 1.5 2.17 2.59 3.34 1.85.04-1.35-2.17-2.37-3.34-1.85z"/>
<path d="M32.81 80.2c3.27-3.84 7.36-6.92 11.37-9.94-3.51 3.61-7.55 6.67-11.37 9.94zM52.67 76.82c4.23-.03 8.45.31 12.67.57l1.44 2.84c-4.64-1.53-9.51-2.17-14.38-2.17.7 1.64 1.35 3.32 1.78 5.06-1.2-.54-2.39-1.11-3.57-1.68.04.7.13 2.09.17 2.78-.77-.34-2.3-1.04-3.07-1.39.01-.52.05-1.57.06-2.09.02-.34.07-1.02.09-1.37 2.08.04 3.91-.54 4.81-2.55z"/>
<path d="M81.68 71.4c1.69-2.97 4.57.37 6.61 1.27-2.33.86-4.51-.41-6.61-1.27z"/>
<path d="M89.28 72.25c1.17-.52 3.38.5 3.34 1.85-1.17.74-3.67-.35-3.34-1.85z"/>
<path d="M92.1 90.13c1.23 1.28.77 2.48-.51 3.52.3.77.59 1.54.89 2.31-.66.91-1.96 2.74-2.62 3.65-.19-1.6-.44-3.18-.76-4.74-.48 1.39-.75 2.84-.82 4.32-1.13-2.57-3.49-4.67-4.03-7.45.63-.06 1.88-.16 2.51-.22l1.05 1.29c-.16-.63-.49-1.88-.65-2.51 1.65-.02 3.29-.08 4.94-.17z"/></g>
<g fill="rgb(55,4,0)" stroke="rgb(55,4,0)" stroke-width=".05%" stroke-opacity="50%"><path d="M29.23 20.63c.46-1.58 1.12-3.24 2.69-4.01 1.48.23 2.91.67 4.29 1.31l-1.3.83-2.88 1.86c-.7 0-2.1.01-2.8.01z"/>
<path d="M32.03 20.62l2.88-1.86c.55 1.47 1.11 2.94 1.72 4.39-.81 0-2.43.01-3.24.01l-.37-.86c-.46-.22-1.38-.65-1.84-.86l.85-.82z"/>
<path d="M31.18 21.44c.46.21 1.38.64 1.84.86-.42 0-1.27 0-1.69.01l-.15-.87z"/>
<path d="M32.08 23.26c.33-.02.98-.07 1.31-.1 1.05.59 2.07 1.23 3.07 1.91-.34.21-1.02.62-1.35.83-.56-.17-1.66-.5-2.21-.67-.21-.49-.62-1.48-.82-1.97zM99.44 33.02c2.88-.98 5.68-2.2 8.56-3.2-9.75 11.28-21.35 20.89-30.22 32.94-1.33-.58-2.82-.94-3.91-1.96-1.59-2.81-1.23-6.15-1.2-9.25-.82.08-2.46.23-3.28.31 5.24-4.86 11.56-8.3 17.51-12.2.44.43 1.33 1.27 1.78 1.69 2.12-1.46 4.29-2.84 6.51-4.14-.33.84-1.01 2.51-1.35 3.35 2.53-2.12 5.2-4.08 8.01-5.8-.8-.58-1.61-1.16-2.41-1.74m-20.2 21.85l-1.01-1.28c.07.51.21 1.53.28 2.03-.78.79-1.53 1.6-2.26 2.43 3.26-2.36 5.02-6.15 8.17-8.63 2.54-3.15 5.73-5.65 8.57-8.51-5.1 4.09-10.07 8.5-13.75 13.96zM42.59 38.78c5.03-1.6 9.87-3.69 14.69-5.8.81 2.52 1.52 5.07 2.34 7.59-12.83.83-25.31 4.65-36.5 10.96-.54-2.58-1.4-5.08-2.04-7.63 5.87-.44 11.45-2.32 17.18-3.5-.64-.09-1.92-.26-2.56-.35l.96-1.36c1.36-.4 2.73-.8 4.09-1.19l-.55-.69-.62-.82 1.84.81c.29.49.88 1.48 1.17 1.98z"/>
<path d="M37.56 46.33c1.81-2.1 4.53-2.55 7.16-2.87.73 2.63 2.45 4.72 4.82 6.04-.05 3.34.16 6.67.62 9.98-1.2-.32-2.39-.67-3.56-1.06-1.31-2.84-1.11-6.57-3.8-8.61.03 4.05 2.46 7.57 3.21 11.48-1.03.78-2.02 1.6-2.98 2.47-.78-3.79-3.02-7.01-5.54-9.84.6-2.5 1.49-5.15.07-7.59zM84.35 76.23c.94-1.61 2.66-3.85 4.7-2.18 4.72 3.03 10.4 3.59 15.88 3.62-6.36 5.02-14.64 6.06-22.5 5.77 1.57-2.26 3.21-4.47 4.67-6.8-.69-.1-2.06-.31-2.75-.41m3.36.75c2.62 2.41 6.31 2.06 9.59 2.08l.03-1.19c-3.24.12-6.43-.44-9.62-.89m-2.27 3.16c3.62 1.9 8.09.52 12.03.59-3.91-1.11-8.02-.78-12.03-.59zM49.33 82.74c.69-.84 1.4-1.66 2.11-2.48l2.28 1.56.31.22c-2.2.91-4.98 1.05-6.72 2.76 1.03 3.77.27 10-4.31 10.94-1.34-4.43-3.98-8.32-6.98-11.79 1.78-.39 3.55-.81 5.29-1.33 1.42 3.03 2.5 6.19 3.48 9.38-.55-3.28-1.42-6.51-2.74-9.56 1.93.52 3.86.75 5.8.22l1.48.08zM68.49 90.45c-1.54-3.59 2.36-6.83 5.61-7.59 4.65.94 6.58 5.81 9.68 8.85-.19.15-.58.45-.77.6-2.85-1.31-4.21-4.69-6.75-6.56 2.13 2.55 3.59 5.63 6.31 7.66l.21.36c-.2.46-.6 1.37-.79 1.83-3.22-3.5-6.42-7.36-11.08-8.94 3.37 3.53 7.09 6.68 10.58 10.09-.08.72-.15 1.43-.23 2.15-4.29-2.78-8.3-5.96-12.77-8.45zM31.53 85.07c.59-.45 1.78-1.36 2.37-1.82.74 1.96 1.46 3.94 2.01 5.97-.38-.28-1.13-.84-1.51-1.12-1.07-.9-2.05-1.9-2.87-3.03zM29.95 84.62c1.28 1.58 2.56 3.16 3.83 4.76-.83.25-2.49.76-3.32 1.02.68 1.07 1.34 2.16 1.96 3.27-2.67-1.42-5.23-3.14-6.99-5.64.47-.81 1-1.59 1.57-2.33l1.52.04c.44.88 1.31 2.64 1.75 3.52l-.32-4.64zM26.72 99.63c1.44-2.5 5.38-4.61 7.64-1.87.39 1.4.83 3 .12 4.37-2.12 4.49-6.59 7.04-10.7 9.43 1.53-3.82 2.17-7.91 2.94-11.93m2.52-.55c-.85 2.67-4.13 6.6-.44 8.38 1.89-2.73 5.02-5.26 4.45-8.96-1.05 1.07-2.06 2.18-3.01 3.35.35-1.1.68-2.19 1-3.29l-2 .52zM58.67 98.13c.57-.49 1.71-1.46 2.28-1.94 1.44 4.86 3.33 10 1.56 15.06-4.08-2.83-5.14-7.95-7.41-12.08.82-.15 2.44-.46 3.25-.62.95 3.18 1.9 6.38 3.18 9.45-.79-3.34-2.14-6.51-2.86-9.87z"/>
<path d="M33.39 23.16c.81 0 2.43-.01 3.24-.01.42 1.27.81 2.55 1.18 3.83-.43.05-1.3.17-1.74.22l.31.68c.4-.03 1.21-.08 1.61-.11l.32.91c-.82.05-2.46.16-3.28.21-.01.21-.01.62-.01.83-1-.18-1.92-.6-2.77-1.26.6-.45 1.8-1.35 2.39-1.8l.47-.76c.33-.21 1.01-.62 1.35-.83-1-.68-2.02-1.32-3.07-1.91z"/>
<path d="M34.64 26.66c-2.35 1.78-1.58-1.94.47-.76l-.47.76z"/>
<path d="M36.07 27.2c.44-.05 1.31-.17 1.74-.22l.18.79c-.4.03-1.21.08-1.61.11l-.31-.68z"/>
<path d="M35.02 29.72c0-.21 0-.62.01-.83.82-.05 2.46-.16 3.28-.21.2.49.59 1.48.78 1.98l-.73 1.05 1.49.02.05 1.48c-.57.04-1.72.13-2.29.17l2.04.33 1.7 1.79c-.84-.12-2.53-.38-3.38-.51.85.49 1.59 1.1 2.23 1.82l.55.69c-1.36.39-2.73.79-4.09 1.19-.79-1.21-1.39-2.53-1.78-3.94.52-.01 1.56-.04 2.08-.05-.76-.54-2.28-1.63-3.05-2.17.83 0 2.47-.01 3.29-.01l-3.05-.62c.75-.44 1.52-.84 2.31-1.2-.36-.24-1.08-.73-1.44-.98z"/>
<path d="M86.9 39.66c3.97-2.59 8.27-4.6 12.54-6.64.8.58 1.61 1.16 2.41 1.74-2.81 1.72-5.48 3.68-8.01 5.8.34-.84 1.02-2.51 1.35-3.35-2.22 1.3-4.39 2.68-6.51 4.14-.45-.42-1.34-1.26-1.78-1.69z"/>
<path d="M87.71 76.98c3.19.45 6.38 1.01 9.62.89l-.03 1.19c-3.28-.02-6.97.33-9.59-2.08z"/>
<path d="M47.45 82.64c.48-3.01 3.14-3.22 5.5-3.6.25.93.51 1.86.77 2.78l-2.28-1.56c-.71.82-1.42 1.64-2.11 2.48l-1.48-.08-.4-.02z"/>
<path d="M85.44 80.14c4.01-.19 8.12-.52 12.03.59-3.94-.07-8.41 1.31-12.03-.59z"/>
<path d="M29.82 82.15c.25.4.74 1.2.99 1.59 1.03-.16 2.06-.32 3.09-.49-.59.46-1.78 1.37-2.37 1.82.82 1.13 1.8 2.13 2.87 3.03l-.62 1.28c-1.27-1.6-2.55-3.18-3.83-4.76l.32 4.64c-.44-.88-1.31-2.64-1.75-3.52L27 85.7c1.22-.94 2.11-2.19 2.82-3.55z"/>
<path d="M70.91 86.66c4.66 1.58 7.86 5.44 11.08 8.94l-.5 1.15c-3.49-3.41-7.21-6.56-10.58-10.09z"/>
<path d="M83.12 93.19c1.25-.04 2.29 1.19 2.67 2.29 1.22 2.66 2.3 5.41 3.03 8.25-2.52-1.58-4.99-3.24-7.56-4.75v-.08c.08-.72.15-1.43.23-2.15l.5-1.15c.19-.46.59-1.37.79-1.83l.34-.58zM29.24 99.08l2-.52c-.32 1.1-.65 2.19-1 3.29.95-1.17 1.96-2.28 3.01-3.35.57 3.7-2.56 6.23-4.45 8.96-3.69-1.78-.41-5.71.44-8.38z"/></g>


</g></svg>