<svg width="64" height="64" viewBox="0 0 64 64" shape-rendering="geometricPrecision" version="1.1" xmlns="http://www.w3.org/2000/svg"><desc>Created by https://guilds.gw2w2w.com/</desc><rect x="0" y="0" width="64" height="64" fill="none" stroke="none"/><g transform="matrix(0.25,0,0,-0.25,0,64)">
<g fill="rgb(26,24,27)" stroke="rgb(26,24,27)" stroke-width=".05%" stroke-opacity="50%" opacity="0.7"><path d=" M 119.27 28.27 C 143.60 26.01 168.65 33.07 188.17 47.78 C 206.93 61.70 220.40 82.45 225.66 105.19 C 229.96 124.26 228.77 144.59 221.91 162.91 C 213.81 184.62 197.91 203.37 177.69 214.73 C 162.11 223.72 144.02 228.27 126.04 227.76 C 100.33 227.33 74.89 216.45 57.00 197.96 C 41.06 182.04 31.08 160.45 28.78 138.08 C 26.74 118.50 30.63 98.35 39.93 80.98 C 55.21 51.50 86.17 30.92 119.27 28.27 Z"/></g>
</g><g transform="matrix(0.25,0,0,0.25,0,0)">
<g fill="rgb(152,63,23)" stroke="rgb(152,63,23)" stroke-width=".05%" stroke-opacity="50%"><path d=" M 106.06 111.59 C 110.62 107.83 115.75 104.18 121.97 104.37 C 120.40 108.54 115.50 109.34 113.21 112.92 C 114.87 115.19 117.12 117.06 118.34 119.63 C 118.99 124.36 114.35 126.80 111.15 129.13 C 106.17 132.40 105.94 139.03 102.32 143.36 C 100.67 145.08 98.26 145.58 96.08 146.26 C 91.07 145.95 87.00 142.79 83.84 139.14 C 81.11 134.34 80.83 128.16 83.36 123.21 C 86.29 117.14 92.55 113.52 98.83 111.72 C 101.24 111.73 103.65 111.72 106.06 111.59 Z"/>
<path d=" M 49.09 120.06 C 54.81 115.61 58.42 108.70 65.37 105.85 C 66.05 109.45 62.97 111.68 60.84 113.97 C 63.73 115.51 67.24 117.01 68.38 120.37 C 69.70 124.71 66.53 128.67 66.70 133.01 C 66.01 139.16 68.00 146.93 62.52 151.41 C 55.18 156.44 44.96 151.35 41.07 144.23 C 39.02 140.81 39.27 136.69 39.71 132.89 C 41.37 127.70 44.89 123.44 49.09 120.06 Z"/>
<path d=" M 138.01 135.66 C 141.11 133.41 141.97 129.22 145.24 127.08 C 146.08 132.91 143.07 138.27 139.70 142.76 C 140.56 153.40 134.07 164.36 124.14 168.40 C 119.49 169.16 114.33 168.81 110.63 165.56 C 106.71 161.76 104.23 156.43 104.79 150.89 C 109.03 144.75 117.80 144.19 121.71 137.73 C 123.79 134.98 126.11 131.20 130.08 131.55 C 133.42 131.31 134.60 136.47 138.01 135.66 Z"/>
<path d=" M 53.02 165.26 C 59.50 164.81 63.75 159.17 69.90 157.73 C 73.66 158.48 77.70 158.78 80.91 161.13 C 85.99 164.68 90.47 169.19 93.78 174.45 C 95.46 177.03 95.62 180.17 96.23 183.10 C 95.53 189.70 89.58 194.15 88.86 200.71 C 88.64 206.21 94.24 211.08 91.59 216.62 C 88.09 224.46 78.53 227.86 70.45 227.34 L 70.77 226.94 C 63.30 225.20 57.79 219.52 51.96 214.94 C 43.52 207.30 35.09 199.31 29.21 189.46 C 26.25 184.97 27.20 179.37 27.65 174.34 C 29.98 170.02 32.43 165.23 36.90 162.78 C 42.45 160.90 47.59 164.70 53.02 165.26 Z"/>
<path d=" M 123.99 184.65 C 128.64 184.37 133.24 181.10 137.80 183.53 C 139.14 185.69 140.69 188.88 143.83 187.66 C 146.30 186.01 147.65 182.89 150.89 182.39 C 150.64 190.15 141.73 192.55 139.20 199.12 C 137.03 204.55 132.02 208.22 126.88 210.63 C 122.32 212.47 116.88 213.13 112.38 210.75 C 107.04 207.78 103.10 202.17 102.72 196.00 C 103.05 192.36 104.70 188.34 108.31 186.87 C 113.31 184.96 118.77 185.44 123.99 184.65 Z"/></g>
<g fill="rgb(135,0,10)" stroke="rgb(135,0,10)" stroke-width=".05%" stroke-opacity="50%"><path d=" M 225.62 27.88 C 227.22 27.34 227.77 27.89 227.28 29.53 C 225.66 30.07 225.11 29.52 225.62 27.88 Z"/>
<path d=" M 212.62 33.06 C 216.79 33.00 219.62 28.92 223.93 29.73 C 222.53 31.81 220.67 33.55 218.37 34.57 C 213.54 36.75 210.45 41.34 205.80 43.82 C 202.33 45.70 199.22 48.16 196.58 51.10 C 196.03 51.09 194.92 51.08 194.37 51.08 C 193.52 52.41 192.68 53.73 191.85 55.06 C 187.28 56.24 182.97 58.33 179.27 61.27 C 176.04 63.56 173.53 67.03 169.52 68.03 C 171.21 64.97 174.12 62.93 176.45 60.40 C 179.03 57.39 183.06 56.46 186.21 54.22 C 189.60 52.03 191.68 48.32 195.19 46.27 C 197.50 44.93 199.27 42.92 201.20 41.13 C 203.19 39.16 206.39 39.38 208.42 37.47 C 209.91 36.09 211.20 34.51 212.62 33.06 Z"/>
<path d=" M 149.99 34.98 C 153.31 35.04 148.55 38.03 149.99 34.98 Z"/>
<path d=" M 145.21 36.28 C 146.53 34.86 148.84 37.15 147.36 38.45 C 146.03 39.85 143.70 37.59 145.21 36.28 Z"/>
<path d=" M 133.05 48.49 C 134.89 44.54 139.08 43.04 143.13 42.66 C 141.39 46.67 137.43 49.01 133.05 48.49 Z"/>
<path d=" M 124.84 55.79 C 125.96 52.27 129.17 50.31 132.86 50.72 C 130.54 52.92 127.83 54.66 124.84 55.79 Z"/>
<path d=" M 114.91 60.82 C 117.94 58.99 121.36 57.98 124.76 57.07 C 122.41 61.16 116.81 62.17 115.51 67.03 C 110.61 69.66 105.66 72.33 101.54 76.12 C 101.20 80.92 96.01 82.07 92.79 84.55 C 92.14 86.45 91.41 88.32 90.59 90.15 C 88.27 90.14 85.56 88.98 83.53 90.60 C 82.14 91.47 81.98 93.31 81.30 94.68 C 80.17 95.31 79.03 95.94 77.89 96.56 C 78.80 100.37 76.66 103.56 73.87 105.89 C 70.44 105.61 66.41 105.91 64.44 102.47 C 65.74 102.59 67.05 102.74 68.35 102.90 C 69.87 100.13 71.22 97.27 72.57 94.42 C 73.37 94.55 74.97 94.80 75.77 94.93 C 79.30 90.37 84.17 87.26 88.62 83.71 C 94.32 77.59 102.44 74.07 106.98 66.84 C 110.13 65.53 112.05 62.55 114.91 60.82 Z"/>
<path d=" M 230.96 69.23 C 232.40 68.81 232.86 69.28 232.34 70.65 C 230.90 71.06 230.44 70.59 230.96 69.23 Z"/>
<path d=" M 152.63 81.67 C 157.20 78.06 160.34 71.95 166.83 71.59 C 164.44 75.82 160.32 78.55 156.99 81.96 C 152.65 86.98 146.14 89.72 142.74 95.63 C 141.98 95.45 141.23 95.27 140.47 95.10 C 137.19 98.22 133.16 100.34 128.99 102.01 C 128.84 103.78 129.37 105.89 127.77 107.17 C 124.65 108.05 123.25 104.57 123.16 102.05 C 123.13 99.77 123.14 96.33 126.04 95.86 C 129.61 94.78 132.28 91.63 136.11 91.36 C 137.79 91.30 139.04 90.10 140.34 89.20 C 144.17 86.25 148.97 84.88 152.63 81.67 Z"/>
<path d=" M 220.61 77.93 C 222.59 74.65 225.42 71.84 229.30 71.02 C 227.82 74.77 224.66 77.40 220.61 77.93 Z"/>
<path d=" M 212.81 84.08 C 214.36 80.73 217.59 78.96 221.13 78.49 C 219.11 81.30 216.33 83.56 212.81 84.08 Z"/>
<path d=" M 201.02 91.26 C 203.31 87.33 208.25 83.05 212.90 85.92 C 209.46 88.68 205.59 91.16 201.02 91.26 Z"/>
<path d=" M 192.27 95.27 C 194.62 92.99 197.95 92.55 201.08 92.38 C 198.56 96.51 194.24 98.86 190.22 101.26 C 188.04 102.58 185.47 102.90 183.00 103.25 C 185.48 99.93 189.29 98.08 192.27 95.27 Z"/>
<path d=" M 165.53 112.65 C 169.76 109.79 173.53 105.79 178.93 105.29 C 178.28 106.75 177.61 108.21 176.93 109.66 C 174.54 110.35 172.29 111.41 170.16 112.68 C 168.71 116.64 165.89 119.81 163.51 123.22 C 160.58 123.45 157.88 124.54 155.88 126.74 C 156.01 127.66 156.26 129.51 156.39 130.43 C 151.81 130.79 149.52 126.71 147.57 123.32 C 148.73 122.58 149.90 121.85 151.07 121.12 C 150.26 119.90 149.46 118.67 148.68 117.43 C 150.91 117.32 153.05 117.95 155.11 118.77 C 156.19 117.21 157.18 115.58 158.41 114.12 C 160.69 113.27 163.46 114.22 165.53 112.65 Z"/>
<path d=" M 227.13 130.51 C 228.03 129.14 230.98 130.24 229.67 131.85 C 228.79 133.16 225.79 132.09 227.13 130.51 Z"/>
<path d=" M 214.40 138.41 C 217.18 136.17 220.50 134.71 224.00 133.98 C 222.86 136.02 221.04 137.41 218.84 138.11 C 214.02 139.75 211.58 144.62 207.70 147.55 C 206.27 148.83 204.59 147.94 203.25 147.14 C 206.71 143.91 210.71 141.36 214.40 138.41 Z"/>
<path d=" M 194.09 154.18 C 196.60 151.95 198.99 149.59 201.62 147.50 C 202.23 147.96 202.84 148.44 203.45 148.92 C 202.76 150.21 202.08 151.52 201.43 152.83 C 197.02 155.56 192.66 158.37 188.44 161.39 C 185.18 164.02 180.76 163.70 177.02 165.23 C 175.10 170.28 171.16 174.20 169.26 179.27 C 164.60 181.71 159.07 181.03 154.03 182.08 C 154.23 180.67 154.29 179.23 154.68 177.86 C 158.46 174.76 162.37 171.68 166.89 169.71 C 171.23 167.80 172.86 161.97 177.85 161.24 C 183.79 160.45 189.54 158.12 194.09 154.18 Z"/></g>


</g></svg>