<svg width="64" height="64" viewBox="0 0 64 64" shape-rendering="geometricPrecision" version="1.1" xmlns="http://www.w3.org/2000/svg"><desc>Created by https://guilds.gw2w2w.com/</desc><rect x="0" y="0" width="64" height="64" fill="none" stroke="none" /><g transform="matrix(0.25,0,0,0.25,0,0)">
<g fill="rgb(94,29,100)" stroke="rgb(94,29,100)" stroke-width=".05%" stroke-opacity="50%" opacity="0.7"><path d=" M 119.27 28.27 C 143.60 26.01 168.65 33.07 188.17 47.78 C 206.93 61.70 220.40 82.45 225.66 105.19 C 229.96 124.26 228.77 144.59 221.91 162.91 C 213.81 184.62 197.91 203.37 177.69 214.73 C 162.11 223.72 144.02 228.27 126.04 227.76 C 100.33 227.33 74.89 216.45 57.00 197.96 C 41.06 182.04 31.08 160.45 28.78 138.08 C 26.74 118.50 30.63 98.35 39.93 80.98 C 55.21 51.50 86.17 30.92 119.27 28.27 Z" /></g>
</g><g transform="matrix(0.25,0,0,0.25,0,0)">
<g fill="rgb(157,142,108)" stroke="rgb(157,142,108)" stroke-width=".05%" stroke-opacity="50%"><path d=" M 135.75 56.57 C 144.50 56.10 153.29 56.47 162.05 56.69 C 166.56 57.13 171.27 57.43 175.28 59.78 C 175.55 65.97 175.79 72.18 175.29 78.36 C 173.47 78.46 171.66 78.67 169.85 78.75 C 165.45 80.16 161.75 83.59 160.63 88.15 C 160.20 93.95 161.56 99.78 164.02 105.02 C 164.81 106.68 166.46 107.65 167.80 108.82 C 169.23 108.79 170.65 108.78 172.08 108.77 C 171.69 109.88 171.29 110.99 170.86 112.08 C 167.80 119.69 166.05 127.88 166.52 136.11 C 165.59 136.85 164.68 137.62 163.79 138.41 C 161.10 138.45 158.39 138.36 155.75 138.94 C 158.57 140.88 161.95 140.21 164.99 139.21 C 166.12 143.32 167.39 147.43 167.86 151.68 C 167.64 153.79 165.53 155.06 164.35 156.67 C 158.96 155.96 153.56 156.84 148.18 157.12 C 154.62 160.01 161.66 156.53 168.26 158.22 C 170.87 158.74 172.03 161.27 172.84 163.52 C 170.39 163.44 167.60 162.73 165.46 164.34 C 156.20 170.10 162.20 188.35 173.63 185.58 C 175.64 188.15 172.83 190.02 170.76 191.21 C 170.71 191.75 170.67 192.28 170.62 192.82 C 171.34 191.50 173.47 190.85 174.33 192.43 C 176.76 195.41 180.28 197.43 182.28 200.77 C 183.47 202.73 182.00 204.84 181.18 206.62 C 160.90 209.31 140.39 209.53 119.96 210.08 C 106.29 209.46 92.53 209.96 78.96 207.98 C 76.49 207.68 74.27 206.61 72.33 205.08 C 72.72 198.99 78.56 195.68 81.04 190.57 C 82.49 191.93 84.76 192.15 86.36 190.91 C 85.44 190.87 83.59 190.79 82.66 190.75 C 82.32 190.05 81.99 189.34 81.66 188.64 C 82.54 186.49 84.24 184.43 83.70 181.96 C 83.25 174.32 83.50 165.74 88.53 159.51 C 89.59 157.75 91.92 158.49 93.60 158.10 C 92.32 156.26 90.90 154.52 89.45 152.82 C 89.45 150.47 89.42 148.12 89.33 145.77 C 89.16 145.62 88.83 145.31 88.66 145.15 C 92.94 141.48 89.40 135.91 89.06 131.38 C 90.77 131.62 92.48 131.93 94.16 132.32 C 101.69 130.38 102.17 121.10 101.14 114.80 C 103.17 114.45 105.19 114.01 107.16 113.42 C 107.90 112.34 108.64 111.26 109.40 110.20 C 111.40 104.08 111.54 97.64 111.45 91.27 C 119.27 89.60 125.06 81.98 124.79 74.03 C 124.52 70.22 125.11 66.13 123.41 62.58 C 124.19 62.00 124.93 61.35 125.62 60.65 C 131.96 62.05 138.48 60.87 144.90 61.50 C 153.53 61.61 162.39 62.57 170.83 60.31 C 170.81 59.93 170.76 59.17 170.74 58.79 C 168.50 58.69 166.25 58.47 164.09 57.84 C 156.72 57.46 149.34 57.43 141.96 57.39 C 139.87 57.35 137.70 57.45 135.75 56.57 M 98.98 138.85 C 103.34 142.24 108.97 140.04 113.92 139.77 C 126.67 139.36 139.43 141.02 152.18 140.05 C 153.23 139.82 154.22 139.37 155.21 138.95 C 151.17 138.21 147.05 138.73 142.98 138.58 C 128.31 138.27 113.64 138.28 98.98 138.85 M 99.65 158.79 C 104.41 159.29 109.21 159.52 113.97 158.93 C 122.42 159.53 131.02 161.10 139.35 158.71 C 130.64 157.49 121.81 158.33 113.08 158.57 C 108.63 157.55 104.08 157.73 99.65 158.79 M 90.03 192.93 C 109.67 193.94 129.33 193.77 148.99 193.67 C 154.31 193.75 159.72 194.17 164.95 192.87 C 146.01 191.62 126.96 192.81 108.00 191.84 C 102.02 192.24 96.00 192.20 90.03 192.93 Z" />
<path d=" M 168.74 81.20 C 171.90 80.53 175.03 79.73 178.10 78.73 C 181.27 80.05 184.59 80.94 188.04 80.24 C 192.76 78.99 198.56 76.83 202.91 80.16 C 208.21 84.08 211.62 90.05 213.66 96.23 C 214.97 99.96 214.37 104.00 215.11 107.84 C 215.58 118.20 215.73 128.58 215.82 138.96 C 215.88 149.39 216.57 160.17 212.59 170.07 C 212.10 170.60 211.62 171.14 211.14 171.69 C 209.57 177.40 203.47 180.03 199.08 183.33 C 195.54 181.85 191.75 180.71 187.86 181.15 C 182.07 181.30 176.84 184.37 171.07 184.56 C 167.87 183.32 164.19 181.48 163.33 177.83 C 162.23 174.05 161.86 168.91 165.26 166.17 C 169.28 163.52 175.67 163.08 178.99 167.09 C 180.99 169.53 184.05 170.39 186.95 171.23 C 191.47 171.51 197.10 172.23 200.31 168.23 C 204.80 161.39 204.72 152.88 204.93 145.01 C 205.01 132.66 203.38 120.38 203.84 108.03 C 203.91 100.86 200.06 93.19 193.05 90.60 C 187.60 89.66 181.59 90.56 177.44 94.46 C 174.70 97.85 176.59 103.23 173.23 106.27 C 169.53 108.32 165.42 105.28 163.96 101.86 C 162.40 97.51 162.15 92.73 163.08 88.20 C 164.20 85.44 165.42 81.87 168.74 81.20 Z" /></g>
<g fill="rgb(28,90,45)" stroke="rgb(28,90,45)" stroke-width=".05%" stroke-opacity="50%"><path d=" M 97.85 51.46 C 102.24 50.36 106.37 47.94 111.04 48.35 C 117.95 47.80 125.21 48.41 131.49 51.50 C 133.25 53.72 133.50 56.77 134.48 59.37 C 130.98 58.86 127.55 57.71 123.98 57.88 C 121.08 55.40 118.72 51.06 114.22 52.10 C 116.27 54.55 118.68 56.69 120.61 59.24 C 119.90 59.34 118.48 59.54 117.77 59.64 C 116.57 56.27 113.58 54.12 109.98 54.20 C 112.66 55.90 114.92 58.13 117.35 60.16 C 119.70 67.31 118.93 74.84 117.70 82.12 C 122.21 79.62 121.06 73.79 122.63 69.60 C 123.56 76.02 121.64 83.27 116.31 87.32 C 114.06 88.81 110.93 89.93 108.39 88.51 C 106.45 87.53 104.49 86.55 102.33 86.15 C 102.62 86.87 103.20 88.32 103.49 89.04 C 105.06 89.83 107.09 90.37 107.72 92.25 C 109.50 96.91 108.71 102.70 105.33 106.46 C 103.15 106.86 100.92 106.78 98.72 106.95 C 99.65 108.05 100.64 109.10 101.73 110.04 C 102.43 109.97 103.85 109.82 104.55 109.75 C 105.81 108.51 107.05 107.26 108.35 106.06 C 107.07 108.29 106.31 112.49 102.97 112.16 C 101.07 112.30 99.53 111.01 97.92 110.23 C 98.47 116.47 100.28 123.77 96.12 129.17 C 94.40 131.79 91.41 130.05 89.06 129.57 C 87.53 127.01 85.67 124.65 84.32 121.99 C 81.40 112.93 79.55 103.52 78.96 94.02 C 78.74 88.24 80.59 82.21 78.19 76.67 C 76.52 73.06 76.51 68.94 77.23 65.10 C 78.38 60.50 82.66 57.70 86.65 55.71 C 90.43 54.41 93.92 52.33 97.85 51.46 M 79.10 66.11 C 77.73 70.40 77.56 76.56 81.79 79.25 C 82.43 75.46 79.04 72.10 80.57 68.39 C 82.00 64.17 85.51 61.11 87.52 57.19 C 83.87 59.00 79.73 61.72 79.10 66.11 M 81.01 80.14 C 80.11 87.54 80.32 95.06 81.91 102.36 C 84.33 101.15 83.59 98.13 83.71 95.94 C 83.45 91.66 83.88 87.34 83.33 83.08 C 83.30 81.67 81.81 81.05 81.01 80.14 M 103.47 83.10 C 105.67 86.70 111.06 88.24 114.29 85.10 C 110.53 85.06 107.26 82.36 103.47 83.10 M 82.13 103.91 C 82.06 107.71 81.07 112.39 84.39 115.19 C 85.07 111.34 86.17 106.30 82.13 103.91 M 86.44 121.24 C 85.46 122.68 87.74 124.73 89.14 123.79 C 90.24 122.35 87.81 120.31 86.44 121.24 Z" /></g>


</g></svg>