<svg width="64" height="64" viewBox="0 0 64 64" shape-rendering="geometricPrecision" version="1.1" xmlns="http://www.w3.org/2000/svg"><desc>Created by https://guilds.gw2w2w.com/</desc><rect x="0" y="0" width="64" height="64" fill="none" stroke="none" /><g transform="matrix(-0.25,0,0,-0.25,64,64)">
<g fill="rgb(55,4,0)" stroke="rgb(55,4,0)" stroke-width=".05%" stroke-opacity="50%" opacity="0.7"><path d=" M 108.06 30.10 C 110.36 23.80 116.27 20.04 120.75 15.39 C 121.85 22.03 121.58 28.79 120.33 35.38 C 125.69 35.27 131.05 35.28 136.40 35.38 C 135.13 28.81 135.02 22.06 135.97 15.43 C 140.64 19.91 146.21 23.87 148.85 29.99 C 168.14 34.14 186.53 43.48 200.14 57.93 C 212.32 69.78 220.94 85.07 225.47 101.41 C 227.28 108.96 234.76 112.84 239.35 118.56 C 232.73 119.88 225.96 119.41 219.36 118.24 C 219.73 124.45 219.73 130.68 219.23 136.88 C 226.02 136.33 232.84 136.06 239.62 136.82 C 235.13 142.65 227.34 146.44 226.12 154.30 C 218.26 186.61 192.89 213.87 161.41 224.38 C 157.17 225.93 152.53 226.33 148.52 228.43 C 144.06 231.83 140.63 236.38 136.46 240.12 C 135.01 233.64 135.39 226.98 136.66 220.51 C 131.20 220.58 125.75 220.52 120.30 220.38 C 121.54 226.97 121.96 233.73 120.58 240.33 C 117.82 237.80 115.10 235.21 112.54 232.47 C 110.37 230.26 108.22 227.67 105.02 227.02 C 97.96 225.10 90.79 223.25 84.28 219.79 C 75.78 215.33 67.24 210.49 60.47 203.56 C 55.47 198.50 50.15 193.66 46.23 187.68 C 40.13 178.57 34.67 168.81 32.05 158.08 C 30.95 154.66 30.79 150.64 28.09 147.98 C 24.57 144.39 20.85 141.00 17.46 137.27 C 24.12 136.00 30.92 136.41 37.57 137.54 C 37.19 131.12 37.15 124.69 37.62 118.27 C 30.98 119.42 24.18 119.89 17.54 118.51 C 21.44 114.06 26.18 110.38 29.88 105.76 C 32.57 100.08 33.37 93.67 36.10 87.98 C 39.33 81.11 43.31 74.62 47.51 68.31 C 51.85 62.45 57.32 57.57 62.46 52.44 C 67.21 47.61 73.24 44.43 78.97 40.95 C 87.92 35.64 97.86 32.11 108.06 30.10 M 148.07 33.19 C 148.24 35.59 148.41 38.00 148.60 40.40 C 150.99 41.52 153.39 42.62 155.80 43.71 C 158.63 41.89 161.42 40.02 164.15 38.05 C 158.91 36.05 153.52 34.49 148.07 33.19 M 93.11 37.99 C 96.52 40.40 100.57 44.44 105.07 42.05 C 109.05 41.04 108.38 36.34 108.85 33.17 C 103.51 34.45 98.23 36.00 93.11 37.99 M 90.84 38.85 C 90.01 42.33 90.89 45.90 91.37 49.36 C 93.75 47.94 96.12 46.50 98.49 45.06 C 96.49 42.64 94.57 40.10 92.04 38.22 L 90.84 38.85 M 158.85 45.25 C 161.32 46.86 163.80 48.44 166.29 50.01 C 166.73 46.62 167.22 43.24 167.70 39.86 C 167.00 39.46 165.60 38.65 164.90 38.25 C 162.87 40.57 160.86 42.91 158.85 45.25 M 68.39 52.14 C 69.70 55.80 71.07 59.43 72.52 63.04 C 74.97 61.10 77.41 59.14 79.84 57.18 C 76.83 55.08 73.83 52.96 70.88 50.77 C 75.62 52.05 80.43 54.24 85.45 53.51 C 88.31 49.52 88.70 44.42 89.75 39.77 C 81.80 42.28 74.97 47.17 68.39 52.14 M 167.86 39.84 C 168.08 44.71 169.34 49.45 171.33 53.89 C 176.51 53.75 181.56 52.41 186.25 50.21 C 180.48 46.16 174.55 42.21 167.86 39.84 M 116.82 48.85 C 113.39 52.73 112.06 57.99 109.24 62.29 C 97.73 81.18 81.47 97.19 62.32 108.27 C 58.71 110.43 54.63 111.77 51.26 114.30 C 50.21 115.97 50.16 118.05 49.88 119.95 C 49.33 127.11 49.58 134.32 50.69 141.42 C 78.64 154.29 102.22 176.92 115.20 204.92 C 116.18 207.76 119.49 207.77 121.98 208.00 C 128.36 208.12 134.82 207.83 141.09 206.55 C 147.49 191.32 157.48 177.77 169.42 166.43 C 180.00 155.84 192.66 147.51 206.29 141.38 C 207.91 132.29 207.24 122.93 205.72 113.88 C 184.18 104.65 165.91 88.65 152.32 69.70 C 147.53 63.16 144.04 55.83 140.38 48.64 C 132.63 47.60 124.42 46.57 116.82 48.85 M 178.07 57.32 C 179.76 60.05 182.70 61.57 185.29 63.31 C 186.43 60.06 187.53 56.79 188.55 53.50 C 188.51 58.28 188.63 63.06 189.17 67.81 C 194.17 68.52 199.24 68.64 204.28 68.21 C 199.88 61.27 193.50 55.93 187.00 51.03 C 183.95 53.02 180.75 54.84 178.07 57.32 M 55.44 101.23 C 65.97 96.60 75.15 89.37 83.42 81.46 C 91.47 73.11 98.66 63.74 103.45 53.12 C 82.79 63.28 65.31 80.37 55.44 101.23 M 153.13 53.02 C 157.65 62.31 163.41 71.02 170.57 78.49 C 179.35 87.83 189.54 96.11 201.39 101.21 C 191.25 80.38 173.93 63.19 153.13 53.02 M 52.78 68.33 C 57.67 68.65 62.60 68.49 67.43 67.60 C 67.59 62.73 67.62 57.84 67.26 52.97 C 61.85 57.47 56.29 62.11 52.78 68.33 M 50.96 68.11 C 51.56 72.67 54.71 76.15 57.28 79.75 C 59.21 77.29 61.15 74.83 63.09 72.38 C 59.24 70.45 55.17 68.99 50.96 68.11 M 194.01 72.74 C 196.00 75.29 197.98 77.85 199.99 80.38 C 202.06 77.46 204.12 74.53 206.17 71.59 C 204.55 76.38 203.28 81.32 203.16 86.41 C 207.20 88.06 211.40 89.31 215.69 90.19 C 212.70 90.59 209.73 91.05 206.75 91.52 C 208.27 94.24 209.77 96.97 211.30 99.69 C 213.37 97.84 215.35 95.88 217.02 93.65 C 217.47 94.12 217.91 94.59 218.35 95.08 C 215.20 97.73 213.22 101.44 213.04 105.58 C 216.42 106.25 219.83 106.69 223.26 106.94 C 222.33 102.33 220.73 97.86 220.25 93.16 C 219.84 93.08 219.03 92.93 218.62 92.85 C 216.04 83.93 210.88 76.03 205.14 68.82 C 201.38 69.98 197.67 71.28 194.01 72.74 M 39.72 89.88 C 44.52 89.04 49.21 87.66 53.64 85.65 C 52.57 81.04 51.76 76.31 49.79 71.97 C 45.07 77.00 41.71 83.29 39.72 89.88 M 37.62 90.48 C 39.34 94.19 42.44 96.85 45.70 99.17 C 47.23 96.40 48.71 93.61 50.13 90.78 C 45.96 90.50 41.79 90.34 37.62 90.48 M 36.78 95.29 C 35.66 99.14 34.51 102.99 33.34 106.82 C 36.68 106.64 40.01 106.32 43.32 105.84 C 42.72 101.93 40.90 98.41 38.63 95.21 C 38.17 95.23 37.24 95.27 36.78 95.29 M 33.05 148.73 C 34.07 154.03 35.52 159.24 37.70 164.19 C 40.47 159.94 45.77 154.96 42.48 149.57 C 39.33 149.34 36.19 149.03 33.05 148.73 M 212.77 153.05 C 212.37 157.03 215.80 160.13 217.56 163.42 C 215.22 161.52 212.88 159.61 210.55 157.71 C 209.13 160.50 207.82 163.35 206.64 166.25 C 210.53 166.52 214.43 166.71 218.33 166.79 C 220.80 160.83 222.98 154.71 223.97 148.31 C 220.19 149.12 213.90 148.07 212.77 153.05 M 153.26 202.40 C 174.25 192.44 191.80 175.06 201.68 154.01 C 180.77 164.21 163.63 181.62 153.26 202.40 M 55.44 154.28 C 65.10 175.35 82.73 192.41 103.40 202.67 C 93.67 181.63 76.10 164.58 55.44 154.28 M 46.40 157.92 C 43.73 160.20 41.07 162.47 38.39 164.74 C 38.47 165.64 38.55 166.53 38.64 167.43 C 42.52 167.01 46.41 166.61 50.31 166.30 C 49.11 163.46 47.80 160.67 46.40 157.92 M 203.06 171.63 C 203.65 176.76 204.89 181.79 206.88 186.55 C 211.76 180.84 215.30 174.13 218.04 167.17 C 212.93 168.23 207.92 169.72 203.06 171.63 M 39.68 168.40 C 41.85 175.20 45.76 181.25 50.10 186.86 C 51.76 182.15 52.97 177.31 53.77 172.39 C 49.24 170.54 44.51 169.18 39.68 168.40 M 199.54 178.17 C 197.53 180.18 195.92 182.56 194.23 184.84 C 198.33 186.57 202.57 188.00 206.96 188.83 C 204.97 185.04 203.33 180.52 199.54 178.17 M 50.35 188.52 C 54.82 188.82 58.87 186.49 62.98 185.11 C 61.06 182.66 59.12 180.22 57.15 177.81 C 54.70 181.25 52.02 184.60 50.35 188.52 M 189.45 189.39 C 188.72 194.41 188.52 199.50 189.04 204.56 C 195.71 200.91 200.85 194.98 205.03 188.74 C 199.83 188.50 194.61 188.64 189.45 189.39 M 52.68 190.47 C 57.19 195.84 62.17 200.82 67.57 205.30 C 68.65 200.31 68.44 195.19 67.52 190.20 C 62.60 189.34 57.57 189.40 52.68 190.47 M 72.39 194.76 C 70.64 198.75 68.66 202.86 69.06 207.35 C 72.80 205.24 76.28 202.72 79.60 200.00 C 77.22 198.23 74.81 196.49 72.39 194.76 M 177.27 200.08 C 180.89 202.81 184.62 205.43 188.83 207.17 C 188.28 202.67 186.63 198.44 184.75 194.35 C 182.26 196.26 179.77 198.17 177.27 200.08 M 71.84 207.77 C 76.63 212.84 83.32 215.68 89.68 218.26 C 88.87 213.40 87.47 208.68 85.62 204.13 C 80.89 204.66 76.10 205.51 71.84 207.77 M 168.19 218.27 C 174.60 214.94 181.36 211.96 186.66 206.93 C 181.79 205.18 176.78 203.88 171.66 203.15 C 169.59 207.93 167.95 212.99 168.19 218.27 M 91.50 206.95 C 90.64 211.38 89.97 215.98 91.41 220.37 C 94.37 217.55 96.97 214.40 99.44 211.15 C 96.79 209.76 94.14 208.35 91.50 206.95 M 157.82 210.82 C 160.00 213.51 162.23 216.18 164.50 218.81 C 165.57 218.66 166.65 218.52 167.72 218.38 C 167.22 214.49 166.71 210.60 166.28 206.71 C 163.43 208.02 160.61 209.38 157.82 210.82 M 92.73 219.64 C 97.87 222.01 103.36 223.44 108.84 224.75 C 108.53 220.83 109.57 214.69 104.44 213.55 C 99.85 213.37 96.36 217.34 92.73 219.64 M 148.55 215.52 C 148.45 218.60 148.30 221.68 148.18 224.76 C 153.70 223.28 159.33 222.01 164.44 219.38 C 161.33 217.27 158.37 214.73 154.77 213.50 C 152.46 212.77 150.49 214.59 148.55 215.52 Z" /></g>
</g><g transform="matrix(-0.25,0,0,0.25,64,0)">
<g fill="rgb(137,85,0)" stroke="rgb(137,85,0)" stroke-width=".05%" stroke-opacity="50%"><path d=" M 122.72 26.46 C 126.24 26.35 129.76 26.35 133.28 26.46 C 133.27 27.53 133.25 28.61 133.23 29.68 C 129.74 29.75 126.25 29.75 122.77 29.68 C 122.75 28.61 122.73 27.53 122.72 26.46 Z" />
<path d=" M 124.18 31.27 C 126.73 31.27 129.27 31.27 131.82 31.27 C 131.80 32.73 131.78 34.20 131.77 35.66 C 129.26 35.63 126.74 35.63 124.23 35.66 C 124.22 34.20 124.20 32.73 124.18 31.27 Z" />
<path d=" M 124.35 37.15 C 126.76 37.27 129.16 37.26 131.57 37.15 C 131.73 38.59 131.91 40.02 132.13 41.46 C 129.46 41.58 126.79 41.60 124.12 41.55 C 124.20 40.08 124.28 38.61 124.35 37.15 Z" />
<path d=" M 124.21 43.28 C 126.74 43.28 129.26 43.28 131.79 43.28 C 131.78 44.81 131.77 46.34 131.77 47.87 C 129.26 47.87 126.74 47.87 124.23 47.87 C 124.22 46.34 124.22 44.81 124.21 43.28 Z" />
<path d=" M 124.28 49.68 C 126.76 49.66 129.24 49.66 131.72 49.68 C 131.73 51.14 131.74 52.60 131.74 54.05 C 129.25 53.86 126.75 53.86 124.26 54.05 C 124.26 52.59 124.27 51.14 124.28 49.68 Z" />
<path d=" M 124.14 55.73 C 126.69 55.65 129.25 55.65 131.80 55.68 C 131.77 57.16 131.74 58.65 131.71 60.13 C 129.25 60.11 126.79 60.11 124.33 60.14 C 124.26 58.67 124.20 57.20 124.14 55.73 Z" />
<path d=" M 124.26 61.65 C 126.75 61.63 129.25 61.63 131.74 61.65 C 131.74 63.25 131.73 64.85 131.72 66.46 C 129.24 66.46 126.76 66.46 124.28 66.46 C 124.27 64.85 124.26 63.25 124.26 61.65 Z" />
<path d=" M 124.06 68.30 C 126.69 68.14 129.32 68.14 131.95 68.31 C 131.84 69.81 131.75 71.32 131.67 72.83 C 129.22 72.85 126.77 72.85 124.33 72.84 C 124.24 71.32 124.16 69.81 124.06 68.30 Z" />
<path d=" M 124.14 74.47 C 126.71 74.55 129.28 74.55 131.85 74.46 C 131.79 75.92 131.72 77.38 131.67 78.85 C 129.22 78.74 126.78 78.74 124.33 78.85 C 124.27 77.39 124.21 75.93 124.14 74.47 Z" />
<path d=" M 98.29 90.83 C 103.92 85.80 110.76 82.32 118.12 80.70 C 124.70 80.38 131.30 80.38 137.87 80.70 C 145.25 82.31 152.08 85.81 157.72 90.84 C 157.52 92.29 157.31 93.74 157.08 95.20 C 151.41 91.33 145.15 87.86 138.16 87.37 C 132.14 86.33 125.99 85.71 119.96 87.11 C 112.23 87.40 105.14 90.82 98.91 95.19 C 98.68 93.74 98.47 92.29 98.29 90.83 Z" />
<path d=" M 116.51 89.35 C 118.97 88.74 121.49 88.36 123.95 87.73 C 126.66 87.65 129.37 87.64 132.09 87.74 C 134.53 88.36 137.03 88.76 139.49 89.36 C 139.31 109.90 139.67 130.45 138.04 150.95 C 137.45 163.35 136.62 175.73 136.06 188.13 C 135.16 196.07 133.94 203.98 132.74 211.86 C 131.87 218.48 130.04 224.93 129.25 231.56 C 128.64 231.54 127.41 231.49 126.80 231.47 C 124.18 217.05 121.63 202.60 120.01 188.04 C 118.91 168.02 117.71 148.02 116.72 128.00 C 116.55 115.12 116.71 102.23 116.51 89.35 Z" /></g>
<g fill="rgb(55,4,0)" stroke="rgb(55,4,0)" stroke-width=".05%" stroke-opacity="50%"><path d=" M 86.06 28.84 C 87.76 28.58 89.47 28.33 91.17 28.09 C 89.53 29.55 87.24 30.67 86.61 32.94 C 87.99 38.61 92.93 42.27 95.99 46.95 C 99.35 53.57 101.81 61.33 99.65 68.73 C 98.59 72.83 94.89 75.38 92.97 79.01 C 90.00 85.47 90.80 93.47 94.65 99.40 C 97.97 103.18 103.00 105.79 108.14 105.36 C 107.94 115.56 108.50 125.75 109.06 135.93 C 109.04 152.07 112.23 167.98 113.31 184.05 C 110.26 173.91 108.81 163.39 106.91 153.01 C 103.77 141.90 98.41 131.14 89.96 123.12 C 86.69 120.24 83.08 117.54 78.88 116.20 C 72.91 114.62 68.18 109.91 65.13 104.72 C 64.31 101.17 64.45 96.85 67.04 94.00 C 69.93 90.18 76.76 89.36 79.62 93.65 C 78.68 95.95 77.59 98.23 75.72 99.94 C 75.83 97.84 76.15 95.77 76.53 93.71 C 71.79 91.77 68.24 99.18 71.34 102.55 C 72.45 104.60 74.72 104.91 76.82 104.96 C 78.83 102.67 81.54 100.82 82.73 97.93 C 83.63 93.19 81.90 88.52 81.08 83.90 C 79.82 78.02 75.37 73.64 72.44 68.59 C 70.22 64.58 71.78 59.05 75.67 56.68 C 79.00 54.57 81.81 51.60 83.01 47.77 C 83.39 49.99 84.67 52.39 83.55 54.59 C 82.24 56.73 80.02 58.40 79.68 61.04 C 78.78 63.61 80.77 66.20 83.16 66.98 C 88.38 65.45 90.54 59.85 91.58 55.02 C 92.67 49.26 87.60 45.25 85.65 40.35 C 83.46 36.80 84.06 32.33 86.06 28.84 Z" />
<path d=" M 164.83 28.12 C 166.54 28.35 168.25 28.59 169.96 28.84 C 171.94 32.34 172.54 36.82 170.33 40.38 C 168.51 45.02 163.90 48.70 164.31 54.06 C 165.00 59.51 167.62 65.12 173.00 67.32 C 174.84 65.77 177.39 63.80 176.32 61.03 C 175.99 58.14 173.28 56.50 172.18 53.98 C 171.60 51.90 172.61 49.82 172.99 47.78 C 174.21 51.63 177.03 54.60 180.38 56.72 C 184.25 59.09 185.77 64.62 183.55 68.61 C 180.61 73.66 176.17 78.04 174.92 83.92 C 174.10 88.55 172.35 93.23 173.29 97.98 C 174.47 100.80 177.10 102.64 179.12 104.83 C 180.30 104.81 181.50 104.78 182.69 104.75 C 184.07 103.07 186.04 101.42 185.88 99.02 C 185.51 95.96 182.99 92.15 179.47 93.71 C 179.84 95.77 180.17 97.84 180.29 99.93 C 178.55 98.27 177.07 96.25 176.74 93.80 C 178.08 89.90 183.29 90.41 186.36 91.78 C 190.89 94.20 192.13 100.03 190.89 104.68 C 187.63 110.43 182.21 115.19 175.67 116.71 C 161.57 123.23 153.60 138.02 149.27 152.28 C 147.20 162.86 145.87 173.64 142.70 183.98 C 143.60 170.30 146.09 156.75 146.76 143.04 C 146.98 130.47 148.20 117.94 147.86 105.36 C 152.98 105.80 157.99 103.20 161.31 99.44 C 165.21 93.51 166.00 85.45 163.01 78.96 C 161.08 75.36 157.40 72.81 156.35 68.72 C 154.19 61.33 156.65 53.58 160.00 46.96 C 163.07 42.27 168.01 38.62 169.38 32.94 C 168.79 30.66 166.45 29.57 164.83 28.12 Z" />
<path d=" M 110.65 60.63 C 112.67 64.04 113.51 68.22 112.05 72.01 C 110.20 78.69 102.79 80.65 97.65 84.14 C 97.41 82.44 97.13 80.63 98.01 79.05 C 99.38 75.13 104.22 74.70 106.77 71.80 C 110.10 69.12 111.01 64.70 110.65 60.63 Z" />
<path d=" M 144.18 72.65 C 142.47 68.72 143.19 64.22 145.34 60.62 C 145.06 64.46 145.71 68.69 148.78 71.35 C 151.50 74.72 157.10 75.12 158.26 79.75 C 158.90 81.15 158.47 82.68 158.34 84.14 C 153.39 80.73 146.31 78.91 144.18 72.65 Z" />
<path d=" M 55.43 66.28 C 58.60 67.51 61.57 70.98 60.43 74.54 C 59.47 77.91 56.06 79.49 53.90 81.96 C 50.37 85.32 50.91 91.02 52.92 95.04 C 55.11 90.25 57.05 84.64 62.02 82.01 C 65.84 79.35 70.74 80.34 74.95 78.77 C 75.90 81.20 76.76 83.66 77.53 86.16 C 74.03 87.20 70.07 86.80 66.92 88.88 C 64.45 90.19 63.68 93.10 62.43 95.40 C 59.68 100.44 60.56 107.00 63.76 111.64 C 63.26 111.66 62.26 111.69 61.76 111.70 C 64.68 112.66 66.56 115.22 68.99 116.94 C 71.99 119.32 75.78 120.26 79.16 121.94 C 87.89 126.86 95.46 134.29 99.50 143.54 C 102.90 154.07 104.92 165.03 106.54 175.97 C 102.28 171.37 98.59 166.27 94.02 161.97 C 89.49 157.22 84.29 153.14 80.21 147.98 C 82.13 145.36 85.45 144.59 88.37 145.97 C 87.41 147.03 86.44 148.08 85.45 149.11 C 86.47 151.64 87.86 154.79 91.04 154.92 C 95.01 155.76 97.95 151.04 96.58 147.59 C 95.08 143.38 93.60 138.82 90.14 135.79 C 85.85 132.02 80.34 130.21 75.32 127.68 C 69.66 124.84 63.62 122.87 57.83 120.33 C 52.27 118.44 47.61 114.51 44.04 109.93 C 42.14 106.51 40.86 102.72 39.98 98.91 C 39.84 91.76 42.05 84.40 47.13 79.20 C 50.27 76.02 54.80 74.72 57.77 71.34 C 57.02 69.64 56.21 67.97 55.43 66.28 Z" />
<path d=" M 195.83 75.28 C 194.14 71.78 196.95 67.15 200.69 66.66 C 199.54 68.15 197.56 70.78 199.39 72.55 C 202.10 74.99 205.71 76.18 208.37 78.73 C 213.82 83.90 216.18 91.58 216.01 98.95 C 215.12 102.77 213.85 106.58 211.91 110.00 C 209.15 113.53 205.73 116.62 201.79 118.77 C 194.39 122.16 186.60 124.64 179.33 128.33 C 173.75 131.06 167.33 133.15 163.53 138.39 C 161.63 141.43 160.24 144.80 159.26 148.25 C 158.33 151.62 161.33 155.77 165.04 154.91 C 168.24 154.72 169.55 151.50 170.63 148.98 C 169.63 148.18 168.65 147.36 167.67 146.54 C 170.17 144.09 173.91 145.48 175.79 147.98 C 169.84 155.24 162.16 160.87 156.22 168.14 C 154.07 170.84 151.70 173.34 149.47 175.95 C 150.20 171.77 150.56 167.51 151.54 163.37 C 153.36 156.01 154.28 148.35 157.43 141.38 C 161.35 134.27 166.98 128.09 173.87 123.76 C 177.87 120.70 183.13 120.04 187.06 116.89 C 189.21 115.23 191.14 113.28 193.47 111.86 C 193.29 111.46 193.11 111.06 192.93 110.67 C 197.02 103.95 195.03 95.51 190.30 89.72 C 187.01 86.83 182.43 87.26 178.46 86.15 C 179.23 83.66 180.10 81.20 181.06 78.77 C 185.26 80.33 190.13 79.35 193.95 81.99 C 198.98 84.63 200.87 90.33 203.17 95.12 C 204.85 91.19 205.69 85.87 202.53 82.44 C 200.49 79.86 197.16 78.40 195.83 75.28 Z" /></g>


</g></svg>