<svg width="64" height="64" viewBox="0 0 64 64" shape-rendering="geometricPrecision" version="1.1" xmlns="http://www.w3.org/2000/svg"><desc>Created by https://guilds.gw2w2w.com/</desc><rect x="0" y="0" width="64" height="64" fill="none" stroke="none" /><g transform="matrix(0.25,0,0,0.25,0,0)">
<g fill="rgb(135,0,10)" stroke="rgb(135,0,10)" stroke-width=".05%" stroke-opacity="50%" opacity="0.7"><path d=" M 44.04 24.08 C 53.57 18.15 64.75 14.69 75.99 14.64 C 85.33 15.62 94.90 17.82 102.72 23.27 C 109.15 28.14 114.86 34.06 119.10 40.94 C 122.73 46.88 125.87 53.10 129.01 59.30 C 132.19 52.81 135.62 46.43 139.31 40.22 C 147.08 28.36 158.85 18.31 173.22 16.02 C 184.99 12.83 197.45 15.77 208.21 20.92 C 225.38 29.10 237.29 46.07 241.58 64.33 C 243.41 71.45 242.85 78.86 243.53 86.11 C 244.18 92.20 242.81 98.22 242.13 104.24 C 239.88 115.97 236.53 127.56 231.28 138.32 C 222.05 156.46 209.77 173.01 195.07 187.08 C 185.44 196.90 174.58 205.40 163.56 213.57 C 160.24 216.68 156.45 219.17 152.61 221.58 C 144.89 227.64 136.77 233.15 129.02 239.18 C 118.74 231.31 108.18 223.81 97.66 216.27 C 92.37 211.54 86.23 207.90 80.98 203.11 C 69.17 194.01 58.73 183.26 48.87 172.10 C 37.48 158.11 27.59 142.64 21.38 125.63 C 17.58 113.77 14.61 101.53 14.31 89.03 C 15.20 79.22 14.42 69.12 17.60 59.64 C 22.25 45.40 31.21 32.15 44.04 24.08 Z" /></g>
</g><g transform="matrix(0.25,0,0,0.25,0,0)">
<g fill="rgb(26,24,27)" stroke="rgb(26,24,27)" stroke-width=".05%" stroke-opacity="50%"><path d=" M 94.08 55.72 C 105.75 64.35 114.42 76.59 120.00 89.90 C 123.05 96.94 125.08 104.74 130.58 110.39 C 138.94 119.46 155.04 117.78 162.68 108.64 C 165.64 105.91 166.71 101.95 168.57 98.51 C 170.25 93.94 174.45 90.99 176.98 86.94 C 178.20 85.09 177.27 82.97 177.05 81.00 C 178.62 77.77 181.25 75.20 183.47 72.41 C 187.22 72.11 189.64 68.97 192.60 67.03 C 195.79 66.51 198.77 65.18 201.95 64.58 C 200.97 63.52 199.98 62.46 198.98 61.42 C 199.08 60.81 199.27 59.60 199.37 59.00 C 198.74 58.60 197.47 57.80 196.84 57.40 C 197.80 56.77 198.75 56.15 199.72 55.52 C 201.72 56.78 203.73 58.01 205.61 59.45 C 206.01 59.09 206.80 58.37 207.20 58.02 C 209.47 60.49 210.43 63.85 212.83 66.20 C 214.83 68.29 216.02 71.00 217.99 73.12 C 219.26 74.30 218.70 76.18 219.15 77.70 C 221.01 79.87 223.23 81.70 225.15 83.83 C 225.03 84.63 224.79 86.23 224.67 87.03 C 224.25 87.34 223.40 87.95 222.98 88.26 C 222.66 87.71 222.02 86.60 221.70 86.05 C 218.90 85.54 216.11 85.04 213.31 84.54 C 215.51 88.65 216.87 93.47 214.45 97.81 C 212.62 98.76 210.72 99.68 208.59 99.58 C 210.15 110.66 209.35 121.85 209.56 133.00 C 209.77 138.33 208.66 143.56 207.50 148.72 C 206.83 151.59 207.08 154.78 205.53 157.38 C 201.42 163.18 196.82 168.70 191.05 172.93 C 190.49 172.55 189.38 171.78 188.82 171.40 C 183.94 174.86 179.89 179.60 173.90 181.16 C 171.65 185.55 168.37 189.76 163.62 191.55 C 160.87 192.69 160.13 195.79 159.22 198.31 C 158.07 196.47 157.15 193.96 154.86 193.32 C 152.40 192.69 150.58 194.85 148.50 195.69 C 148.95 193.70 149.62 191.78 150.26 189.85 C 148.88 189.54 147.50 189.24 146.12 188.95 C 147.00 187.79 147.86 186.62 148.68 185.42 C 145.92 185.25 143.12 185.18 140.47 184.31 C 134.38 180.85 129.09 176.04 122.76 173.00 C 117.13 167.88 113.18 161.39 109.31 154.93 C 108.15 154.30 106.84 153.97 105.76 153.19 C 105.68 152.12 106.18 151.13 106.49 150.14 C 105.51 148.18 104.54 146.23 103.49 144.31 C 101.44 143.97 99.35 143.99 97.29 143.76 C 95.91 144.95 94.62 146.26 93.09 147.29 C 90.98 144.37 90.49 140.79 90.76 137.28 C 87.08 139.18 83.96 141.88 81.60 145.28 C 81.64 144.10 81.66 142.93 81.65 141.76 C 80.46 139.06 82.93 137.50 84.42 135.65 C 80.40 137.67 75.93 138.68 72.35 141.52 C 69.34 142.63 70.05 146.93 66.80 147.84 C 66.70 144.65 66.98 141.46 67.21 138.28 C 68.92 136.37 70.64 134.46 72.56 132.75 C 66.71 132.03 60.43 135.35 58.03 140.80 C 57.11 142.63 56.04 144.37 54.75 145.96 C 54.33 145.71 53.49 145.20 53.07 144.95 C 52.80 138.69 55.26 132.03 60.92 128.80 C 60.42 128.32 59.41 127.37 58.90 126.90 C 58.63 126.00 58.36 125.12 58.08 124.23 C 54.76 123.83 51.75 122.38 49.30 120.12 C 49.05 119.21 48.55 117.39 48.30 116.48 C 50.39 114.44 53.07 113.25 55.49 111.68 C 53.81 109.21 49.83 107.33 50.64 103.85 C 53.73 102.55 57.10 102.04 60.40 101.62 C 59.68 99.51 59.04 95.81 55.95 96.65 C 50.61 97.77 46.44 102.37 44.68 107.39 C 43.60 113.29 40.51 118.84 41.20 125.00 C 40.34 131.85 46.46 137.15 46.30 143.78 C 42.21 142.15 40.36 137.91 37.92 134.58 C 36.42 132.57 35.18 130.40 33.99 128.21 C 33.82 121.42 32.08 114.76 31.92 107.97 C 32.32 102.42 34.60 97.25 36.92 92.28 C 38.91 88.93 40.53 85.23 43.51 82.60 C 45.34 80.73 47.71 79.49 49.47 77.55 C 50.32 75.18 50.38 72.18 52.80 70.75 C 55.84 67.86 60.14 67.41 63.90 66.00 C 63.06 64.18 61.21 63.98 59.45 63.76 C 59.44 63.10 59.43 61.78 59.42 61.12 C 61.59 59.81 63.94 58.76 66.50 58.58 C 68.70 58.12 70.94 58.10 73.18 58.18 C 75.33 59.04 77.68 58.80 79.95 58.94 C 84.55 59.76 89.10 60.83 93.52 62.35 C 98.07 63.83 100.74 68.22 105.02 70.21 C 101.11 65.56 98.02 60.34 94.08 55.72 M 205.15 74.83 C 205.66 76.03 206.04 77.33 206.95 78.31 C 208.02 77.63 209.07 76.90 209.96 75.99 C 209.84 74.49 208.55 73.68 207.57 72.75 C 206.96 73.27 205.75 74.31 205.15 74.83 Z" /></g>
<g fill="rgb(189,186,185)" stroke="rgb(189,186,185)" stroke-width=".05%" stroke-opacity="50%"><path d=" M 205.15 74.83 C 205.75 74.31 206.96 73.27 207.57 72.75 C 208.55 73.68 209.84 74.49 209.96 75.99 C 209.07 76.90 208.02 77.63 206.95 78.31 C 206.04 77.33 205.66 76.03 205.15 74.83 Z" />
<path d=" M 151.53 194.94 C 153.02 194.14 154.73 193.94 156.19 194.92 C 155.88 199.49 158.19 203.62 159.18 207.97 C 159.89 211.23 162.04 214.05 164.90 215.73 C 168.25 216.19 171.61 215.55 174.87 214.81 C 177.32 212.74 180.65 210.38 183.94 212.11 C 186.29 212.90 187.09 215.37 188.10 217.37 C 185.15 216.07 182.06 214.11 178.79 215.59 C 178.57 216.23 178.11 217.51 177.88 218.14 C 167.59 218.23 157.30 218.09 147.01 218.20 C 143.80 218.35 140.72 217.37 137.71 216.38 C 136.35 216.85 134.98 217.31 133.61 217.74 C 135.35 215.84 137.67 213.09 140.55 214.49 C 145.37 216.48 150.65 215.65 155.72 215.78 C 155.91 213.97 156.11 212.16 156.35 210.36 C 154.68 205.24 153.94 199.81 151.53 194.94 Z" /></g>


</g></svg>