<svg width="64" height="64" viewBox="0 0 64 64" shape-rendering="geometricPrecision" version="1.1" xmlns="http://www.w3.org/2000/svg"><desc>Created by https://guilds.gw2w2w.com/</desc><rect x="0" y="0" width="64" height="64" fill="none" stroke="none"/><g transform="matrix(0.25,0,0,0.25,0,0)">
<g fill="rgb(26,24,27)" stroke="rgb(26,24,27)" stroke-width=".05%" stroke-opacity="50%" opacity="0.7"><path d=" M 14.95 68.96 C 91.24 68.85 167.53 68.85 243.81 68.96 C 243.63 108.66 243.82 148.35 243.72 188.05 C 167.47 188.15 91.22 188.13 14.97 188.05 C 14.82 148.36 14.86 108.66 14.95 68.96 Z"/></g>
</g><g transform="matrix(0.5,0,0,0.5,0,0)">
<g fill="rgb(135,0,10)" stroke="rgb(135,0,10)" stroke-width=".05%" stroke-opacity="50%"><path d="M30.62 18.21l1.87.08-.27.87c2.94 1.69 5.54 3.93 7.85 6.41-.5.39-1.51 1.18-2.01 1.58 2.35 3.27 4.59 6.64 6.67 10.1.6-2.3 1.13-4.64 1.06-7.04.39-.14 1.18-.44 1.57-.58-.66 1.89.55 3.04 2.01 3.99 1.42-3.29 2.65 2.03 4.7.62 1.93.06 1.94-2.47 2.88-3.59-.06 1.96-.98 3.67-2.48 4.92.32.27.95.81 1.26 1.07-1.61 1.01-4.44 1.02-3.71-1.68-1.08-.25-2.16-.48-3.25-.7-3.69-1.64-2.11 6.41-6.1 5.75.52-.66 1.03-1.32 1.55-1.98-2.81-3-4.53-6.81-7.1-10-.86.26-1.73.52-2.6.76-.57-1.5-1.03-3.03-1.68-4.5.27-.73.56-1.46.85-2.18.37 2.12 2.3 3.33 3.65 4.78-1.36-3.57-4.32-5.93-6.72-8.68z"/>
<path d="M61.16 25.68c-2.6-2.82.86-5.86 2.83-7.84-.55 2.67-1.15 5.33-1.54 8.03.38.05 1.13.16 1.51.21-.16-2.24-.14-4.49.12-6.72.92 1.4 1.77 2.84 2.62 4.28-.59.7-1.18 1.39-1.77 2.08.55.29 1.64.87 2.19 1.16-.41 1.63-2.81 1.29-4.12 1.23v.73c1.84-.27 2.29 1.54 2.99 2.75-.43.46-1.31 1.38-1.75 1.84.08 2.94.09 5.88-.15 8.81.45-.34 1.36-1.04 1.82-1.39l.66 4.06c1.3-1.4 2.71-2.09 4.01-.17.97-.31 1.76.2 2.54.67l.74-1.36c-.18.6-.52 1.78-.69 2.37.58-.06 1.75-.2 2.34-.26l-.35 2.08c3.11-1.8 5.97-4.08 9.28-5.54-2.54 2.34-5.18 4.59-7.44 7.22.94 1.34 1.94 2.63 2.82 4-1.52 2.87-4.31-.42-6-1.36-.44 2.45 1.95 3.7 3.93 4.19 2.75.56 5.62.33 8.25-.67.34-4.82.54-9.66.25-14.48l1.96.6c.12 4.31-.07 8.63-.03 12.95.78-1.17 1.54-2.34 2.27-3.54 5.98 2.43 12.29 5.62 18.87 3.28-.89.98-1.78 1.95-2.62 2.97-5.09-.5-10.73 1.61-15.27-1.85-1.69 2.33-4.38 3.44-7.2 3.54.79.91 1.56 1.86 2.26 2.85l.86-.15c-.32-.48-.98-1.43-1.3-1.91 3.21-.31 5.36-3.97 8.74-2.56 3.53 4.32 9.31 3.23 14.23 3.53-2.52 1.36-5.69 1.47-8.04 2.62l-.48.58-.13.06-.36-.45c-1.96-1.72-4.74-1.98-7.01-3.18 1.99 1.32 3.7 2.97 5.25 4.78 2.22 2.72 6.23 1.98 9.02 3.82-3.03.01-6.14-1.06-9.09 0-.53-.14-1.6-.43-2.13-.57 1.42-1.22.52-2.4-1.04-2.63-1.76-2.1-4.43-3.43-4.85-6.41-.11 2.67.71 5.23 1.06 7.85.21-.53.65-1.59.86-2.12.81-1.48 1.09 1.07 1.02 1.68-.37.65-1.11 1.94-1.48 2.59l2.07-.91c-1.44 3.43 2.69 5.76 4.37 8.3-1.54-.69-2.99-1.61-4.16-2.84-.53.44-1.06.88-1.6 1.32 2.66 3.03 5.39 6.07 8.96 8.07 1.91.74 3.89 1.26 5.86 1.81-4.76 1.17-8.26-2.83-12.21-4.63-.46.15-1.38.44-1.84.58.78-3.04-2.65-5.76-1-8.59-.67-.26-2.01-.78-2.68-1.03.29-1.25.54-2.51.77-3.77-1.32.88-2.58 1.83-3.81 2.83.74 2.92 2.49 5.36 5.03 6.97-2.05-.16-4.1-.23-6.15-.08-.6 3.91-2.58 7.47-2.93 11.43.36.23 1.06.7 1.42.93.54 1.54 1.29 2.99 2.11 4.41 3.78-.83 4.28-5.78 1.58-8.12.65-.3 1.33-.53 2.03-.7 3.47 1.36 6.76 3.52 8.86 6.67 2.26 2.91 2.5 6.72 3.23 10.18 1.28-6.44-1.88-14.44-8.57-16.59-2.11-.53-5.15-2.96-6.06 1l.69-3.6c-.57.82-1.15 1.62-1.75 2.41.06-1.08.17-3.24.22-4.32 5.03-.25 9.41 3.12 12.77 6.52 4.71 4.64 6.22 11.51 6.2 17.91-2.25-1-4.08-2.63-6.01-4.08-2.28.66-4.4 1.75-6.51 2.8-.22 2.58 1.8 5.15.42 7.72-.82-1.95-.79-4.89-3.14-5.74-1.51-1.28-3.02.43-4.37 1.02l-.64.07c.36-.41 1.06-1.23 1.41-1.64.83-.54 1.65-1.09 2.47-1.64-1.27-2.24-2.44-4.59-4.33-6.39-1.51.61-3.01 1.23-4.53 1.81 1.04-1.06 2.16-2.03 3.16-3.13.04-2.02-1.54-3.69-2.44-5.41-4.46 6.58-10.02 12.68-17.09 16.48-7.31-3.64-13.09-9.88-17.3-16.78-1.41 1.61-2.46 3.47-2.88 5.58.86.9 1.75 1.76 2.68 2.59l.18.57c-1.44-.68-2.95-1.19-4.45-1.71-1.32 2.05-2.83 4.02-3.71 6.32 1.27 1.21 2.63 2.33 3.91 3.53-1.32-.56-2.61-1.18-3.88-1.81-.65.3-1.94.91-2.59 1.22-.96 1.4-1.5 2.99-1.6 4.7l-.89.05c-.15-2.5.65-4.84 1.21-7.23-2.31-1.49-4.96-2.35-7.55-3.21l-.31 1.72c-.74-.42-1.48-.83-2.23-1.24.46-4.19 1.36-8.72 4.65-11.66 2.65-3.01 6.45-4.38 10.07-5.82l-.17-.37c-5.18.91-10.87 2.82-13.31 7.93-1.47 3.9-2.6 8.7-.95 12.65l-2.98.72c.12-6.07 1.57-12.16 5.34-17.04 3.63-3.52 7.97-6.44 13.02-7.39.4 1.09.81 2.19 1.23 3.29-1.87 1.72-3.69 3.7-4.02 6.34.56 1.74 1.88 3.01 3.54 3.7.91-1.45 2.1-2.82 2.26-4.6l1.65-.1c-.32-.65-.97-1.93-1.29-2.57l.89-.65c-1.02-2.83-1.91-5.7-2.59-8.63-1.91-.27-3.84-.15-5.76-.03 2.63-1.68 5.06-4.31 4.47-7.7-1.08-.67-2.16-1.34-3.24-2 .22 1.19.47 2.36.74 3.54-2 1.24-4.01 2.49-5.91 3.9-1.19.72-2.39 1.43-3.61 2.1 1.37-1.41 3.03-2.6 3.99-4.36l1.12-.11c-.3-.56-.88-1.68-1.18-2.23l2.17 1.14c-.33-.9-1.01-2.72-1.34-3.63.41.41 1.24 1.22 1.65 1.63l.65-.14c-.52-1.13-.93-2.3-1.2-3.51l.32-.42c.36.31 1.08.94 1.44 1.26 1.28-2.24 1.24-4.86 1.71-7.33-1.41 2.86-4.11 4.67-5.87 7.26-.51-.16-1.53-.49-2.04-.66l2.06 2.11c-1.22.34-2.44.7-3.65 1.07l2.5-2.16c-3.42 1.38-7.1 1.58-10.74 1.7 2.5-1.41 5.5-1.31 8.01-2.66 1.77-1.72 3.36-3.62 5.16-5.32-4.64 2.84-10.1 1.93-14.85-.1 3.35-.31 6.74-.15 10.07-.67 1.95-.91 3.6-2.36 5.59-3.19 3.04-1.11 4.56 3.57 7.71 2.28-.68 1.03-1.29 2.11-1.5 3.35 1.19-1.11 2.18-2.41 3.15-3.72-2.93-.05-5.61-1.27-7.52-3.49-.62.41-1.84 1.25-2.46 1.67l.45-1.95c-.53-.09-1.61-.27-2.14-.35.2.14.59.44.79.59l.73.61-.39 1.52c-3.37.18-6.76-.14-10.12.35l.69-1.37c-.64.27-1.9.81-2.54 1.07-.87-1.08-1.79-2.14-2.7-3.19 3.49.9 7.14 1 10.64.11 2.54-1.43 5.44-2.07 8.04-3.38.66.8 1.34 1.59 2.04 2.37-.13-1.62-.25-3.23-.45-4.84-1.33-.21-2.68-.38-4.02-.49-1.57-1.03-2.55-2.64-3.53-4.19l-1.12-.01.98-1.34c-3.07-.38-6.36-1.06-8.22-3.78 2.73 1.3 5.52 3.35 8.63 3.22-.13-2.31.91-5.31-1.12-7.08-.31-.42-.93-1.27-1.24-1.69-.08-1.85-.08-3.7.07-5.54.28 1.9.22 3.82.2 5.74 1.75 1.31 3.54 2.58 5.42 3.72l-2.63.16c.04.8.11 2.41.15 3.21 1.27 1.85 4.27 2.57 4.27 5.16-.81-.88-2.43-2.62-3.23-3.5-.27.36-.53.73-.77 1.11.78 1.4 1.24 3 2.29 4.23 1.42.15 2.85-.04 4.28-.1-.13-.79-.23-1.58-.32-2.37.15-.59.47-1.78.63-2.37l-1.55.49.7-1.78c-.48.37-1.42 1.12-1.89 1.5-1.11-1.95 1.08-2.96 1.44-4.7.38 1.59.63 3.41 2.64 3.6-.19 4.57-.35 9.19.47 13.71 3.99 1.08 9.05 1.9 12.28-1.35.09-.54.25-1.62.33-2.16-1.82 1.09-4.28 3.89-6.16 1.33 1.06-1.33 2.07-2.68 3.07-4.04-2.34-2.53-4.9-4.83-7.45-7.14 3.18 1.35 5.93 3.5 8.81 5.37.62-1.12.6-2.75 1.78-3.51 1.79.37 3.43-.34 4.95-1.21.56.45 1.66 1.35 2.21 1.8l-.04-2.91 1.96.57c-.09-1.26-2.28-2.14-1.84-3.55.36.39 1.09 1.17 1.45 1.55.22-3.48 1.13-7.52-1.6-10.33 1.12-.49 1.8-1.36 2.03-2.61-3.18.21-6.32.92-9.53.85 3.08-.01 5.82-1.46 8.34-3.07m3 17.49l.01.67.67-.01-.01-.67-.67.01m-12.07 3.45c2.38 1.55 4.58 3.35 6.37 5.57-.16 1.92-.13 3.87.48 5.72-1.25 2.79-3.88 4.28-6.64 5.26-2.18 1.47-4.07 3.31-5.9 5.18l2.2.12c.45-.56 1.35-1.69 1.8-2.25 1 1.25-1.15 2.45-1.64 3.53-2.87 3.07-2.81 7.37-3.65 11.22.17.6.52 1.8.69 2.4 1-1.63 1.92-3.31 3.01-4.89.54-3.65 1.14-7.39 3-10.65l.38-.61c1.31-1.28 2.59-2.61 4.12-3.63-.97 1.71-2.09 3.34-3.57 4.66.62 2.47 3.36 4.14 2.74 6.89 1.36-1.13 2.2-2.48.77-3.99.57-.94 1.7-2.8 2.27-3.73-.29 3.16-.3 6.33-.15 9.5-.25.45-3.37 1.28-1.56 2.11 1.31.95 2.12 2.26 2.45 3.94-1.85-.31-2.84-1.8-4.05-2.78-1.53 2.35 1.79 4.12 3.45 5.09-.15 3.73-.14 7.47.06 11.2-.94-1.25-1.86-2.52-2.76-3.8 1.72-1.25.96-2.77-.45-3.67-.84.71-1.68 1.43-2.52 2.14-.87-1.76.3-3.12 1.31-4.45-1.29-1.56-1.63-3.73-3.44-4.86-.77 1.77-2.53 2.53-4.07 3.48 3.97 6.75 9.63 12.75 16.54 16.52 7.25-3.78 12.87-10.06 16.83-17.13-.58-.24-1.76-.73-2.34-.98l-.8-2.2c-1.63 1.45-2.65 3.38-3.94 5.11.77.95 1.53 1.9 2.26 2.89-.48.29-1.45.87-1.94 1.16-.32-2.73-4.27-.85-2.52 1.14 1 1.68-1.31 2.87-1.92 4.23.05-3.57.04-7.15.04-10.73 1.48-1.16 2.97-2.34 4.06-3.9-1.69.3-3.39.64-5.03 1.18.61-1.53 1.95-3.1.4-4.78.59.63 1.76 1.9 2.34 2.54.67.48 1.31.38 1.91-.3-1.11-1.21-2.37-2.25-3.67-3.25-.02-2.95-.01-5.89-.01-8.84l.76.02c.4 1.49 2 3.04.56 4.5-.91 1 .78 1.6 1.21 2.37.25-2.01 1.55-3.48 2.73-5.02.19-1.46-.54-2.82-.83-4.21-.87-.53-1.72-1.06-2.57-1.62 2.62.21 4.7 1.36 4.26 4.46.52-.83 1.02-1.69 1.51-2.54 1.48 1.73 2.91 3.5 4.23 5.35 1.05 2.46 1.89 5.39.23 7.8.88-4.08-1.45-7.45-3.35-10.76-.33.6-.65 1.2-.96 1.8 1.86 3.75.55 9.17 4.51 11.68.5-1.23.94-2.49 1.53-3.69 1.4-4.39-1.56-8.54-4.13-11.83-2.85-3.69-8.98-3.69-10.47-8.52.31-1.85.46-3.71.32-5.58 1.63-2.25 4.06-3.66 5.96-5.61l-2.02.62c-.43-.73-.86-1.47-1.28-2.21-.85.57-2.55 1.69-3.4 2.26l.43-2.03c-1.99 1-2.16 3.18-2.09 5.14l-2-.24c.17.35.52 1.05.69 1.4-.26.28-.78.83-1.04 1.1 2.3.26 2.29 2.61 2.95 4.29.17.41.5 1.25.67 1.67l-.6 3.16c-.49 1.42-.73 2.91-.92 4.41l-1.34-1.1c.08-.69.25-2.06.33-2.75l-.6-.16c-.05.64-.14 1.92-.18 2.56.15 3.58-.42 7.17.24 10.72.38-.07 1.15-.22 1.53-.29-1.6-1.79-.68-4.01-.48-6.09.46.72.92 1.43 1.39 2.14.44 1.78 1.44 3.59.88 5.46l-.44.53c-1.12 1.93-.86 4.17-.83 6.29-1.06.03-2.02.35-2.86.97l3.34-.04c-.26 2.2 1.18 5.63-1.64 6.69-.17-1.72-.24-3.45-.5-5.16-1.17 1.87-.19 4.06-.3 6.1.51-.34 1.51-1.03 2.02-1.38.85 3.73-1.82 6.45-2.89 9.74-1.14-2.49-2.65-4.8-3.51-7.41 1.06-.68 2.12-1.36 3.16-2.07-.82.16-2.44.48-3.25.64-.06-2.56 1.73-4.34 2.94-6.35l-1.04-.26c-.59 1.09-1.2 2.18-1.85 3.25-.12-2-.12-4-.01-6l1.25-1.09c.18.42.55 1.26.73 1.69l.88-.16c.11-.46.32-1.37.42-1.83-.08-.5-.26-1.51-.35-2.02l-1.25.61c.78-1.87 1.3-3.83 1.55-5.84-1.09.49-2.18.99-3.27 1.5.17-2.37-1.34-6.01 1.53-7.26-.02.77-.06 2.31-.07 3.07l1.01.16c-.09-1.05-.16-2.1-.19-3.15-.47-.06-1.41-.16-1.89-.22.26-3.04-.28-6.06-.66-9.06.21-1.74.33-3.48.54-5.22-.38-2.14-.46-4.28-.22-6.44.94 1.37 1.89 2.76 2.97 4.04l-.95-2.42c-.57-1.04-1.28-1.98-1.97-2.93-1.3.34-2.75 1.36-3.99.02-1.16.8-2.36 1.9-3.98.99m11.4-.31c-.73.96.13 3.48 1.56 2.72 1.04-.99-.15-3.36-1.56-2.72m-8.89 7.72c-.7 1.27-1.35 2.57-1.95 3.88-1.73.88-3.62 1.23-5.54 1.32-3.89 3.76-5.69 9.68-4.73 14.95.89-4.26.74-9.43 4.37-12.48 1.63-1.67 4.16-1.67 6.06-2.89 1.37-1.2 1.35-3.13 1.79-4.78m17.85.09c.24 1.23.49 2.47.71 3.71 2.06 2.32 5.68 1.96 7.63 4.4 3.13 3.1 3.01 7.91 3.7 11.97 1.27-5.25-.77-11.22-4.6-14.97-1.92-.08-3.81-.45-5.54-1.31-.6-1.28-1.23-2.55-1.9-3.8m-10.66 3.84c1.41-.35 1.39-3.11-.03-3.44-1.64.26-1.73 3.32.03 3.44m2.42.22c-.58 1.63-.05 2.17 1.59 1.63.58-1.63.05-2.17-1.59-1.63M46.05 68.84c-.86 2.25-1.77 4.48-2.63 6.72.41 1.54.68 3.14 1.45 4.56.03-3.66 0-7.69 2.84-10.47-.55-.27-1.11-.54-1.66-.81m18.31 7.51c-1.63 2.99 3.35.2 0 0m-2.26 16.7c-1.59 3.01 3.2.29 0 0m2.03.05c-1.51 3.16 3.18.25 0 0m-27.81 2.67c-.15 2.37-1.66 4.14-3.06 5.9.67.38 1.35.77 2.02 1.15 1.14-1.83 2.37-3.61 3.41-5.49.5-1.36-1.68-1.01-2.37-1.56m51.1.76c1.16 2.26 2.39 4.49 3.92 6.52.42-.38 1.26-1.13 1.68-1.5-1.44-1.66-2.55-3.54-3.05-5.7-.63.17-1.91.51-2.55.68zM91.98 24.85c1.66-.02.75 2.66-.58 2.47-1.51-.28-.54-2.4.58-2.47z"/>
<path d="M94.25 37.52c1.65-.97 3.26-2.02 4.9-3.02-1.96 2.03-1.97 5.45-1.51 7.95.9-.02 2.7-.05 3.6-.06-1.18.28-2.35.55-3.52.83l1.4 1.83-2.08-.84.52 1.16c-.63.76-1.21 1.56-1.74 2.4-.35.13-1.07.4-1.43.53-1.52.48-3.06.88-4.53 1.51-.27-1.05-.57-2.09-.9-3.12l.53-.07c.96 1.9 3.22 1.38 4.92 1.64.58-1.59 1.11-3.2 1.74-4.77l-1.91.24c.68-1.84 3.35-3.23 2.58-5.42-.64-.2-1.93-.6-2.57-.79zM44.87 41.67c1.86-1.6 2.95-3.79 4.17-5.86-.29 1.34-.69 2.64-1.09 3.95l-2.85 2.37-.23-.46zM82.23 42.29c-2.29-1.29-4.68-3.44-4.02-6.34.55 2.57 2.53 4.31 4.02 6.34z"/>
<path d="M89.52 42.18c.54-1.16 1.1-2.31 1.7-3.44l.18.53c-.63 1.31-.15 2.06 1.45 2.25-.41.76-.82 1.53-1.22 2.3-.53-.41-1.59-1.23-2.11-1.64zM93.86 43.61l.38.12.16.34c-.8 1.21-2.01 3.01-3.62 2.91.09-1.53 1.93-2.54 3.08-3.37zM108.37 45.14c.95-.33 1.9-.66 2.85-.98-1.51.74-3.16 1.62-3.6 3.39-1.22 1.47-2.35 3.01-3.57 4.49.67-1.45 1.4-2.86 2.13-4.27-4.12-.22-4.7 6.2-9.16 4.93-.53-3.55 3.95-.42 4.67-3.15 1.35-2.88 5.6-1.13 6.68-4.41zM18.82 44.6c1.27.87 2.6 1.71 3.53 2.96 1.09.11 2.17.24 3.26.39 1.1 1.55 2.14 4.75 4.16 2.08.53.73 1.59 2.18 2.13 2.9-1.8-.08-3.72-.38-4.99-1.8-1.54-1.31-2.14-4.17-4.98-3.08.61 1.22 1.14 2.5 1.99 3.58l-1.35.24c-.23-1.89-1.04-3.64-2.31-5.05-.36-.56-1.08-1.67-1.44-2.22zM28.09 48.62c.92-1.64 3.72-.13 4.85.78-.9 1.6-3.6-.18-4.85-.78zM94.39 48.3c2.06 1.53 4.35-1.27 6.67-.09-.88.38-1.77.75-2.67 1.1-1.42.75-3.69.66-3.64 2.87l-.95-.25c1.38-1.12 1.57-2.33.59-3.63zM79.79 51.32c2.06.85 4.02.74 5.23-1.35-.02 1.64-.02 3.28-.03 4.92-1.87-.97-3.7-2.07-5.2-3.57zM41.82 50.58c1.25 1.53 2.97 1.43 4.65.79-1.54 1.41-3.12 2.86-5.2 3.38.22-1.39.41-2.78.55-4.17zM35.19 75.44c.76-.28.76-.28 0 0zM23.74 84.78c4.81-1.81 8.07-5.71 11.45-9.34-.67 2.07-1.25 4.16-1.37 6.33-.43-.22-1.27-.66-1.69-.89-3.59 1.81-7.29 6.08-11.59 4.49.8-.15 2.4-.45 3.2-.59z"/>
<path d="M48.16 30.25l.65-.01.01.65-.64.01-.02-.65z"/></g>
<g fill="rgb(189,186,185)" stroke="rgb(189,186,185)" stroke-width=".05%" stroke-opacity="50%"><path d="M31.14 17.79c2.94 4.47 7.72 8.63 7.61 14.35-.82-1.83-.66-4.16-2.43-5.46-1.89-2.87-3.95-5.66-5.18-8.89zM93.72 20.64c.58-1.06 1.2-2.09 1.83-3.12.38 2.52-1.81 4.07-2.84 6.08-.64.94-1.24 1.9-1.81 2.89-.43.49-1.28 1.48-1.71 1.97.35 1.02-.03 1.97-.42 2.89-3.44 1.47-5.48 4.96-5.49 8.66l2.97 1.28c.03 2.66.12 5.32-.08 7.98-1.78-.25-2.32 1.42-3.12 2.63-.84-.17-2.54-.5-3.39-.67 1.5 1.58 3.35 2.71 5.26 3.73.09-1.59-.13-3.24.33-4.79l.51-.17c.79 1.8.13 4 .23 5.95-3.19 1.18-6.79 1.43-9.97.09-1.5-.4-2.2-2-2.23-3.43 1.88 1.13 4.35 3.93 6.26 1.25-.95-1.28-3.14-2.53-2.62-4.39 1.93-2.16 4.05-4.24 6.54-5.76-1.85-2.77-5.03-4.46-5.89-7.9-.62 2.05.86 3.6 1.85 5.2 1.14.72 2.22 1.53 2.73 2.83-2.69 1.09-5.01 2.88-7.49 4.35l.59-2.11-1.73.08.32-1.79c-.19 0-.56-.01-.74-.01l-.24 1.44c-1.5-.94-3.14-1.58-4.67-2.45l-1.98 1.31c-.33-1.41-.68-2.81-1.08-4.19-.36.47-1.06 1.4-1.41 1.86.19-2.96.18-5.94.1-8.9 2.14-1.24 1.2-3.14.44-4.96l-1.77.68v-1.16c4.47-.16 8.95.24 13.26 1.51.57-.05 1.71-.13 2.29-.18.63.56 1.26 1.12 1.88 1.69-.88.72-1.79 1.42-2.71 2.1l-.75.22c-1.32-.84-1.58-2.63-2.64-3.75-1.06.58-1.96 1.35-2.68 2.31.56-.32 1.67-.95 2.22-1.27.74 1.07 1.85 2 1.78 3.47-1.47.01-2.94 0-4.41-.05-.74-1.39-1.45-2.8-2.22-4.17.3 2.23 1.17 4.29 2.96 5.72-.75.79-2.56 2.03.06 1.48-.1 1.62-1 4.09 1.06 4.95 1.03 1.08 2.25.22 3.01-.66-1.48 1.96-3.05.02-4.25-.91.31-1.82.29-4.09 2.81-3.62-1.38-3.42 4.07-1.23 5.26-3.66-.46 2.7 1.35 4.73 2.9 6.66.45-3.07.26-7.05 3.6-8.52 2.38-3.51 4.85-7.12 7.29-10.67zM63.46 18.86c.26 2.52.37 5.05.5 7.57-2.56-1.5-.31-5.19-.5-7.57zM53.01 28.64c3-.35 6-.73 9.02-.69-.03.51-.11 1.52-.15 2.02l-1.87-.16c2.54 3.06 2.3 7.07 1.76 10.76-.41-.41-1.25-1.24-1.66-1.65.23.54.68 1.61.91 2.14-.43 1.06-.85 2.13-1.25 3.21l-.24.65c-.69-3.75-4.28.09-5.87 1l-.26-1.59c-.19.02-.56.07-.75.09.08.42.23 1.28.3 1.71l-1.67-.03.57 2.07c-1.83-1.16-3.66-2.3-5.48-3.45-1.21-.81-2.48-1.54-3.85-2.05 2.44 2.49 5.22 4.64 7.53 7.26-1 1.35-2.02 2.68-3.1 3.98 1.8 2.3 4.28.42 5.78-1.19.21.7.65 2.1.86 2.8l-1.04-.41c-3.51 2.42-8.16 2.33-11.96.66.77-.49 1.54-.99 2.31-1.49 1.29-.87 2.48-1.89 3.69-2.87-2.04.75-4.02.27-5.2-1.61-.05-.97.01-1.94.05-2.9-.22-.46-.67-1.37-.89-1.83-.04-1.29-.07-2.58-.11-3.87 4.62-.33 5.43-5.26 7.74-8.27l.12 1.47c1.21.18 2.42.38 3.62.62-.07 1.2.59 2.05 1.49 2.74.59-.31 1.77-.95 2.37-1.27-.32-.23-.95-.69-1.26-.93 1.83-1.34 2.71-3.34 2.23-5.57-.31 2.7-1.99 5.4-5.11 3.94-2.27-2.94 1.58-3.18 3.51-2.6-.75-.78-4.89-1.85-2.14-2.69m-8.92 13.5c3.05-.59 4.91-3.55 4.99-6.52-1.25 2.49-2.68 4.88-4.99 6.52m10.38-2.9c-.7 1.43-2.65 2.06-3.19 3.25 1.67.93 4.07-.87 4.13-2.66-.24-.15-.71-.45-.94-.59z"/>
<path d="M49.59 29.91c.33-.25 1.01-.75 1.35-1 1.06 1.56-.69 3.74-.4 5.5-1.33-1.43-3.66-2.37-3.4-4.67l1.36 1.9c.37-.57.73-1.15 1.09-1.73zM19.04 32.24c.73-.75 1.46-1.5 2.18-2.26.74-.01 2.22-.04 2.96-.06.69 1.3 1.28 2.69.9 4.19-.78-.09-2.33-.27-3.11-.35.64-.31 1.92-.93 2.56-1.23-.48-1.18-2.15-3.06-3.32-1.39-2.82 1.52-.77 5.27.69 7.01-2.4-1.08-2.77-3.63-2.86-5.91zM103.21 33.81c-.66-1.42-.01-2.69.77-3.87.78 0 2.35.01 3.13.02.6.72 1.2 1.45 1.8 2.17-.01.79-.01 2.37-.01 3.16-1.28 2.71-5.33 2.34-6.21 5.3-2.83.16-3.11 3.81-1.89 5.76-.54-.52-1.63-1.56-2.18-2.07-1.34.5-2.9.74-3.85 1.93-.96 1.78 1.5 2.03 2.61 2.37-2.6-.5-4.87.44-6.53 2.42 1.8-2.31 2.88-5.51 5.77-6.67 1.69-.55 1.75-2.84 3.43-3.4 1.02-.82 3.4-.76 2.79-2.72.81-2.11-1.66-3.05-2.78-4.31 1.73.77 3.73 1.58 3.2 3.98 1.42-.41 2.86-.8 4.22-1.39 1.12-1.62.73-3.55.35-5.33-1.41-.51-4.65-1.06-3.79 1.47.51.31 1.54.93 2.05 1.24-.96.06-1.92.04-2.88-.06zM40.03 31.08c3.79.16 3.74 4.78 3.25 7.53-1.14-.94-.42-2.44-.54-3.69-1.14-1.11-2.21-2.29-2.71-3.84z"/>
<path d="M24.9 37.94c.06-1.83.97-3.5 2.86-3.86 1.34.76 1.91 2.11 1.94 3.59-.66-1.18-1.36-2.35-2.09-3.49-.65.88-1.95 2.62-2.6 3.5 1.4 2.45 4.82 3.44 5.25 6.37 1.31.4 2.59.9 3.8 1.55-1.7-.4-3.39-.91-5.09-1.32.76.89 1.6 1.69 2.53 2.41l-3.42-2.14 1.51 4c-.65-1.02-1.28-2.05-1.94-3.05.73-1.83.02-3.68-.69-5.37l-1.58 1.16c-.67-1.47-1.32-3.14-2.99-3.71l-.02-.27c.63.16 1.89.47 2.53.63zM64.17 43.16l.67.01-.01.67-.66-.01v-.67zM55.25 46.17c.62.05 1.84.14 2.45.18.39-.06 1.15-.18 1.53-.25l1.16-.19c-.07.37-.19 1.11-.26 1.48-.61 1.94-.18 3.93-.05 5.89l2.09.04c-.53.11-1.61.31-2.14.41.01 1.61-.02 3.23-.07 4.84-1.96-1.59-1.51-4.11-1.3-6.29-1.5-2.1-4.09-3.42-5.38-5.46l1.15-.28.82-.37z"/>
<path d="M67.8 47.38c1.21-.82 2.43-2.39 3.98-1.26l.78.49 1.07.41c-1.43 1.88-3.75 3.27-5.24 5.26.26 1.87.11 3.73-.18 5.58.48 1.71 1.98 2.85 3.05 4.19 1.12-.96 2.24-1.93 3.4-2.85-1.04-1.12-1.8-2.4-2.28-3.85.26.03.78.1 1.04.13.19.57.56 1.72.75 2.3 1.7 1.07 3.64 1.42 5.63 1.4 3.65 3.51 5.68 9.1 4.7 14.08-.38-5.71-2.32-12.83-8.94-13.89-.9.95-1.83 1.88-2.78 2.79 4.35 2.32 8.36 5.88 9.62 10.84-2.32-1.41-2.72-5-5.26-5.88-.55 1.36 1.1 2.16 1.62 3.24 1.82 2.18 2.25 5.02 2.57 7.74l.45-.01c.45-1.97-.3-4.26 1.2-5.91-.32 2.2.92 5.23-1.04 6.94-.1.74-.3 2.21-.39 2.94-2.06-1.47-3.26-3.95-3.33-6.45-.23-3.96-2.34-7.39-4.02-10.86-1.12-.31-2.26-.52-3.41-.62.81.51 1.64 1 2.48 1.48 1.09 2.33 1.51 5.34-1.17 6.75-.1.64-.28 1.94-.37 2.59-1.47-1.11-2.26-2.37-.45-3.69-.57-1.14-1.09-2.29-1.58-3.46l-.91.23c.19.35.56 1.05.74 1.4-.86 2.38-.58 4.98-.44 7.45 1.24 1.28 3.25 2.11 3.31 4.14.09 2.13-2.14 3.05-3.54 4.19-.01 3.66 0 7.33.04 10.99 1.69-1.85 3.42-3.88 1.32-6.13 1.41-.92 2.58-.67 3.5.75 2.34-1.26.74-3-.62-4.26 1.19-1.43 1.96-3.2 3.37-4.45 1.1.9 2.47 1.78 3.26 2.84-3.47 7.04-9.32 12.87-16.13 16.78-7.15-3.4-12.79-9.62-16.68-16.42 1.45-.9 3.25-1.47 3.69-3.34.61.43 1.23.87 1.84 1.31.31 1.33.93 2.48 1.86 3.46-.7.84-1.41 1.66-2.13 2.48.29.45.88 1.33 1.18 1.78.73-.65 1.45-1.31 2.16-1.99 1.45.93 2.14 2.51.36 3.69.91 1.3 1.91 2.54 2.98 3.7.05-3.44-.67-7.02.27-10.38 3.14 2.47-.64 8.56 2.93 11.17l2.46.08c-.29-.77-.87-2.29-1.16-3.06l-1.05.58c-.26-.56-.78-1.66-1.04-2.22 1.49.22 2.97.46 4.46.7l-1.4 1.93c.34.45 1.04 1.34 1.38 1.78.98-2.78.78-5.74 1.14-8.62-.99 1.5-1.84 3.1-2.97 4.51.71-2.46.66-5.17-1.13-7.11l-.31 2.86c-.31-.76-.92-2.27-1.22-3.03-.57-.08-1.7-.23-2.26-.31-.97-.47-1.93-.95-2.88-1.44-1.44-1.73-1.18-3.83.01-5.61.56-.28 1.69-.84 2.25-1.12 1.1-1.62-1.34-2.82-2.48-3.44l-1.03 1.57c.23-.57.7-1.69.93-2.25-.93-1.31-2.31-2.39-2.75-3.99.16-2.11 2.05-3.4 3.34-4.84-4.65-.04-8.73 3.86-10.33 8.01.16.16.48.49.64.65 2.1-2.36 3.25-5.58 6.25-7.11-.8 2.47-2.74 4.38-3.24 6.95-.8 1.91-.35 4.07-1.02 6.01-1.3 1.45-1.81 3.33-2.75 5-1.99-3.45 1.98-7.52-.9-10.76.06 2.41.02 4.82-.12 7.23-.62-1.47-1.03-3.01-1.45-4.54 1.85-6.11 5.96-12.03 12.41-13.78 1.41-.67 2.42-4.66 3.94-2.74.46 3.62.96 7.33.15 10.95-.44 2.3.85 4.54.44 6.86.29-.17.88-.5 1.17-.67.04.66.11 1.98.14 2.64l-1.42-.82c.21 2.02.05 4.02-.49 5.99 1.43-1.52 2.56-3.34 2.75-5.47.15 1.11.28 2.23.41 3.34-.69.77-1.38 1.53-2.07 2.3.81.19 2.43.56 3.24.74.58 1.34 1.14 2.69 1.79 4.01.05-2.95.06-5.9.03-8.85l-.56-.87c-.68-1-1.34-2.01-1.87-3.1l-1.54 1.41.78-2.46-1.83.98c.76-2.32 1.01-4.74.58-7.15-.52-2.72 3.19-3.86 2.71-6.73.5-.66.99-1.33 1.47-2.01-.57 1.82-.64 3.75-1.21 5.57l.32.68c-.66.09-1.99.29-2.65.38.24 3.24.08 6.87 2.4 9.44.36-2.07 1.07-4.06 1.55-6.1l-.93-.09c.05.51.14 1.53.19 2.04l-1.35.02c.13-1.37.26-2.74.37-4.11.33.29 1 .87 1.33 1.16.37-.98.76-1.96 1.16-2.93l-1.6.51c1.46-2.48 1.59-5.4 2.35-8.11-.19-.43-.58-1.3-.78-1.73-.32-3.21.18-6.42.99-9.52m-11.85 24.1c.75.91 1.53 1.81 2.32 2.7.05-2.17.1-4.33.35-6.48-1.15 1.06-1.92 2.43-2.67 3.78m10.39 7.5l.5-.09c.58-2.02 1.12-4.06 1.12-6.18-1.78 1.6-1.32 4.15-1.62 6.27m-10.15 2.76c.79.54 1.66.8 2.6.77.21-1.13-.5-2.38-1.03-3.37-1.25-.41-2.3 1.62-1.57 2.6m13.16-2.65c-.46 1.08-1.11 2.26-1.17 3.42.97-.01 1.87-.28 2.71-.82.8-.92-.28-3.17-1.54-2.6m-7.17 19.28c.3.32.91.97 1.22 1.29.23-.31.68-.93.91-1.24-.8-.97-1.51-.99-2.13-.05zM23.5 52.56c1.35.23 2.69.43 4.04.62l-1.04 1.41c2.06.19 4.05.79 6.12.97l-.51 1.61 3.51-1.04c1.82 2.06 4.35 3.28 7.1 3.46-1.02.87-1.41 1.91-1.17 3.14-.54.93-.89 1.99-1.66 2.77-1.61.01-3.22-.08-4.82-.27.9 1.26 1.61 2.65 2.02 4.14-1.51 1.12-5.57 2.72-3.7 4.98-.97 1.65-.87 3.58-.91 5.42-.27-.19-.8-.57-1.07-.75.51-1.02 1.86-3.74-.04-3.85-.28.6-.85 1.79-1.13 2.39-2.01-.01-4.06-.12-5.93-.96 1.11-1.67 3.12-2.35 4.87-3.15-1.43 1-2.87 1.99-4.32 2.96 1.81.54 3.69.63 5.53.2-.66-2.07 1.25-2.85 2.36-4.01-.74-.31-2.22-.94-2.96-1.25 1.3-.34 2.59-.71 3.9-1.02.41-.76 1.22-2.26 1.62-3.02-.33-.74-.67-1.48-1-2.22-3.11 4.57-9.11 4.85-14.08 4.45 3.62-.32 7.51-.13 10.6-2.44 2.29-1.81 5.44-3.49 5.63-6.75.86.87-.31 3.44.15 4.59 2.02.27 2.95-1.78 4.43-2.7l-.82-.74c.25-.3.73-.92.97-1.22-2.23-.32-4.01-1.74-5.98-2.7-2.13-.09-3.95 1.03-5.61 2.21.82-1.32 1.7-2.6 2.62-3.85-3.07-.68-4.23.24-3.48 2.77l-3.67-.28c.67 1.81 3.12 1.35 4.57 1.84-.26.51-.77 1.53-1.03 2.03.88-.02 2.64-.08 3.53-.11-1.31.74-2.62 1.48-3.96 2.15-.16.35-.48 1.03-.64 1.37-.68-2.56-3.82-1.95-5.74-3-1.59 1.41-3.32 2.76-5.52 2.97 1.95-.63 3.65-1.74 4.99-3.29 2.62.22 7.23 2.6 7.63-1.56-2.43 1.13-5.11-.19-7.44 1.22.68-.78 2.04-2.35 2.72-3.13-.92-.03-2.76-.1-3.68-.13-.68-.58-1.33-1.19-1.97-1.8-2.87.92-7.46 1-8.34-2.6 2.16 2.96 5.69 2.61 8.86 2.11l.34-1.87c.88.83 1.95 1.61 2.29 2.84 2.07.58 4.15.2 6.08-.64-.05-.44-.17-1.3-.23-1.74l-2.35.95c-.07-.74-.19-2.23-.26-2.97-.38.05-1.15.16-1.53.21.03-.18.08-.54.11-.72zM100.96 53.01c1.36-.1 2.75-.41 4.11-.11-.51.09-1.54.29-2.06.38.01.61.02 1.83.02 2.43-1.69-.81-2.64-.45-2.87 1.09 1.57.56 3.18.88 4.85.97.3-.35.89-1.04 1.18-1.39.78 2.53 3.64.74 1.55-1.69 1.67 1.57 3.85 2.34 6.01 2.95-1.83.25-4.03-1.16-5.48.49-1.16.91-2.82.25-4.1.93 1.27 3.21 4.47 5.35 7.64 6.6-2.15.12-4.47-.68-5.34-2.83-1.83.56-3.72.91-5.62 1.16.19.48.58 1.42.77 1.89-1.32-1-2.66-1.99-3.95-3.04-1.67.04-3.17-.66-4.63-1.39 1.46.04 2.91.27 4.37.18 1.65.93 6.74 3.5 6.28-.14-1.93-.15-3.87-.26-5.76-.72.85-.4 2.53-1.2 3.38-1.59l-.06-.61c-2.38.15-4.76.04-7.02-.72-3.26-1.5-5.18 2.65-8.37 2.37 1.09 1.21 1.57 3.35 3.42 3.61 1.92-.11.87-2.57.99-3.87.39 1.13.78 2.25 1.17 3.38 4.09 3.94 9.45 6.68 15.29 6.17-2.28.28-4.58.06-6.85-.21-3.18-.65-5.57-2.94-8.43-4.27l.95 2.54c.29.22.88.67 1.18.89l-.8 1.4c1.82.93 4.61.57 5.63 2.66-1.53-.61-3.05-1.22-4.57-1.85.4 1.01 1.2 3.01 1.6 4.02 1.5-.27 3-.56 4.46-1.04 1.11.65 2.18 1.41 3.06 2.37-.32-.21-.96-.61-1.28-.82L99.76 74c-1.27.35-2.29 1.41-3.6 1.57-1.87-1.41-2.1-4.17-4.07-5.55-1.66-.89-1.19-2.93-1.33-4.45-3.18 1.11-3.99-2.38-4.97-4.54-.51-.48-1.02-.95-1.54-1.43 2.77-.07 5.32-1.27 7.1-3.39 1.52-.05 6.18 3.04 4.21-.75 1.86-.36 7.23 1.23 5.4-2.45m-3.6 3.74v.95l.86.47.55-.46c-.14-.33-.41-1-.55-1.33l-.86.37z"/>
<path d="M53.59 55.52c.33-.04.98-.11 1.31-.14l-.93.32c.69 3.33-3.21 3.97-5.47 4.76-4.85 2.36-5.2 8.22-6.13 12.86-.71-4.4.8-9.08 3.38-12.64 1.11-1.93 3.39-1.6 5.27-1.72 1.04-1 2.18-2 2.57-3.44zM86.12 84.48c4.63.68 9.69 2.02 12.69 5.89 2.44 3.73 3.32 8.37 2.87 12.77-.67-4.77-1.8-9.83-5.54-13.2-2.76-2.77-6.55-3.9-10.02-5.46zM29.04 88c2.65-1.77 5.82-3.34 9.09-2.83-4.01 1.13-7.84 3.13-10.44 6.48-2.87 3.06-3.39 7.37-3.76 11.36-.86-5.37.36-11.75 5.11-15.01z"/>
<path d="M62.26 89.37h.77c-.05.43-.14 1.27-.19 1.69h-.72c.03-.42.11-1.27.14-1.69z"/></g>
<g fill="rgb(189,186,185)" stroke="rgb(189,186,185)" stroke-width=".05%" stroke-opacity="50%" opacity="0.3"><path d="M86.95 25.29c2.99-3.05 6.39-5.66 9.73-8.31-1.24 4.16-3.03 8.14-4.01 12.37-.59-.33-1.78-1-2.37-1.34-.65.79-1.29 1.59-1.95 2.37-1.59 2.8-3.46 5.44-5.27 8.1.59.83 1.17 1.67 1.73 2.53-2.88-1.57-5.62-4.44-4.81-7.98-1.49 1.58-3.64 1.87-5.67 2.25.16.37.49 1.11.65 1.48-4-.94-2.66 6.94.85 4.87-.13.28-.39.83-.52 1.11-2.84.76-2.25-2.89-4.27-3.49.51-.45 1.02-.91 1.51-1.38-.5-.44-1.52-1.32-2.02-1.76l1.47-.2v-.86l-.96-.06-.43-.46c-.75-1.44-1.25-3-1.58-4.59.83 1.33 1.59 2.69 2.34 4.06 1.43-.01 2.85-.04 4.28-.07-.35-1.2-.73-2.42-1.53-3.4-.63.35-1.9 1.04-2.54 1.38.84-.55 2.51-1.67 3.35-2.23-1.56-.62-3.2-.99-4.84-1.31 1.62.16 3.23.14 4.84-.06.01.21.02.63.03.84 1.41.18 2.83.39 4.24.62.11.6.32 1.78.42 2.38.06-.71.16-2.11.22-2.81 2.37 1.73.42 5.52 2.55 7.75 1.39-2.74 3.12-5.28 4.87-7.79 1.58-1.37.92-2.71-.31-4.01m5.03-.44c-1.12.07-2.09 2.19-.58 2.47 1.33.19 2.24-2.49.58-2.47m-15.23 8.16c1.45-.44.92-2.83-.4-3.08-.85.73-.81 2.7.4 3.08zM102.37 42.01c-.13-1.78 2.68-3.05 4.2-2.59-.34 1.37-2.71 3.37-4.2 2.59zM107.45 51.22c1.01-.87 3.32.41 2.63 1.77-1.05 1.02-3.29-.42-2.63-1.77z"/>
<path d="M30.38 27.16c1.21-.91 1.93-.7 2.16.64-1.21.91-1.93.69-2.16-.64z"/>
<path d="M95.56 27.03c1.39.31 3.5-.7 4.29.96 1.1 1.24.85 2.99 1.04 4.51-.83-1.32-1.59-2.68-2.34-4.04-1-.47-2-.95-2.99-1.43zM116.33 41.35c.81.3 1.62.6 2.42.9L117.61 46c-.29-1.06-.57-2.13-.87-3.19-2.74 1.75-4.88 6.89-8.62 5.28l-.5-.54c.44-1.77 2.09-2.65 3.6-3.39 1.75-.86 3.46-1.78 5.11-2.81z"/>
<path d="M52.31 30.12c3.06-1.51.18 3.28 0 0z"/>
<path d="M54.43 39.16c1.6.81.03 3.83-1.66 3.71-3-.01 1.07-2.73 1.66-3.71z"/>
<path d="M40.19 40.79c.24 2.16.45 4.34 1.23 6.39-.26.38-.79 1.13-1.06 1.51.4.22 1.19.66 1.58.88l-.12 1.01c-.14 1.39-.33 2.78-.55 4.17-.18.34-.53 1.01-.7 1.34-.82-4.52-.66-9.14-.47-13.71l.09-1.59z"/>
<path d="M11.43 42.1c1.38-.67 3.46.44 3.56 2.01-.11.16-.33.47-.44.63-1.18-.38-3.19-1.24-3.12-2.64z"/>
<path d="M31.88 43.88c.24-.38.5-.75.77-1.11.8.88 2.42 2.62 3.23 3.5l-.43.19c1.01.21 1.87-.27 2.68-.82.09.79.19 1.58.32 2.37-1.43.06-2.86.25-4.28.1-1.05-1.23-1.51-2.83-2.29-4.23z"/>
<path d="M14.99 44.11l3.19-.48c.16.25.48.73.64.97.36.55 1.08 1.66 1.44 2.22v.93c-.19.38-.58 1.13-.77 1.51-1.8-1.08-3.65-2.42-5.87-1.73l.13-.4.8-2.39c.11-.16.33-.47.44-.63z"/>
<path d="M66.14 50.36c-.07-1.96.1-4.14 2.09-5.14l-.43 2.03c-.84 3.14-1.23 6.41-1.06 9.66-.66-1.68-.65-4.03-2.95-4.29.26-.27.78-.82 1.04-1.1-.17-.35-.52-1.05-.69-1.4l2 .24z"/>
<path d="M13.62 47.53c.03-.1.1-.3.13-.4l-.13.4z"/>
<path d="M114.21 47.25c.53.56.53.56 0 0z"/>
<path d="M18.29 52.17c.6.58.6.58 0 0z"/>
<path d="M64.21 58.18c1.64-.54 2.17 0 1.59 1.63-1.64.54-2.17 0-1.59-1.63z"/>
<path d="M65.89 66.15c.19-1.5.43-2.99.92-4.41-.15 3.14-.15 6.3-.03 9.44-.47-.71-.93-1.42-1.39-2.14-.2 2.08-1.12 4.3.48 6.09-.38.07-1.15.22-1.53.29-.66-3.55-.09-7.14-.24-10.72l.45.35 1.34 1.1z"/>
<path d="M59.96 75.04c1.09-.51 2.18-1.01 3.27-1.5-.25 2.01-.77 3.97-1.55 5.84l1.25-.61c.09.51.27 1.52.35 2.02-.5.08-1.52.22-2.03.3L60 82.18c.04-2.38.04-4.76-.04-7.14z"/>
<path d="M64.36 76.35c3.35.2-1.63 2.99 0 0z"/>
<path d="M64.13 93.1c3.18.25-1.51 3.16 0 0z"/></g>
<g fill="#000" stroke="#000" stroke-width=".05%" stroke-opacity="50%" opacity="0.3"><path d="M60.11 38.92c.41.41 1.25 1.24 1.66 1.65.57.96.94 2.02 1.39 3.04-4.25.79.72 2.51 1.75 3.53.05.57.15 1.71.21 2.28-1.29-1.25-2.33-2.85-4.05-3.56.73 1.8 1.76 3.51 2.02 5.47-1.26-1.08-2.34-2.38-2.96-3.94.07-.37.19-1.11.26-1.48l-1.16.19c.14-.45.41-1.37.54-1.83.4-1.08.82-2.15 1.25-3.21-.23-.53-.68-1.6-.91-2.14z"/>
<path d="M39.97 53.53c.11-4.11-.29-8.26.47-12.33.04 1.29.07 2.58.11 3.87.22.46.67 1.37.89 1.83-.04.96-.1 1.93-.05 2.9.07 1.44.24 2.87.45 4.3l1.06.18c-.77.5-1.54 1-2.31 1.49l-.19.12c.09-2.22-1.78-2.4-3.48-2.64l3.05.28z"/>
<path d="M66.5 50.66c.1-1.73-.57-4.43 1.68-5.16l-.38 1.88c-.81 3.1-1.31 6.31-.99 9.52-.4-2.08-1.3-3.91-3.29-4.88l1.94-.06-.52-1.92 1.56.62z"/>
<path d="M34.56 46.88c1.36 1.39 2.78 2.83 3.05 4.86-1.84-1.66-3.88-3.28-6.43-2.11-.01-.29-.02-.88-.03-1.17 1.19-.41 2.32-.94 3.41-1.58z"/>
<path d="M98.24 47.22c.56.51.56.51 0 0z"/>
<path d="M27.07 49.23c3.33-.1-1.31 3.1 0 0z"/>
<path d="M29.29 49.24c.55.48.55.48 0 0zM63.24 54.17c.49.53.49.53 0 0z"/>
<path d="M98.24 49.21c.52.51.52.51 0 0z"/>
<path d="M100.11 49.15c3.31.32-1.68 2.91 0 0zM21.26 79.01c3.09-1.36-.08 3.31 0 0z"/>
<path d="M33.09 50.42c3.3.02-1.43 3.08 0 0z"/>
<path d="M94.09 50.38c3.29.15-1.52 3.04 0 0z"/>
<path d="M50.19 51.18c.68.69.68.69 0 0z"/>
<path d="M35.28 52.2c.54.57.54.57 0 0z"/>
<path d="M92.23 52.16c.55.56.55.56 0 0z"/>
<path d="M61.28 55.23c1.29.33 1.48 1.11.56 2.33-1.27-.33-1.45-1.11-.56-2.33z"/>
<path d="M65.24 58.22c.51.53.51.53 0 0z"/>
<path d="M33.2 61.24c.51.52.51.52 0 0z"/>
<path d="M101.68 75.2c.32.21.96.61 1.28.82 2.06 1.92 5.65 2.86 6.19 5.92-2.97-1.66-6.15-2.89-9.32-4.11.46-.66 1.39-1.97 1.85-2.63z"/>
<path d="M98.28 77.23c.54.48.54.48 0 0z"/>
<path d="M95.41 78.11c1.38-.38 1.86.14 1.45 1.55-1.38.37-1.87-.14-1.45-1.55z"/>
<path d="M25.13 80.35c3.31.26-1.63 2.94 0 0z"/>
<path d="M63.58 81.97c.45-.69 1.34-2.06 1.78-2.74l.56.87c.03 2.95.02 5.9-.03 8.85-.65-1.32-1.21-2.67-1.79-4.01l-.34-.8c.49-.65 1.48-1.94 1.98-2.59l-2.16.42z"/>
<path d="M102.27 81.23c.51.51.51.51 0 0z"/></g>
</g></svg>