<svg width="64" height="64" viewBox="0 0 64 64" shape-rendering="geometricPrecision" version="1.1" xmlns="http://www.w3.org/2000/svg"><desc>Created by https://guilds.gw2w2w.com/</desc><rect x="0" y="0" width="64" height="64" fill="none" stroke="none"/><g transform="matrix(0.25,0,0,0.25,0,0)">
<g fill="rgb(117,25,67)" stroke="rgb(117,25,67)" stroke-width=".05%" stroke-opacity="50%" opacity="0.7"><path d=" M 44.04 24.08 C 53.57 18.15 64.75 14.69 75.99 14.64 C 85.33 15.62 94.90 17.82 102.72 23.27 C 109.15 28.14 114.86 34.06 119.10 40.94 C 122.73 46.88 125.87 53.10 129.01 59.30 C 132.19 52.81 135.62 46.43 139.31 40.22 C 147.08 28.36 158.85 18.31 173.22 16.02 C 184.99 12.83 197.45 15.77 208.21 20.92 C 225.38 29.10 237.29 46.07 241.58 64.33 C 243.41 71.45 242.85 78.86 243.53 86.11 C 244.18 92.20 242.81 98.22 242.13 104.24 C 239.88 115.97 236.53 127.56 231.28 138.32 C 222.05 156.46 209.77 173.01 195.07 187.08 C 185.44 196.90 174.58 205.40 163.56 213.57 C 160.24 216.68 156.45 219.17 152.61 221.58 C 144.89 227.64 136.77 233.15 129.02 239.18 C 118.74 231.31 108.18 223.81 97.66 216.27 C 92.37 211.54 86.23 207.90 80.98 203.11 C 69.17 194.01 58.73 183.26 48.87 172.10 C 37.48 158.11 27.59 142.64 21.38 125.63 C 17.58 113.77 14.61 101.53 14.31 89.03 C 15.20 79.22 14.42 69.12 17.60 59.64 C 22.25 45.40 31.21 32.15 44.04 24.08 Z"/></g>
</g><g transform="matrix(0.5,0,0,0.5,0,0)">
<g fill="rgb(0,108,108)" stroke="rgb(0,108,108)" stroke-width=".05%" stroke-opacity="50%"><path d="M46.6 20.51c.74-3.04 4.42-5.44 7.29-3.38 2.72 1.86 5.8 3.63 7.54 6.53 2.23-.6 6.01-2.16 7.11.94-2.42.09-4.85.19-7.27.04-4.72 2.73-10.51 3.44-14.52 7.46-.61-3.82-1.18-7.79-.15-11.59zM68.8 23.03c2.13-2.24 4.71-4.09 7.36-5.69 2.97-1.98 6.74.66 7.27 3.81.73 3.68.26 7.45-.21 11.13-3.77-4.06-9.14-5.6-14.22-7.27l-.2-1.98zM31.72 68.1c-2.42-3.04.75-1.09 1.82-.79-.33.95-.73 1.87-1.2 2.77-.29-.21-.88-.62-1.17-.82-.43-.69-1.31-2.06-1.74-2.74l2.29 1.58zM95.39 66.63c.52-.1 1.56-.31 2.07-.41.07 1.14.13 2.28.17 3.41-.65-.33-1.3-.67-1.95-1.02l-.49 1.88c.06-1.29.13-2.58.2-3.86zM100.48 71.77c.04 1.64.13 3.26.23 4.89l4.28-.44c-1.32.63-2.63 1.25-3.95 1.87.39.73 1.18 2.19 1.57 2.92-1.09-.71-2.12-1.55-3.33-2.03-.88.67-1.74 1.36-2.59 2.07.69-1.09 1.38-2.17 2.06-3.26-.99-1.03-1.99-2.04-2.97-3.08 1.2.65 2.39 1.32 3.57 2.01.39-1.64.78-3.29 1.13-4.95zM28.16 80.98c.09-1.58.17-3.17.23-4.76.38 1.57.78 3.14 1.2 4.7 1.2-.7 2.42-1.4 3.63-2.08-1.01 1.06-2.05 2.08-3.09 3.11.59 1.14 1.19 2.28 1.79 3.42-.81-.78-1.63-1.56-2.45-2.33-1.1.76-2.19 1.54-3.27 2.32.53-.97 1.06-1.95 1.58-2.92-1.29-.71-2.6-1.37-3.9-2.05 1.42.21 2.85.41 4.28.59zM91.43 91.05c1.32-.05 2.23-.75 2.76-1.92.4 1.15 2.01 2.15 1.06 3.54.26.35.8 1.06 1.07 1.42-1.67-1.35-3-.64-4.09.89.33-.87.65-1.73.95-2.6-.58-.45-1.17-.89-1.75-1.33zM38.77 91.22c.69 1.11 1.34 2.37 2.89 2.21-1.47 1.02-1.57 2.51-.98 4.13-.36-.5-1.07-1.51-1.42-2.01-.58.32-1.75.94-2.33 1.26l1.46-1.94c-.4-.39-1.2-1.16-1.6-1.55l2.1.01-.12-2.11zM75.61 95.78c.13-.59.38-1.78.51-2.37.04.64.11 1.93.14 2.57l1.73-.12-.05.67-1.7-.31c.07.43.2 1.29.26 1.72-1.07-1.03-2.16-2.05-3.24-3.07.59.23 1.76.68 2.35.91zM88.19 94.43c.62-2.25 3.2.13 2.47 1.61-.94 1.98-3.36.08-2.47-1.61zM53.94 94.67l.35 1.53.79.1c.41-.07 1.24-.19 1.66-.26-.01.75-.02 2.25-.03 3-.37-.23-1.12-.68-1.5-.91l-.54.28c-1.77.34-.55-2.78-.73-3.74zM43.57 96.93c.62-.18 1.86-.53 2.48-.7-1.02 1.1-1.85 2.36-2.66 3.62l.18-2.92zM80.37 100.62c.83-1.04 1.66-2.08 2.48-3.13.05 1.33.11 2.67.17 4 1.38.81 2.73 1.68 4.07 2.56-1.43.18-2.85.37-4.27.57-.03.96-.1 2.89-.13 3.86-.69-1.09-1.4-2.17-2.12-3.25-.91.28-2.75.83-3.66 1.11.65-1.06 1.31-2.12 1.98-3.17-.87-.96-1.75-1.89-2.59-2.88 1.36.09 2.71.2 4.07.33zM48.48 99.46c.49 1.22.98 2.44 1.46 3.66 1.6.35 3.18.77 4.76 1.17-1.36.65-2.71 1.31-4.06 1.99.39 1.17.79 2.35 1.22 3.51-1.02-.76-2.05-1.52-3.14-2.16-1.03.53-2.03 1.1-3.02 1.71.2-.81.6-2.44.8-3.26-1.12-.7-2.22-1.42-3.33-2.13 1.3-.25 2.59-.51 3.89-.75.48-1.25.95-2.49 1.42-3.74zM60.52 106.74c.14-.5.42-1.51.55-2.02.13.48.39 1.44.51 1.91.53-.14 1.59-.41 2.12-.55-1.35 1.03-1.67 2.31-.96 3.84-.87-.47-1.74-.93-2.61-1.37-.38-.56-1.13-1.7-1.5-2.26.47.11 1.42.34 1.89.45z"/></g>
<g fill="rgb(189,186,185)" stroke="rgb(189,186,185)" stroke-width=".05%" stroke-opacity="50%"><path d="M50.03 31.07c5.27-3.52 11.47-6.66 18-5.86 4.76 1.26 9.28 3.52 13.13 6.59 4.46 4.22 5.3 10.76 6.42 16.5-2.88 1.62-6.23 3.91-5.22 7.77.89.81 1.76 1.63 2.66 2.44-1.15-1.92-3.02-4.26-1.24-6.44 1.66-1.5 3.82-3.82 6.28-2.97 3.25 1.9 6.18 4.89 7.07 8.64.48 3.18-1.93 5.87-4.38 7.5-2.61 1.2-5.49.2-8.2.02 2.28 1.26 4.88 1.79 7.47 1.38-.17 1.47-.33 2.93-.48 4.4-5.48-1.46-11.86.34-14.82 5.41 3.09-3.5 7.84-5.21 12.43-4.1 2.41.14 4.26 2.16 4.62 4.47.61 4.16-.73 8.41-2.87 11.95-3.62 4.55-10.83 6.65-15.89 3.26-1.64-1.96-1.71-4.63-2.03-7.04-.2 1.38-.32 2.77-.45 4.16-4.94 1.33-10.17 1.25-15.16.26-.1-1.23-.29-2.45-.53-3.66-.45 2.34-.39 5.14-2.18 6.93-4.39 2.33-9.95 1.3-13.72-1.77-2.59-2.23-3.79-5.59-4.62-8.81-.48-2.93-.62-6.62 2.05-8.6 4.43-2.38 10.26-1.55 13.9 1.93-2.91-4.9-9.05-5.66-14.12-4.18.09-1.48.2-2.96.3-4.43 1.76-.05 3.51-.14 5.25-.39.26-.25.77-.75 1.03-1-2.39.41-4.96 1.04-7.29.11-2.53-1.63-5.24-4.32-4.52-7.62.69-3.37 3.17-6.22 6.17-7.81 2.83-.85 6.25.46 7.91 2.88.7 2.68-1.56 4.59-2.8 6.67 1.78-1.7 4.51-3.79 3.51-6.6-.68-2.25-3.28-2.91-5.11-3.95.68-6.44 1.96-13.86 7.43-18.04m22.33 24.52c1.21-2.81 3.17-5.09 6.49-4.47-.97-.64-1.92-1.31-2.88-1.95-2.6 1.11-3.5 3.75-3.61 6.42m-20.66-4.5c3.14-.09 4.76 2.35 6.29 4.67-.48-1.92-.47-4.33-2.31-5.55-1.33-1.07-2.81.23-3.98.88m12.14 15.23c5.52-.13 10.27-3.79 13.23-8.25-3.76 3.57-8.52 7.21-14.05 6.18-4.13-.24-7.06-3.38-9.94-5.95 2.26 4.04 6.15 7.16 10.76 8.02M40.7 79.74c2.11-1.62 4.37-3.02 6.53-4.56-3.05-.04-5.34 1.87-6.53 4.56m43.02-3.51c2.12.78 4.11 1.84 6.1 2.88-1.24-1.97-3.67-4.71-6.1-2.88z"/>
<path d="M56.76 90.01c5.29 1.57 11.03 1.34 16.32-.12.11.48.32 1.44.43 1.93-2.71 2.66-4.87 6.12-8.31 7.88-3.79-1.01-6.23-5.01-8.69-7.92.06-.44.19-1.33.25-1.77m3.95 2.17c2.46 1.81 5.7 1.55 8.11-.22-1.06.2-3.18.59-4.24.78-1.28-.22-2.58-.41-3.87-.56z"/></g>


</g></svg>