<svg width="64" height="64" viewBox="0 0 64 64" shape-rendering="geometricPrecision" version="1.1" xmlns="http://www.w3.org/2000/svg"><desc>Created by https://guilds.gw2w2w.com/</desc><rect x="0" y="0" width="64" height="64" fill="none" stroke="none" /><g transform="matrix(0.25,0,0,0.25,0,0)">
<g fill="rgb(135,0,10)" stroke="rgb(135,0,10)" stroke-width=".05%" stroke-opacity="50%" opacity="0.7"><path d=" M 192.70 52.58 C 197.72 46.96 205.63 46.70 212.57 45.64 C 209.41 47.14 206.10 48.26 202.81 49.43 C 198.80 50.81 195.55 53.61 192.13 56.01 C 187.74 59.10 183.36 62.21 179.20 65.60 C 184.30 66.26 188.82 63.74 193.35 61.87 C 190.72 64.02 187.75 65.70 184.68 67.13 C 184.49 67.50 184.11 68.23 183.92 68.60 C 185.08 69.00 186.25 69.39 187.43 69.79 C 186.85 72.91 186.66 76.24 184.91 78.99 C 182.99 82.10 180.86 85.10 179.21 88.37 C 176.23 90.62 173.28 92.92 170.49 95.40 C 174.01 93.86 177.48 92.22 180.96 90.57 C 182.60 91.19 184.25 91.82 185.90 92.45 C 185.31 95.89 184.67 99.32 184.05 102.76 C 186.44 101.30 188.88 99.94 191.37 98.66 C 187.95 104.61 182.21 108.46 176.59 112.11 C 185.98 107.68 195.76 104.21 205.17 99.82 C 196.24 105.17 186.99 110.17 179.04 116.95 C 184.41 116.41 188.64 112.87 193.27 110.48 C 197.66 108.14 201.87 105.49 206.20 103.03 C 198.77 108.36 190.50 112.32 182.67 117.00 C 182.64 117.86 182.58 119.58 182.54 120.44 C 185.22 119.21 187.90 117.98 190.48 116.55 C 197.67 112.36 205.70 109.96 213.13 106.27 C 217.87 103.89 222.90 102.17 228.09 101.11 C 227.82 104.21 226.58 107.05 224.39 109.27 C 225.69 109.80 226.98 110.34 228.28 110.89 C 227.01 112.12 225.75 113.36 224.49 114.60 C 224.53 115.94 224.57 117.28 224.61 118.63 C 220.25 120.90 215.78 122.98 211.55 125.49 C 207.10 128.10 203.49 131.83 199.87 135.44 C 199.28 135.64 198.70 135.85 198.12 136.06 C 195.76 140.12 191.33 141.63 187.14 143.02 C 186.37 144.36 186.00 146.21 184.37 146.80 C 179.80 148.82 175.38 151.16 170.99 153.53 C 171.52 154.41 172.07 155.28 172.61 156.16 C 168.07 157.73 164.07 160.39 160.22 163.20 C 153.58 167.43 147.65 172.64 141.47 177.49 C 141.01 177.01 140.54 176.53 140.08 176.06 C 134.87 180.74 130.09 186.37 123.60 189.28 C 125.87 185.13 129.37 181.92 132.60 178.54 C 122.27 185.41 113.99 194.79 104.12 202.22 C 102.17 203.76 101.41 200.87 100.79 199.59 C 103.34 196.84 105.84 194.05 108.43 191.34 C 108.45 190.39 108.46 189.45 108.47 188.51 C 114.01 185.22 116.62 179.22 119.61 173.83 C 118.59 174.51 117.58 175.20 116.56 175.88 C 116.15 175.41 115.33 174.46 114.92 173.98 C 113.23 175.65 111.50 177.26 109.73 178.83 C 110.55 179.45 111.36 180.07 112.18 180.70 C 109.28 183.11 106.37 185.51 103.65 188.12 C 103.61 189.19 103.56 190.27 103.52 191.35 C 102.78 192.08 102.04 192.81 101.30 193.55 C 101.48 191.95 101.65 190.35 101.84 188.75 C 100.29 190.38 98.72 192.00 97.11 193.56 C 97.50 191.65 97.29 189.36 98.91 187.95 C 103.76 182.76 109.65 178.43 113.26 172.17 C 109.47 174.42 106.23 177.43 103.25 180.66 C 103.41 179.09 103.58 177.53 103.75 175.97 C 100.22 179.87 96.57 183.70 92.14 186.59 C 95.81 181.21 99.33 175.57 104.46 171.43 C 104.45 170.45 104.44 169.48 104.43 168.51 C 107.98 165.11 111.57 161.74 114.67 157.91 C 108.09 162.84 102.40 168.80 96.39 174.38 C 94.68 175.97 92.64 177.12 90.61 178.24 C 92.17 176.25 93.84 174.35 95.59 172.53 C 94.98 171.89 94.38 171.25 93.78 170.62 C 95.26 170.59 96.74 170.55 98.22 170.53 C 108.28 160.21 119.16 150.73 130.50 141.83 C 128.14 142.89 125.80 143.96 123.46 145.04 C 130.20 137.47 139.34 132.71 146.56 125.68 C 137.30 130.76 129.57 138.11 120.57 143.59 C 115.78 146.20 113.51 152.35 107.67 153.11 C 109.84 150.33 112.22 147.72 114.57 145.09 C 106.65 151.76 98.05 157.65 90.77 165.05 C 87.48 166.37 85.13 169.06 83.21 171.95 C 82.02 171.48 80.83 171.01 79.64 170.53 C 79.62 171.47 79.60 172.41 79.59 173.35 C 77.92 174.52 76.26 175.70 74.60 176.87 C 74.62 177.74 74.63 178.62 74.63 179.50 C 73.40 179.55 72.16 179.59 70.92 179.64 C 67.72 185.95 63.70 191.88 58.56 196.78 C 59.61 194.63 60.69 192.49 61.79 190.36 C 59.50 192.17 57.19 193.96 54.84 195.69 C 58.48 191.02 62.66 186.81 66.24 182.10 C 66.56 179.68 67.12 177.30 67.83 174.96 C 64.33 178.78 60.53 182.31 56.96 186.06 C 55.95 185.59 54.95 185.12 53.95 184.66 C 51.17 188.30 47.63 191.21 44.12 194.10 C 35.76 201.83 28.44 210.59 20.83 219.04 C 24.22 214.55 27.60 210.05 30.28 205.10 C 32.70 200.39 37.60 197.83 40.59 193.58 C 42.90 190.45 44.98 187.14 46.80 183.70 C 45.81 183.37 44.10 184.07 43.86 182.63 C 45.00 181.11 46.89 180.69 48.71 180.85 C 50.79 179.48 52.95 178.09 54.43 176.06 C 55.76 173.85 56.17 171.24 56.88 168.80 C 52.00 170.76 47.20 172.94 42.78 175.79 C 44.42 173.28 45.85 170.65 47.37 168.07 C 48.51 166.26 49.42 164.31 50.10 162.28 C 46.15 165.09 42.86 169.01 38.05 170.40 C 41.86 165.25 45.18 159.17 51.45 156.68 C 50.95 156.00 50.45 155.33 49.95 154.66 C 53.21 150.70 56.78 147.02 60.43 143.42 C 64.59 139.40 67.56 134.37 71.55 130.20 C 70.78 130.35 69.25 130.65 68.48 130.80 C 73.28 124.85 79.40 120.19 84.48 114.51 C 90.56 107.63 97.45 101.55 103.60 94.75 C 106.39 91.88 109.70 89.48 111.93 86.11 C 112.98 85.21 114.03 84.31 115.09 83.43 C 113.82 83.46 111.27 83.53 110.00 83.56 C 113.09 81.63 116.25 79.81 119.35 77.91 C 113.06 80.19 107.73 84.39 101.56 86.93 C 103.62 85.00 105.77 83.19 107.90 81.35 C 106.07 81.30 104.24 81.25 102.41 81.18 C 106.03 77.68 111.14 77.32 115.62 75.58 C 112.80 75.96 110.02 76.55 107.24 77.08 C 110.73 74.40 114.44 72.04 118.23 69.81 C 110.51 73.69 102.51 77.04 95.08 81.46 C 95.24 80.52 95.41 79.57 95.58 78.62 C 96.21 78.61 97.48 78.58 98.11 78.57 C 102.38 73.73 108.57 71.47 113.41 67.35 C 112.83 66.82 111.68 65.78 111.11 65.26 C 116.98 62.68 122.29 59.06 127.76 55.75 C 130.89 53.84 133.82 51.44 137.40 50.42 C 140.64 49.49 144.00 49.19 147.32 48.70 C 148.13 49.31 148.93 49.92 149.74 50.54 C 151.31 50.44 152.88 50.34 154.45 50.23 C 151.25 51.62 148.53 53.80 145.66 55.73 C 143.12 56.95 140.18 56.80 137.44 57.12 C 137.36 58.73 137.31 60.35 137.24 61.97 C 143.47 60.22 149.30 57.06 155.80 56.34 C 149.13 62.56 140.05 64.97 132.58 70.01 C 143.18 66.53 152.51 59.88 163.37 57.06 C 163.54 56.59 163.86 55.65 164.02 55.18 C 161.86 55.37 159.70 55.54 157.54 55.68 C 163.42 52.58 170.13 51.53 175.91 48.22 C 178.82 46.45 182.27 46.51 185.55 46.42 C 182.07 48.19 178.28 49.65 175.71 52.76 C 176.88 52.46 179.23 51.85 180.40 51.55 C 177.39 54.02 174.60 56.75 172.28 59.88 C 179.01 58.51 185.60 56.44 192.40 55.37 C 192.47 54.67 192.62 53.28 192.70 52.58 M 153.63 150.13 C 149.47 152.30 144.93 153.96 141.37 157.11 C 138.67 159.86 136.38 162.98 133.55 165.61 C 136.61 163.48 139.89 161.69 143.22 160.00 C 148.31 157.63 151.29 152.16 156.99 150.84 C 159.97 147.75 163.40 145.16 167.14 143.07 C 162.56 145.28 158.23 147.95 153.63 150.13 Z" />
<path d=" M 187.57 149.50 C 192.39 145.26 197.51 141.17 203.52 138.75 C 198.48 142.73 192.99 146.07 187.57 149.50 Z" /></g>
</g><g transform="matrix(0.25,0,0,0.25,0,0)">
<g fill="rgb(135,0,10)" stroke="rgb(135,0,10)" stroke-width=".05%" stroke-opacity="50%"><path d=" M 62.06 57.85 C 63.95 57.66 64.40 59.68 65.22 60.95 C 68.41 66.83 69.12 73.69 72.30 79.58 C 77.31 88.24 82.54 97.11 90.44 103.49 C 97.81 109.37 106.92 112.32 115.73 115.27 C 120.04 116.75 123.78 119.41 127.80 121.49 C 138.75 115.27 151.44 112.84 162.13 106.12 C 165.38 104.12 167.65 101.00 170.22 98.26 C 177.40 89.98 184.11 80.79 186.83 70.00 C 187.33 66.83 189.24 64.17 190.03 61.09 C 190.31 59.62 191.51 58.38 193.05 58.31 C 193.94 65.39 188.96 71.28 188.85 78.19 C 187.54 88.45 187.16 98.80 186.81 109.13 C 186.46 117.75 185.13 126.50 186.92 135.06 C 188.16 142.48 191.27 149.44 192.56 156.86 C 186.54 161.02 179.46 163.33 173.52 167.61 C 158.93 179.24 147.06 195.96 145.89 215.09 C 145.18 219.20 147.11 223.26 146.12 227.33 C 140.20 223.51 140.18 215.58 138.48 209.44 C 138.03 205.77 135.39 202.74 135.45 198.99 C 134.89 189.61 134.77 180.20 135.16 170.81 C 135.94 160.29 136.71 149.53 140.54 139.60 C 152.37 138.93 162.98 132.32 170.71 123.64 C 167.20 124.27 164.70 127.08 161.45 128.35 C 155.71 130.82 150.49 134.70 144.20 135.65 C 132.90 138.51 120.67 139.42 109.58 135.28 C 101.25 132.42 93.67 127.89 86.06 123.53 C 89.21 128.39 94.13 131.91 99.03 134.87 C 103.97 137.93 109.80 138.76 115.40 139.70 C 118.97 145.77 118.43 153.25 119.18 160.04 C 120.92 175.31 121.89 190.91 118.93 206.10 C 117.83 212.02 113.95 217.07 113.68 223.19 C 113.45 224.94 111.74 228.23 109.73 226.54 C 108.42 219.09 109.93 211.39 108.08 204.00 C 104.92 190.80 96.34 179.46 85.94 171.00 C 78.95 165.02 70.71 160.78 62.56 156.61 C 68.32 142.55 69.77 127.22 69.63 112.16 C 69.23 96.25 67.10 80.41 63.44 64.93 C 62.89 62.58 61.92 60.30 62.06 57.85 Z" />
<path d=" M 126.53 57.72 C 128.20 58.12 129.86 58.71 131.07 59.99 C 134.57 63.42 137.97 67.00 141.88 69.98 C 143.55 71.29 145.71 71.58 147.77 71.44 C 143.50 73.37 139.14 75.30 135.55 78.39 C 134.85 74.30 130.63 73.02 127.58 71.07 C 124.95 73.09 122.44 75.26 119.89 77.39 C 116.93 79.61 113.95 81.84 110.71 83.65 C 107.23 85.49 103.89 87.59 100.74 89.97 C 106.03 97.63 114.73 102.67 123.91 103.91 C 135.89 105.23 147.93 99.37 155.25 89.98 C 152.18 87.38 148.33 86.00 145.15 83.56 C 148.38 81.79 151.67 80.08 155.19 78.96 L 156.44 78.63 C 161.12 81.70 166.62 83.20 171.25 86.38 C 169.76 91.53 167.09 96.37 162.93 99.83 C 153.35 108.10 140.52 110.62 129.59 116.53 C 127.52 118.21 125.48 116.13 123.60 115.28 C 114.46 110.67 104.40 107.90 95.81 102.21 C 90.46 98.51 85.79 92.79 84.96 86.23 C 89.20 82.55 95.06 81.71 99.71 78.66 C 103.42 76.61 107.44 75.00 110.63 72.14 C 113.37 69.63 116.55 67.69 119.61 65.60 C 122.57 63.61 124.33 60.43 126.53 57.72 Z" /></g>
<g fill="rgb(135,0,10)" stroke="rgb(135,0,10)" stroke-width=".05%" stroke-opacity="50%"><path d=" M 118.40 32.45 C 119.08 31.33 120.29 30.97 121.52 30.85 C 123.45 33.22 125.55 35.46 128.00 37.29 C 130.40 35.15 132.66 32.87 135.04 30.72 C 144.70 41.50 156.08 50.57 167.56 59.33 C 171.99 62.87 177.35 65.16 181.27 69.35 C 176.07 72.47 169.57 70.71 164.11 73.13 C 160.71 74.36 157.91 76.66 155.19 78.96 C 151.67 80.08 148.38 81.79 145.15 83.56 C 137.82 86.50 133.89 93.81 127.63 98.22 C 122.17 93.17 117.74 86.70 110.71 83.65 C 113.95 81.84 116.93 79.61 119.89 77.39 C 122.32 80.04 124.96 82.51 127.87 84.63 C 130.36 82.46 133.04 80.53 135.55 78.39 C 139.14 75.30 143.50 73.37 147.77 71.44 C 151.26 69.70 154.45 67.25 158.35 66.46 C 156.74 62.73 152.41 62.01 149.85 59.21 C 145.61 54.79 140.42 51.45 136.17 47.04 C 132.99 49.15 130.49 52.11 127.24 54.11 C 124.96 51.59 122.67 49.05 119.97 46.97 C 118.32 48.34 116.70 49.74 115.14 51.22 C 109.63 56.60 102.74 60.41 97.62 66.24 C 102.00 68.11 106.45 69.84 110.63 72.14 C 107.44 75.00 103.42 76.61 99.71 78.66 C 93.76 70.99 82.94 72.90 74.73 69.74 C 77.28 64.78 83.41 63.89 87.04 60.05 C 88.04 59.01 89.09 58.00 90.35 57.28 C 101.12 50.79 110.14 41.83 118.40 32.45 Z" /></g>


</g></svg>