<svg width="64" height="64" viewBox="0 0 64 64" shape-rendering="geometricPrecision" version="1.1" xmlns="http://www.w3.org/2000/svg"><desc>Created by https://guilds.gw2w2w.com/</desc><rect x="0" y="0" width="64" height="64" fill="none" stroke="none"/><g transform="matrix(0.25,0,0,0.25,0,0)">
<g fill="rgb(26,24,27)" stroke="rgb(26,24,27)" stroke-width=".05%" stroke-opacity="50%" opacity="0.7"><path d=" M 62.07 21.98 C 82.54 18.72 103.24 16.91 123.96 16.18 C 140.66 16.04 157.33 17.57 173.93 19.31 C 180.20 20.33 186.60 20.60 192.80 22.04 C 193.31 30.10 195.10 38.10 198.55 45.42 C 199.81 47.74 201.95 49.43 204.24 50.67 C 209.41 53.43 215.09 55.08 220.82 56.25 C 221.19 71.51 220.00 86.73 219.14 101.95 C 217.48 120.96 216.30 140.38 209.52 158.41 C 200.21 183.83 182.45 205.84 160.37 221.34 C 150.24 228.73 139.01 234.38 127.62 239.54 C 103.67 229.37 81.41 214.26 65.30 193.61 C 58.71 185.23 53.05 176.07 48.78 166.29 C 44.55 154.75 41.16 142.87 39.19 130.73 C 35.87 106.00 34.47 81.06 34.12 56.13 C 41.11 54.79 48.75 53.15 53.67 47.57 C 60.04 40.73 61.72 30.99 62.07 21.98 Z"/></g>
</g><g transform="matrix(0.25,0,0,0.25,0,0)">
<g fill="rgb(189,186,185)" stroke="rgb(189,186,185)" stroke-width=".05%" stroke-opacity="50%"><path d=" M 119.37 29.69 C 119.73 38.97 119.19 48.27 119.64 57.55 C 119.85 59.81 118.45 61.81 118.24 64.02 C 118.69 67.71 119.65 71.32 120.61 74.91 C 122.36 67.48 123.48 59.91 125.33 52.52 C 132.00 46.70 138.48 40.63 145.24 34.92 C 139.48 46.29 137.02 58.92 132.33 70.70 C 136.46 66.32 139.93 61.35 143.93 56.88 C 150.36 52.30 156.93 47.86 163.82 44.00 C 159.90 48.75 156.23 53.71 152.76 58.81 C 148.89 63.58 144.38 67.78 140.32 72.38 C 136.24 77.31 132.89 82.77 129.19 87.98 C 128.30 89.59 126.88 91.15 126.84 93.07 C 128.13 97.51 131.29 101.08 133.17 105.24 C 133.30 107.73 133.04 110.22 133.04 112.71 C 131.06 110.47 129.23 108.10 127.26 105.85 C 125.47 106.53 123.52 106.84 121.84 107.77 C 118.19 113.83 115.15 120.24 111.54 126.33 C 113.86 131.96 116.11 137.66 118.90 143.08 C 121.14 144.63 123.79 145.46 126.23 146.66 C 126.99 146.36 128.53 145.76 129.29 145.46 C 126.07 143.99 122.64 142.80 119.97 140.37 C 125.85 140.96 131.76 140.86 137.65 141.15 C 133.70 139.08 129.00 138.06 126.06 134.45 C 130.06 135.24 133.93 136.96 138.08 136.80 C 141.44 136.65 144.80 136.43 148.17 136.39 C 146.75 135.12 145.34 133.82 143.99 132.46 C 147.80 133.15 151.46 134.40 155.18 135.41 C 154.85 134.38 154.52 133.37 154.18 132.35 C 155.82 133.43 157.45 134.51 159.11 135.56 C 162.66 134.99 166.25 134.47 169.86 134.56 C 171.47 135.54 171.79 138.39 174.06 138.10 C 176.16 137.81 177.30 139.73 178.56 141.03 C 180.81 141.91 183.51 141.88 185.44 143.43 C 186.91 146.73 189.03 151.08 185.82 154.09 C 184.65 152.05 183.58 149.97 182.46 147.91 C 179.02 148.77 175.56 149.53 172.08 150.19 C 171.35 151.48 170.65 152.77 169.94 154.06 C 172.82 157.55 176.93 159.32 181.28 160.15 C 178.14 161.15 174.86 161.56 171.63 162.15 C 170.77 161.62 169.91 161.10 169.05 160.57 C 164.67 161.32 160.19 161.73 155.90 162.92 C 151.02 168.36 146.95 174.52 142.92 180.61 C 144.16 181.28 145.41 181.93 146.68 182.56 C 148.74 180.54 150.79 178.52 152.94 176.59 C 156.33 177.01 159.74 177.08 163.15 177.18 C 163.51 176.74 164.24 175.85 164.60 175.41 C 165.07 175.97 166.00 177.09 166.46 177.64 C 167.67 176.61 168.85 175.55 170.09 174.56 C 171.34 175.83 172.57 177.13 173.76 178.45 C 171.70 177.83 169.70 178.28 167.82 179.20 C 167.84 179.92 167.89 181.37 167.91 182.09 C 169.22 181.62 170.54 181.16 171.88 180.74 C 172.45 182.71 172.91 184.71 173.25 186.73 C 172.14 185.98 171.05 185.20 169.98 184.40 C 169.05 184.54 167.20 184.81 166.27 184.94 C 167.78 185.88 169.31 186.78 170.79 187.79 C 169.90 190.28 167.64 191.61 165.56 192.98 C 166.71 190.59 167.71 188.06 165.95 185.65 C 165.42 185.97 164.35 186.59 163.82 186.91 C 163.70 187.65 163.47 189.13 163.35 189.87 C 161.79 188.38 160.40 186.71 159.34 184.82 C 154.44 189.39 149.90 194.35 144.79 198.68 C 145.29 200.31 145.81 201.92 146.25 203.57 C 142.42 200.09 138.62 196.50 135.61 192.27 C 134.18 193.46 132.73 194.64 131.26 195.78 C 130.93 197.15 130.60 198.51 130.26 199.88 C 129.22 198.63 128.19 197.38 127.07 196.21 C 127.23 200.63 127.09 205.24 129.07 209.32 C 130.49 207.34 132.24 206.29 134.38 208.00 C 133.06 209.30 132.04 210.84 131.52 212.63 C 133.30 212.96 135.09 213.27 136.87 213.60 C 136.73 215.49 136.59 217.38 136.36 219.26 C 135.65 218.10 135.00 216.88 134.38 215.67 C 133.47 215.55 132.57 215.43 131.67 215.31 C 132.97 216.93 133.86 218.85 133.16 220.94 C 132.89 223.16 130.09 223.02 128.53 223.80 C 129.27 222.57 130.02 221.34 130.77 220.11 C 130.00 218.93 129.23 217.77 128.44 216.61 C 127.95 217.74 127.46 218.88 126.97 220.02 C 125.22 220.07 123.48 220.12 121.74 220.18 L 121.70 219.49 C 122.91 219.00 124.09 218.44 125.24 217.82 C 124.92 217.24 124.28 216.08 123.96 215.50 C 121.90 216.18 119.85 216.89 117.77 217.51 C 120.14 215.10 120.89 211.80 119.89 208.56 C 117.10 203.52 112.16 200.25 108.94 195.53 C 109.64 195.50 111.03 195.43 111.73 195.40 C 108.32 191.81 104.92 188.22 101.73 184.44 C 103.41 185.03 105.08 185.66 106.73 186.33 C 102.37 178.24 99.26 169.53 96.52 160.78 C 99.13 161.18 101.86 161.21 104.35 162.13 C 105.97 164.38 107.08 166.99 109.00 169.02 C 112.99 171.01 117.24 172.46 121.44 173.92 C 118.08 171.73 114.40 170.03 111.10 167.75 C 108.58 165.02 107.38 161.38 105.36 158.29 C 98.79 156.45 92.50 153.75 86.04 151.58 C 87.60 150.78 89.16 149.99 90.69 149.14 C 83.37 146.65 75.57 145.09 68.78 141.30 C 75.49 141.75 82.21 141.54 88.92 141.04 C 86.55 138.50 82.49 139.37 80.30 136.70 C 76.10 132.25 71.09 128.70 66.81 124.34 C 73.91 126.92 81.38 128.09 88.69 129.86 C 80.40 121.22 71.21 113.23 64.53 103.19 C 68.13 104.84 71.29 107.33 74.98 108.77 C 80.16 110.12 85.53 110.50 90.80 111.33 C 87.96 108.38 85.43 105.15 82.90 101.94 C 78.39 96.02 73.48 90.22 70.90 83.12 C 79.61 89.94 88.64 96.40 98.33 101.76 C 91.89 90.22 86.68 78.07 81.33 66.00 C 88.25 72.95 95.06 80.02 102.43 86.49 C 100.16 82.24 97.55 78.19 95.02 74.09 C 95.46 63.38 95.19 52.63 93.83 41.99 C 98.17 49.35 100.22 57.86 104.79 65.12 C 107.02 68.30 109.07 71.61 111.60 74.57 C 110.77 69.60 109.45 64.71 108.00 59.89 C 109.57 56.95 110.51 53.73 111.90 50.71 C 115.68 44.22 116.52 36.58 119.37 29.69 M 166.89 142.33 C 169.01 143.22 171.30 143.16 173.55 143.12 C 172.37 141.95 171.17 140.81 169.97 139.67 C 168.93 140.54 167.91 141.43 166.89 142.33 Z"/></g>
<g fill="rgb(69,40,99)" stroke="rgb(69,40,99)" stroke-width=".05%" stroke-opacity="50%"><path d=" M 144.12 90.98 C 147.39 82.55 150.48 73.98 154.83 66.04 C 155.05 72.01 154.78 77.99 154.62 83.97 C 160.86 77.04 168.60 71.80 176.11 66.38 C 171.90 73.30 169.08 80.92 166.98 88.73 C 176.76 87.69 186.79 87.51 196.36 90.10 C 184.08 92.64 171.64 95.47 160.55 101.52 C 157.98 103.02 156.68 105.84 155.21 108.29 C 153.42 110.82 154.67 113.99 154.16 116.82 C 153.17 119.09 151.51 120.96 149.97 122.87 C 149.83 120.18 149.63 117.49 149.20 114.83 C 143.24 117.61 137.66 121.09 131.88 124.22 C 131.24 127.43 130.90 130.68 130.59 133.94 C 127.88 133.32 125.17 132.71 122.45 132.13 C 123.56 134.51 124.84 136.80 126.09 139.11 C 123.74 138.86 121.37 138.73 119.08 138.16 C 116.94 134.57 115.32 130.66 113.96 126.72 C 114.69 124.40 116.20 122.45 117.38 120.36 C 120.06 116.12 121.86 111.26 125.58 107.76 C 128.43 110.64 131.20 113.60 134.08 116.45 C 134.09 112.33 135.01 108.24 134.77 104.12 C 133.08 100.18 130.77 96.54 128.74 92.77 C 132.65 86.53 136.79 80.42 141.26 74.55 C 142.17 80.04 142.93 85.55 144.12 90.98 Z"/>
<path d=" M 166.89 142.33 C 167.91 141.43 168.93 140.54 169.97 139.67 C 171.17 140.81 172.37 141.95 173.55 143.12 C 171.30 143.16 169.01 143.22 166.89 142.33 Z"/></g>


</g></svg>