<svg width="64" height="64" viewBox="0 0 64 64" shape-rendering="geometricPrecision" version="1.1" xmlns="http://www.w3.org/2000/svg"><desc>Created by https://guilds.gw2w2w.com/</desc><rect x="0" y="0" width="64" height="64" fill="none" stroke="none"/><g transform="matrix(0.25,0,0,0.25,0,0)">
<g fill="rgb(26,24,27)" stroke="rgb(26,24,27)" stroke-width=".05%" stroke-opacity="50%" opacity="0.7"><path d=" M 62.07 21.98 C 82.54 18.72 103.24 16.91 123.96 16.18 C 140.66 16.04 157.33 17.57 173.93 19.31 C 180.20 20.33 186.60 20.60 192.80 22.04 C 193.31 30.10 195.10 38.10 198.55 45.42 C 199.81 47.74 201.95 49.43 204.24 50.67 C 209.41 53.43 215.09 55.08 220.82 56.25 C 221.19 71.51 220.00 86.73 219.14 101.95 C 217.48 120.96 216.30 140.38 209.52 158.41 C 200.21 183.83 182.45 205.84 160.37 221.34 C 150.24 228.73 139.01 234.38 127.62 239.54 C 103.67 229.37 81.41 214.26 65.30 193.61 C 58.71 185.23 53.05 176.07 48.78 166.29 C 44.55 154.75 41.16 142.87 39.19 130.73 C 35.87 106.00 34.47 81.06 34.12 56.13 C 41.11 54.79 48.75 53.15 53.67 47.57 C 60.04 40.73 61.72 30.99 62.07 21.98 Z"/></g>
</g><g transform="matrix(0.25,0,0,0.25,0,0)">
<g fill="rgb(55,4,0)" stroke="rgb(55,4,0)" stroke-width=".05%" stroke-opacity="50%"><path d=" M 38.75 34.70 C 41.95 34.21 45.02 35.18 47.98 36.29 C 48.28 39.79 45.13 42.55 45.77 46.06 C 47.08 49.50 49.97 51.98 52.72 54.28 C 59.14 59.28 64.10 65.82 70.16 71.22 C 71.11 70.69 72.06 70.16 73.01 69.63 C 74.60 70.51 76.18 71.41 77.76 72.33 C 82.71 68.02 86.16 62.08 91.81 58.60 C 96.04 56.10 101.16 55.84 105.91 56.53 C 107.11 56.62 107.40 58.06 108.01 58.86 C 110.02 62.60 112.59 66.27 112.65 70.69 C 107.15 69.59 101.56 68.91 96.11 67.54 C 91.77 70.42 88.03 75.40 89.69 80.89 C 92.69 90.35 101.22 96.39 108.33 102.71 C 110.08 104.71 112.81 103.45 115.06 103.43 C 135.51 126.46 157.34 148.25 177.76 171.31 C 188.08 183.39 199.26 194.99 206.88 209.06 C 208.51 212.62 210.05 216.75 208.56 220.62 C 205.53 219.38 202.21 219.04 199.21 217.71 C 190.95 214.29 184.29 208.15 177.66 202.33 C 149.13 176.79 120.11 151.76 92.59 125.12 C 92.80 123.47 94.53 121.51 93.19 119.98 C 87.36 112.84 80.63 106.45 73.56 100.55 C 67.53 98.38 60.53 101.05 56.73 106.05 C 57.93 111.85 59.77 117.57 59.84 123.55 C 55.21 122.39 51.26 119.61 46.82 117.98 C 45.32 113.05 45.50 107.63 47.93 103.01 C 51.07 96.98 56.71 92.83 62.12 88.96 C 60.87 86.39 58.22 83.59 60.34 80.74 C 52.18 74.19 47.21 64.48 38.79 58.20 C 36.90 56.86 34.56 55.73 32.18 56.32 C 30.12 57.21 28.25 58.56 25.98 58.95 C 24.33 54.45 23.66 49.31 25.84 44.86 C 28.00 39.43 33.33 36.16 38.75 34.70 Z"/></g>
<g fill="rgb(26,24,27)" stroke="rgb(26,24,27)" stroke-width=".05%" stroke-opacity="50%"><path d=" M 207.55 36.81 C 216.29 31.65 228.19 37.91 230.65 47.29 C 231.81 51.01 231.03 54.93 229.82 58.52 C 226.48 58.10 223.66 55.05 220.15 56.24 C 215.61 57.89 212.45 61.80 209.27 65.25 C 204.57 70.31 200.64 76.09 195.23 80.44 C 196.92 83.25 195.47 86.19 193.53 88.41 C 198.63 93.34 204.94 97.43 208.12 103.99 C 210.02 108.32 209.90 113.17 208.77 117.68 C 204.48 119.57 200.48 122.16 195.86 123.25 C 196.25 117.43 198.45 111.89 198.93 106.13 C 196.27 101.30 190.34 99.13 185.05 99.77 C 181.62 99.94 179.30 102.79 176.84 104.82 C 171.53 109.69 166.71 115.05 161.65 120.16 C 162.03 121.75 162.50 123.32 162.72 124.94 C 160.88 127.06 158.91 129.05 157.28 131.35 C 155.65 133.25 153.78 135.86 150.93 135.48 C 148.16 134.28 146.19 131.87 144.34 129.59 C 140.18 124.29 135.73 119.22 130.99 114.45 C 133.98 110.54 137.26 106.85 140.94 103.58 C 143.02 103.88 145.43 104.94 147.21 103.25 C 153.76 98.25 159.84 92.53 164.90 86.01 C 169.48 79.93 166.04 71.00 160.05 67.22 C 154.49 68.48 148.89 69.59 143.24 70.33 C 143.83 65.29 146.84 61.12 149.21 56.80 C 154.20 56.25 159.67 56.09 164.04 58.95 C 170.02 62.48 173.03 69.26 178.89 72.92 C 179.61 71.92 180.38 70.96 181.19 70.04 C 182.57 69.34 183.67 70.97 184.85 71.44 C 191.06 67.23 195.65 61.14 201.41 56.38 C 204.36 53.73 207.66 51.24 209.62 47.72 C 211.51 44.01 208.66 40.29 207.55 36.81 Z"/>
<path d=" M 71.66 179.63 C 83.33 167.85 93.05 154.29 104.94 142.73 C 107.84 144.92 110.58 147.32 113.14 149.90 C 116.63 153.43 120.85 156.16 124.05 159.99 C 122.37 164.14 118.12 166.11 114.97 168.95 C 99.90 182.60 86.05 197.67 69.58 209.71 C 62.92 214.79 55.24 219.47 46.59 219.56 C 49.35 203.48 60.49 190.76 71.66 179.63 Z"/></g>


</g></svg>