<svg width="64" height="64" viewBox="0 0 64 64" shape-rendering="geometricPrecision" version="1.1" xmlns="http://www.w3.org/2000/svg"><desc>Created by https://guilds.gw2w2w.com/</desc><rect x="0" y="0" width="64" height="64" fill="none" stroke="none" /><g transform="matrix(0.25,0,0,0.25,0,0)">
<g fill="rgb(26,24,27)" stroke="rgb(26,24,27)" stroke-width=".05%" stroke-opacity="50%" opacity="0.7"><path d=" M 100.42 16.12 C 108.83 14.28 117.39 12.80 126.04 13.23 C 126.11 15.03 126.18 16.83 126.27 18.64 C 122.01 19.35 117.68 19.31 113.39 19.68 C 109.45 20.25 105.57 21.26 101.62 21.81 C 101.22 19.91 100.83 18.01 100.42 16.12 Z" />
<path d=" M 129.93 13.23 C 138.64 12.88 147.34 14.12 155.76 16.31 C 155.29 18.15 154.82 19.99 154.35 21.83 C 146.27 19.97 138.04 19.36 129.81 18.73 C 129.86 16.90 129.90 15.06 129.93 13.23 Z" />
<path d=" M 72.43 27.21 C 80.00 23.04 88.02 19.72 96.32 17.30 C 96.89 19.21 97.45 21.12 98.02 23.04 C 90.02 25.17 82.44 28.59 75.14 32.45 C 74.25 30.70 73.34 28.95 72.43 27.21 Z" />
<path d=" M 159.65 17.29 C 167.99 19.73 176.05 23.04 183.64 27.27 C 182.70 28.99 181.76 30.71 180.83 32.44 C 173.61 28.58 166.08 25.25 158.16 23.08 C 158.65 21.15 159.15 19.22 159.65 17.29 Z" />
<path d=" M 88.21 27.54 C 104.49 20.45 122.75 18.28 140.32 20.55 C 139.94 22.27 139.58 23.99 139.22 25.72 C 122.80 24.50 105.92 26.19 90.61 32.49 C 89.82 30.84 89.02 29.19 88.21 27.54 Z" />
<path d=" M 143.70 20.99 C 161.28 23.05 177.90 30.57 192.12 40.93 C 190.99 42.33 189.87 43.74 188.77 45.16 C 183.64 41.95 178.70 38.38 173.13 35.93 C 163.73 31.16 153.46 28.43 143.19 26.28 C 143.37 24.52 143.54 22.76 143.70 20.99 Z" />
<path d=" M 43.43 60.76 C 54.23 46.89 68.45 35.47 84.88 29.01 C 85.56 30.66 86.25 32.30 86.96 33.94 C 71.84 40.67 58.28 51.02 47.96 63.96 C 46.45 62.88 44.94 61.82 43.43 60.76 Z" />
<path d=" M 48.29 45.14 C 54.56 39.14 61.41 33.72 68.92 29.34 C 69.90 31.01 70.90 32.68 71.90 34.34 C 64.77 38.51 58.51 43.92 52.22 49.22 C 50.94 47.83 49.63 46.47 48.29 45.14 Z" />
<path d=" M 184.15 34.39 C 185.14 32.71 186.13 31.03 187.11 29.35 C 194.59 33.73 201.43 39.13 207.68 45.11 C 206.32 46.55 204.97 48.00 203.62 49.45 C 197.78 43.63 191.11 38.76 184.15 34.39 Z" />
<path d=" M 191.70 47.68 C 192.80 46.18 193.88 44.66 194.96 43.15 C 204.14 50.27 211.94 59.05 218.36 68.71 C 221.39 73.81 224.24 79.03 226.94 84.31 C 225.23 85.04 223.53 85.78 221.83 86.53 C 214.57 71.73 204.62 58.05 191.70 47.68 Z" />
<path d=" M 29.69 68.77 C 34.22 61.35 39.31 54.19 45.53 48.09 C 46.92 49.42 48.32 50.73 49.72 52.04 C 44.13 58.07 39.01 64.57 34.84 71.67 C 33.13 70.69 31.41 69.73 29.69 68.77 Z" />
<path d=" M 206.29 52.06 C 207.74 50.75 209.18 49.43 210.62 48.11 C 216.66 54.34 221.84 61.35 226.31 68.77 C 224.58 69.73 222.86 70.70 221.14 71.68 C 217.05 64.54 211.88 58.07 206.29 52.06 Z" />
<path d=" M 41.18 63.65 C 42.63 64.75 44.10 65.84 45.57 66.92 C 36.00 80.47 29.59 96.20 26.98 112.58 C 25.12 112.45 23.27 112.33 21.41 112.21 C 23.76 94.69 30.71 77.88 41.18 63.65 Z" />
<path d=" M 18.02 96.09 C 20.16 87.70 23.64 79.70 27.81 72.14 C 29.48 73.14 31.15 74.13 32.83 75.12 C 28.87 82.31 26.00 90.00 23.43 97.77 C 21.63 97.20 19.83 96.64 18.02 96.09 Z" />
<path d=" M 223.26 74.99 C 224.97 74.07 226.67 73.14 228.37 72.20 C 232.29 79.88 235.93 87.77 238.00 96.17 C 236.18 96.70 234.36 97.24 232.54 97.79 C 230.13 89.92 226.97 82.33 223.26 74.99 Z" />
<path d=" M 223.33 90.08 C 224.97 89.34 226.61 88.60 228.24 87.85 C 234.40 104.24 237.15 122.20 234.63 139.59 C 232.93 139.40 231.23 139.21 229.54 139.03 C 229.83 129.00 230.17 118.84 228.16 108.95 C 226.89 102.58 225.09 96.33 223.33 90.08 Z" />
<path d=" M 16.86 100.10 C 18.81 100.63 20.77 101.15 22.72 101.67 C 20.57 109.53 19.49 117.68 19.26 125.82 C 17.24 125.78 15.23 125.75 13.22 125.73 C 13.68 117.11 14.90 108.51 16.86 100.10 Z" />
<path d=" M 233.42 101.63 C 235.32 101.14 237.22 100.63 239.12 100.12 C 241.11 108.51 242.34 117.11 242.79 125.73 C 240.77 125.75 238.76 125.78 236.74 125.82 C 236.46 117.68 235.36 109.55 233.42 101.63 Z" />
<path d=" M 20.70 115.53 C 22.64 115.89 24.58 116.25 26.53 116.59 C 24.35 133.03 27.93 149.56 32.87 165.20 C 31.21 165.99 29.56 166.78 27.91 167.59 C 23.85 156.82 21.25 145.50 20.45 134.01 C 20.34 127.85 20.58 121.69 20.70 115.53 Z" />
<path d=" M 13.24 129.83 C 15.24 129.77 17.24 129.70 19.24 129.62 C 19.60 137.87 20.99 146.04 22.78 154.09 C 20.87 154.49 18.96 154.92 17.06 155.34 C 15.11 146.96 13.78 138.41 13.24 129.83 Z" />
<path d=" M 236.79 129.62 C 238.78 129.70 240.77 129.77 242.77 129.83 C 242.25 138.41 240.86 146.95 238.96 155.33 C 237.05 154.89 235.14 154.46 233.23 154.05 C 235.11 146.03 236.29 137.85 236.79 129.62 Z" />
<path d=" M 210.20 187.67 C 219.84 174.32 226.09 158.67 228.89 142.47 C 230.74 142.76 232.59 143.07 234.44 143.39 C 231.76 160.68 224.79 177.15 214.48 191.28 C 213.03 190.10 211.59 188.90 210.20 187.67 Z" />
<path d=" M 18.29 159.00 C 20.19 158.68 22.10 158.36 24.01 158.04 C 26.21 165.79 29.43 173.18 33.25 180.26 C 31.55 181.21 29.85 182.16 28.14 183.11 C 23.95 175.49 20.29 167.50 18.29 159.00 Z" />
<path d=" M 232.04 157.64 C 233.93 158.15 235.82 158.66 237.72 159.16 C 235.64 167.55 232.06 175.47 227.93 183.02 C 226.18 182.07 224.44 181.12 222.69 180.18 C 226.73 173.10 229.91 165.51 232.04 157.64 Z" />
<path d=" M 29.25 170.87 C 30.96 170.22 32.68 169.56 34.39 168.89 C 38.81 177.12 43.63 185.19 49.56 192.42 C 54.11 198.06 59.82 202.58 64.85 207.75 C 63.66 209.14 62.46 210.52 61.26 211.91 C 58.87 209.55 56.23 207.46 53.41 205.66 C 58.74 211.59 65.42 216.06 72.11 220.29 C 71.27 222.05 70.34 223.77 69.35 225.46 C 61.93 221.05 54.90 215.87 48.81 209.72 C 50.39 208.19 52.03 206.74 53.73 205.35 C 47.81 199.49 42.42 193.09 37.76 186.19 C 34.71 181.20 31.96 176.04 29.25 170.87 Z" />
<path d=" M 30.27 186.70 C 31.89 185.65 33.51 184.60 35.12 183.54 C 39.43 190.53 44.61 196.89 50.11 202.97 C 48.73 204.27 47.36 205.59 46.00 206.91 C 39.89 200.91 34.72 194.00 30.27 186.70 Z" />
<path d=" M 220.93 183.58 C 222.56 184.54 224.19 185.49 225.84 186.45 C 221.43 193.87 216.17 200.83 210.02 206.90 C 208.68 205.54 207.33 204.20 205.98 202.87 C 211.49 196.85 216.54 190.45 220.93 183.58 Z" />
<path d=" M 190.10 208.08 C 196.74 203.14 202.19 196.90 207.85 190.92 C 209.35 191.98 210.85 193.03 212.36 194.07 C 201.45 207.86 187.10 218.84 171.02 225.93 C 170.42 224.26 169.82 222.59 169.21 220.93 C 176.51 217.21 183.46 212.86 190.10 208.08 Z" />
<path d=" M 199.63 208.67 C 200.85 207.52 202.25 206.58 203.73 205.80 C 204.82 207.17 205.94 208.51 207.11 209.81 C 201.08 215.87 194.13 220.98 186.82 225.38 C 185.82 223.67 184.85 221.96 183.91 220.23 C 189.48 216.87 194.87 213.13 199.63 208.67 Z" />
<path d=" M 64.37 213.99 C 65.56 212.63 66.76 211.27 67.94 209.90 C 76.16 215.63 85.15 220.21 94.58 223.57 C 100.71 225.77 107.15 226.88 113.43 228.51 C 113.14 230.26 112.85 232.01 112.57 233.76 C 95.15 231.45 78.51 224.36 64.37 213.99 Z" />
<path d=" M 72.87 227.57 C 73.75 225.80 74.66 224.05 75.60 222.31 C 82.79 226.27 90.48 229.21 98.26 231.79 C 97.70 233.56 97.15 235.35 96.61 237.13 C 88.26 235.15 80.47 231.46 72.87 227.57 Z" />
<path d=" M 146.36 227.52 C 152.91 226.33 159.20 224.11 165.64 222.45 C 166.32 224.10 167.01 225.76 167.70 227.41 C 151.46 233.97 133.70 235.72 116.33 234.31 C 116.52 232.45 116.70 230.59 116.86 228.73 C 126.71 229.80 136.62 229.23 146.36 227.52 Z" />
<path d=" M 157.94 231.74 C 165.67 229.15 173.29 226.19 180.46 222.29 C 181.40 224.01 182.33 225.75 183.23 227.50 C 175.62 231.44 167.81 235.13 159.44 237.12 C 158.95 235.32 158.46 233.52 157.94 231.74 Z" />
<path d=" M 101.87 232.56 C 109.70 234.53 117.77 235.66 125.86 235.82 C 125.96 237.81 126.07 239.80 126.16 241.80 C 117.52 241.66 108.92 240.34 100.52 238.33 C 100.98 236.41 101.43 234.48 101.87 232.56 Z" />
<path d=" M 130.14 235.81 C 138.23 235.67 146.32 234.56 154.14 232.48 C 154.62 234.41 155.12 236.34 155.63 238.27 C 147.19 240.35 138.53 241.65 129.84 241.80 C 129.93 239.80 130.04 237.80 130.14 235.81 Z" /></g>
</g><g transform="matrix(0.25,0,0,0.25,0,0)">
<g fill="rgb(189,186,185)" stroke="rgb(189,186,185)" stroke-width=".05%" stroke-opacity="50%"><path d=" M 65.25 62.02 C 88.82 38.94 125.78 31.01 156.90 41.81 C 162.21 43.54 167.29 45.91 172.21 48.54 C 171.87 48.97 171.19 49.82 170.85 50.25 L 170.01 50.35 C 159.14 45.22 147.59 41.18 135.51 40.25 C 135.54 40.82 135.61 41.97 135.65 42.54 C 134.40 42.56 133.16 42.59 131.91 42.58 C 134.06 42.78 135.02 41.97 134.79 40.13 C 110.38 38.24 85.59 46.99 67.61 63.55 C 67.49 64.14 67.26 65.31 67.14 65.90 C 70.20 68.40 73.97 69.70 77.22 71.82 C 77.30 72.03 77.48 72.45 77.57 72.67 L 77.11 72.78 C 68.40 68.14 59.59 63.43 51.94 57.13 C 55.06 58.84 58.14 60.63 61.09 62.62 C 62.37 61.80 63.75 61.60 65.25 62.02 Z" />
<path d=" M 135.40 56.56 C 135.82 55.33 136.09 54.06 136.48 52.83 C 136.96 55.82 137.35 58.84 136.56 61.82 L 134.54 61.58 C 136.25 60.39 132.64 55.34 135.40 56.56 Z" />
<path d=" M 177.85 55.37 C 178.35 54.56 178.85 53.74 179.34 52.92 C 195.60 63.93 208.12 80.33 214.40 98.94 C 221.54 119.91 220.83 143.53 212.10 163.92 C 203.59 184.21 187.56 201.28 167.67 210.73 C 137.82 225.47 99.83 222.07 73.43 201.67 C 73.85 201.15 74.67 200.11 75.08 199.59 C 88.74 209.48 105.12 215.41 121.91 216.76 C 141.23 218.06 160.96 212.89 177.03 202.04 C 195.91 189.63 209.51 169.56 214.29 147.50 C 218.91 126.90 215.78 104.68 205.64 86.17 C 199.09 73.81 189.29 63.34 177.85 55.37 Z" />
<path d=" M 88.48 66.96 C 89.69 74.59 93.06 81.70 98.11 87.53 C 101.85 86.61 99.95 82.80 100.10 80.06 C 101.52 81.34 102.94 82.63 104.38 83.90 C 106.26 82.98 108.15 82.09 110.06 81.22 C 110.93 77.92 111.40 74.49 110.53 71.15 C 113.35 73.49 114.78 77.24 118.16 78.95 C 119.33 78.98 120.65 78.58 121.28 77.51 C 123.61 74.25 125.30 70.57 126.41 66.72 C 128.28 70.43 129.38 74.52 131.68 78.04 C 134.25 78.29 136.80 78.68 139.33 79.20 C 139.93 78.89 140.54 78.57 141.15 78.26 C 143.35 81.27 147.83 81.31 150.98 83.15 C 151.64 82.60 152.97 81.51 153.64 80.96 L 153.08 83.48 C 147.32 93.10 139.94 101.64 134.27 111.31 C 129.05 118.69 123.70 125.96 118.62 133.43 C 110.03 145.37 101.09 157.05 92.44 168.95 C 90.30 170.05 88.11 171.05 85.94 172.09 C 87.27 169.43 88.54 166.74 89.37 163.88 C 86.94 160.80 84.63 157.62 82.75 154.16 C 79.50 154.23 76.28 154.68 73.05 155.06 C 75.48 152.65 77.73 150.03 79.41 147.04 C 79.60 145.27 78.86 144.27 77.19 144.03 C 77.61 143.46 78.03 142.89 78.45 142.33 C 78.06 141.20 77.67 140.08 77.28 138.96 C 75.21 139.95 72.80 140.08 71.20 138.16 C 73.02 136.88 74.89 135.70 76.85 134.66 C 76.84 132.27 76.83 129.87 76.78 127.48 C 75.37 127.00 73.81 126.74 72.74 125.61 C 74.04 125.28 75.33 124.92 76.61 124.53 C 77.17 123.36 77.56 122.13 77.78 120.84 C 75.44 118.34 72.57 116.47 69.84 114.44 C 73.16 114.20 76.54 114.00 79.69 112.82 C 80.38 110.84 81.14 108.90 81.97 106.99 C 80.06 102.94 77.55 99.21 74.67 95.79 C 79.08 96.52 83.56 97.07 88.04 96.80 C 88.69 96.30 89.99 95.28 90.65 94.77 C 90.51 94.27 90.23 93.26 90.10 92.76 C 91.74 93.25 92.96 92.28 94.04 91.14 C 92.55 88.64 91.91 85.79 91.42 82.95 C 91.14 82.75 90.56 82.34 90.27 82.13 C 92.68 81.65 91.46 79.62 90.87 78.12 C 89.94 74.43 88.53 70.82 88.48 66.96 Z" />
<path d=" M 158.77 84.23 C 158.89 85.42 159.01 86.61 159.12 87.80 C 159.80 88.43 160.49 89.07 161.17 89.70 C 164.00 88.73 166.75 87.52 169.37 86.06 C 168.19 88.61 167.10 91.21 166.09 93.84 C 167.38 95.38 168.66 96.93 169.98 98.45 C 172.62 98.15 175.25 97.80 177.87 97.38 C 175.97 99.39 174.06 101.44 172.86 103.96 C 174.74 103.66 176.57 103.18 178.42 102.75 C 177.33 104.15 176.24 105.55 175.17 106.97 C 177.65 112.07 179.37 117.44 179.91 123.11 C 184.04 125.34 188.34 127.35 192.99 128.22 C 188.75 130.03 184.59 132.15 180.99 135.07 C 179.76 135.98 179.68 137.65 179.13 138.96 C 181.25 140.57 183.42 142.11 185.59 143.65 C 183.03 143.96 180.48 144.28 177.95 144.73 C 177.33 146.33 176.72 147.94 176.09 149.54 C 177.95 151.88 179.92 154.14 181.98 156.30 C 180.01 155.97 178.04 155.65 176.08 155.34 C 176.14 155.87 176.26 156.92 176.32 157.44 C 175.16 157.01 173.98 156.59 172.82 156.18 C 170.87 159.09 168.56 161.72 166.43 164.49 C 166.39 165.01 166.29 166.06 166.24 166.58 C 165.79 166.54 164.88 166.45 164.42 166.40 C 164.61 171.68 165.08 177.00 166.68 182.06 C 162.52 178.63 157.85 175.59 152.51 174.43 C 152.47 176.36 152.48 178.28 152.49 180.21 C 152.78 180.45 153.36 180.92 153.65 181.16 C 153.17 181.20 152.22 181.29 151.74 181.33 C 152.44 185.26 152.96 189.23 153.15 193.22 C 154.27 193.87 155.41 194.48 156.54 195.10 C 155.15 195.56 153.75 196.01 152.36 196.50 C 153.19 189.76 151.48 182.86 147.94 177.10 C 144.67 177.68 144.30 180.74 143.99 183.46 C 145.32 183.84 146.59 184.36 147.80 185.03 C 146.31 185.28 144.82 185.51 143.33 185.72 C 142.08 183.77 140.69 181.94 139.21 180.17 C 138.67 182.07 138.19 183.98 137.71 185.90 C 136.88 184.19 136.07 182.49 135.25 180.78 C 133.20 180.92 131.16 181.08 129.12 181.20 C 129.13 181.77 129.14 182.90 129.15 183.46 C 128.93 182.76 128.50 181.37 128.28 180.67 C 125.77 181.32 125.11 183.86 124.16 185.92 C 123.76 184.38 123.39 182.83 122.81 181.36 C 120.47 180.51 117.98 180.15 115.55 179.67 C 116.21 180.77 116.87 181.87 117.54 182.98 C 117.18 183.59 116.81 184.21 116.45 184.83 C 116.25 184.19 115.86 182.91 115.66 182.26 C 114.95 182.31 113.55 182.41 112.85 182.46 C 113.62 182.25 115.15 181.84 115.92 181.63 C 115.55 181.06 114.80 179.92 114.43 179.35 C 111.80 181.47 109.25 183.69 106.83 186.06 C 107.38 183.09 107.65 180.07 107.53 177.06 C 104.00 175.35 100.57 173.44 97.23 171.38 L 97.81 170.15 C 102.82 163.61 107.16 156.58 112.20 150.06 C 122.81 136.28 132.55 121.85 142.81 107.81 C 148.01 99.87 153.39 92.05 158.77 84.23 Z" />
<path d=" M 35.85 90.09 C 38.32 91.26 40.78 92.55 43.61 92.43 C 46.87 94.06 49.32 96.88 52.21 99.06 C 49.85 98.36 47.69 96.63 45.11 97.14 C 37.39 117.59 37.48 140.93 45.73 161.20 C 50.43 173.30 58.08 184.07 67.35 193.10 C 66.96 193.69 66.19 194.86 65.80 195.45 C 42.46 174.37 31.84 140.63 38.42 109.93 C 39.22 104.80 41.23 99.99 42.52 94.99 C 40.49 93.09 37.93 91.92 35.85 90.09 Z" /></g>
<g fill="rgb(157,142,108)" stroke="rgb(157,142,108)" stroke-width=".05%" stroke-opacity="50%"><path d=" M 186.03 33.14 C 187.45 31.67 189.18 30.56 191.09 29.85 C 188.86 38.29 183.53 45.40 179.34 52.92 C 178.85 53.74 178.35 54.56 177.85 55.37 C 171.56 64.97 165.62 74.82 158.83 84.08 L 159.29 84.53 L 158.77 84.23 C 153.39 92.05 148.01 99.87 142.81 107.81 C 132.55 121.85 122.81 136.28 112.20 150.06 C 107.16 156.58 102.82 163.61 97.81 170.15 C 90.25 179.97 82.76 189.85 75.08 199.59 C 74.67 200.11 73.85 201.15 73.43 201.67 C 68.03 208.42 62.41 215.01 56.68 221.50 C 53.98 224.47 51.21 227.52 47.59 229.41 C 47.75 225.70 49.78 222.54 51.40 219.33 C 55.76 211.11 60.93 203.37 65.80 195.45 C 66.19 194.86 66.96 193.69 67.35 193.10 C 70.63 188.05 73.97 183.04 77.14 177.92 C 78.05 176.37 79.30 175.05 80.86 174.14 C 77.03 181.21 71.83 187.56 68.87 195.10 C 72.03 194.26 73.89 191.30 75.99 189.03 C 81.38 182.25 87.26 175.89 92.44 168.95 C 101.09 157.05 110.03 145.37 118.62 133.43 C 123.70 125.96 129.05 118.69 134.27 111.31 C 139.94 101.64 147.32 93.10 153.08 83.48 C 155.89 79.82 158.36 75.92 160.87 72.06 C 164.19 66.80 167.79 61.59 169.61 55.57 C 161.40 61.56 156.86 71.25 149.34 77.98 C 150.67 74.96 153.00 72.59 154.93 69.96 C 160.16 63.33 165.45 56.74 170.85 50.25 C 171.19 49.82 171.87 48.97 172.21 48.54 C 176.61 43.22 181.11 37.97 186.03 33.14 Z" />
<path d=" M 51.37 66.44 C 59.59 64.70 68.08 72.46 66.50 80.86 C 66.01 87.52 59.63 92.71 53.04 92.20 C 45.88 92.12 39.83 85.09 40.84 77.99 C 40.96 72.23 45.87 67.41 51.37 66.44 Z" /></g>


</g></svg>