<svg width="64" height="64" viewBox="0 0 64 64" shape-rendering="geometricPrecision" version="1.1" xmlns="http://www.w3.org/2000/svg"><desc>Created by https://guilds.gw2w2w.com/</desc><rect x="0" y="0" width="64" height="64" fill="none" stroke="none"/><g transform="matrix(-0.25,0,0,0.25,64,0)">
<g fill="rgb(189,186,185)" stroke="rgb(189,186,185)" stroke-width=".05%" stroke-opacity="50%"><path d=" M 113.07 34.94 C 115.34 34.45 117.68 34.44 120.00 34.50 C 119.20 40.23 111.06 40.27 110.08 45.96 C 109.26 49.57 108.02 54.89 112.24 56.86 C 116.32 58.56 121.15 58.46 124.62 61.58 C 125.15 67.19 124.28 72.79 122.82 78.19 C 121.18 84.03 120.56 90.09 120.13 96.13 C 119.47 99.72 119.32 103.39 118.55 106.97 C 116.94 117.93 109.61 127.12 108.39 138.18 C 105.63 137.16 102.24 138.11 100.63 140.62 C 99.12 143.17 98.31 146.05 97.15 148.77 C 91.60 141.53 87.18 133.53 82.07 125.99 C 77.49 118.71 68.81 115.44 64.18 108.17 C 62.19 110.20 59.90 111.92 57.88 113.92 C 56.11 116.25 55.37 119.14 54.65 121.93 C 54.89 122.93 55.16 123.93 55.32 124.94 C 51.62 123.08 51.53 118.25 49.87 114.88 C 47.66 103.59 48.71 91.73 52.65 80.94 C 57.02 68.27 66.35 57.24 78.45 51.34 C 75.58 56.17 72.01 60.55 69.21 65.43 C 66.32 70.11 67.62 75.96 65.58 80.93 C 64.21 84.55 63.15 88.92 65.34 92.44 C 72.03 104.24 84.48 110.78 93.87 120.07 C 92.26 120.32 90.66 120.58 89.06 120.86 C 90.28 125.03 93.60 128.01 96.96 130.52 C 97.50 130.06 98.04 129.60 98.58 129.14 C 98.62 126.45 98.21 123.62 99.57 121.16 C 103.49 112.88 105.66 103.94 109.40 95.60 C 111.05 92.16 110.98 87.54 114.73 85.53 C 114.70 80.96 114.71 76.39 114.75 71.83 C 115.01 70.72 115.26 69.61 115.49 68.50 C 109.95 65.52 103.78 69.41 101.86 74.85 C 96.34 65.35 94.45 53.16 98.77 42.84 C 103.07 39.42 107.82 36.61 113.07 34.94 Z"/>
<path d=" M 138.12 34.47 C 140.41 34.26 142.74 34.33 144.96 35.00 C 149.42 36.49 154.08 38.10 157.45 41.53 C 160.04 44.33 160.55 48.23 161.23 51.81 C 161.24 55.31 161.56 58.86 160.76 62.31 C 160.78 62.43 160.82 62.66 160.84 62.78 C 159.96 68.45 158.65 74.30 154.86 78.80 C 155.36 74.88 154.05 70.49 150.23 68.72 C 147.81 67.15 144.93 67.96 142.38 68.67 C 142.55 70.45 142.74 72.24 142.94 74.02 C 141.56 77.36 144.14 80.23 144.79 83.40 C 148.83 97.65 153.99 111.62 160.96 124.72 C 162.54 123.37 163.84 121.75 165.06 120.08 C 168.47 115.82 173.31 113.07 176.97 109.06 C 182.55 103.42 190.27 99.19 193.08 91.34 C 195.46 84.00 191.26 77.02 189.67 70.03 C 189.08 66.07 186.37 63.00 184.12 59.87 C 183.33 58.27 183.15 56.42 182.56 54.73 C 186.86 56.67 191.79 58.49 194.28 62.80 C 195.97 66.15 199.83 67.65 201.50 71.00 C 203.47 74.84 204.67 79.00 206.07 83.07 C 206.63 85.85 207.30 88.62 207.68 91.43 C 207.81 91.55 208.07 91.77 208.20 91.88 C 208.28 98.13 209.93 104.34 208.78 110.58 C 208.68 115.39 207.21 119.97 206.17 124.63 C 205.84 124.57 205.18 124.46 204.85 124.40 C 203.16 120.64 202.98 116.01 199.93 113.00 C 196.62 110.67 192.21 112.03 189.18 114.17 C 186.27 116.24 183.43 118.41 180.48 120.41 C 176.13 124.42 175.44 130.97 171.13 135.03 C 167.06 138.15 166.86 143.91 163.41 147.55 C 162.16 149.21 158.98 148.86 158.35 146.78 C 157.41 144.48 157.04 142.00 156.30 139.64 C 154.15 138.99 151.97 138.46 149.75 138.10 C 148.08 128.17 142.41 119.57 140.05 109.83 C 136.53 96.06 136.67 81.64 133.06 67.89 C 132.18 65.64 133.55 63.38 134.34 61.32 C 137.96 59.13 142.40 58.48 145.78 55.80 C 149.72 53.16 150.82 47.01 147.64 43.39 C 144.66 40.20 140.50 38.24 138.12 34.47 Z"/></g>
<g fill="rgb(189,186,185)" stroke="rgb(189,186,185)" stroke-width=".05%" stroke-opacity="50%"><path d=" M 128.42 88.35 C 130.24 90.47 130.11 93.41 130.76 95.98 C 135.89 120.61 142.59 144.95 151.48 168.49 C 159.84 170.95 167.28 165.00 174.96 162.76 C 174.87 163.52 174.71 165.04 174.62 165.81 C 179.08 164.96 183.59 163.30 186.54 159.69 C 187.68 157.53 188.43 154.84 190.88 153.77 C 193.95 151.80 197.64 152.19 201.09 152.25 C 203.39 152.18 202.66 149.62 203.01 148.09 C 208.24 142.83 215.00 139.48 220.53 134.59 C 225.53 130.25 227.60 123.68 232.06 118.88 C 234.53 122.25 232.55 126.33 231.98 129.97 C 229.18 146.10 228.28 162.98 221.24 178.03 C 219.06 181.26 219.06 185.44 216.50 188.45 C 207.32 201.44 198.08 214.89 185.10 224.41 C 191.89 211.88 201.16 200.49 205.23 186.64 C 207.06 187.48 208.85 188.89 210.99 188.57 C 213.30 188.18 214.43 185.03 212.62 183.40 C 211.74 181.26 209.26 182.64 207.62 182.73 C 209.51 175.24 211.79 166.42 207.47 159.38 C 200.69 161.24 195.29 165.87 189.27 169.24 C 184.50 172.02 178.41 171.59 174.08 175.27 C 167.30 180.52 158.59 182.46 151.87 187.80 C 147.87 190.76 146.69 196.75 141.39 197.97 C 141.22 174.99 138.42 151.62 129.53 130.25 C 129.00 130.19 127.92 130.05 127.38 129.99 C 125.52 131.88 123.83 134.03 123.72 136.81 C 120.67 156.50 115.58 176.40 118.20 196.44 C 105.49 187.15 93.20 176.99 78.86 170.26 C 75.28 168.41 70.08 168.81 68.15 164.64 C 67.01 163.80 65.86 162.98 64.72 162.17 C 64.37 162.49 63.67 163.14 63.32 163.46 C 62.27 162.21 61.22 160.97 60.15 159.73 C 56.78 161.19 53.13 160.49 49.72 159.57 C 45.34 171.71 50.23 184.84 56.78 195.22 C 58.19 199.63 60.18 203.83 62.19 208.00 C 64.51 212.82 67.99 217.00 70.09 221.93 C 65.54 219.90 63.50 215.15 60.25 211.70 C 56.14 207.15 51.61 203.00 47.64 198.33 C 44.26 194.28 45.05 187.60 39.84 185.03 C 39.67 181.19 37.60 177.84 36.75 174.15 C 36.06 174.14 34.70 174.12 34.01 174.10 C 31.85 165.17 30.96 155.98 28.63 147.08 C 26.98 141.10 27.27 134.73 25.06 128.90 C 23.67 125.18 22.80 120.81 25.21 117.30 C 29.03 120.15 31.27 124.42 33.41 128.55 C 38.54 136.37 46.88 141.14 53.98 146.94 C 57.98 150.46 63.47 151.26 67.83 154.19 C 71.31 156.47 74.82 158.73 78.70 160.28 C 80.99 161.11 82.29 163.39 84.42 164.46 C 87.17 165.46 90.05 166.04 92.84 166.87 C 94.21 168.19 95.30 169.99 97.11 170.73 C 101.67 169.60 107.62 168.96 109.57 163.93 C 115.36 138.62 124.04 114.00 128.42 88.35 Z"/></g>


</g></svg>