<svg width="256" height="256" viewBox="0 0 256 256" shape-rendering="geometricPrecision" version="1.1" xmlns="http://www.w3.org/2000/svg"><desc>Created by https://guilds.gw2w2w.com/</desc><rect x="0" y="0" width="256" height="256" fill="none" stroke="none" /><g >
<g fill="rgb(194,97,106)" stroke="rgb(194,97,106)" stroke-width=".05%" stroke-opacity="50%" opacity="0.7"><path d=" M 192.70 52.58 C 197.72 46.96 205.63 46.70 212.57 45.64 C 209.41 47.14 206.10 48.26 202.81 49.43 C 198.80 50.81 195.55 53.61 192.13 56.01 C 187.74 59.10 183.36 62.21 179.20 65.60 C 184.30 66.26 188.82 63.74 193.35 61.87 C 190.72 64.02 187.75 65.70 184.68 67.13 C 184.49 67.50 184.11 68.23 183.92 68.60 C 185.08 69.00 186.25 69.39 187.43 69.79 C 186.85 72.91 186.66 76.24 184.91 78.99 C 182.99 82.10 180.86 85.10 179.21 88.37 C 176.23 90.62 173.28 92.92 170.49 95.40 C 174.01 93.86 177.48 92.22 180.96 90.57 C 182.60 91.19 184.25 91.82 185.90 92.45 C 185.31 95.89 184.67 99.32 184.05 102.76 C 186.44 101.30 188.88 99.94 191.37 98.66 C 187.95 104.61 182.21 108.46 176.59 112.11 C 185.98 107.68 195.76 104.21 205.17 99.82 C 196.24 105.17 186.99 110.17 179.04 116.95 C 184.41 116.41 188.64 112.87 193.27 110.48 C 197.66 108.14 201.87 105.49 206.20 103.03 C 198.77 108.36 190.50 112.32 182.67 117.00 C 182.64 117.86 182.58 119.58 182.54 120.44 C 185.22 119.21 187.90 117.98 190.48 116.55 C 197.67 112.36 205.70 109.96 213.13 106.27 C 217.87 103.89 222.90 102.17 228.09 101.11 C 227.82 104.21 226.58 107.05 224.39 109.27 C 225.69 109.80 226.98 110.34 228.28 110.89 C 227.01 112.12 225.75 113.36 224.49 114.60 C 224.53 115.94 224.57 117.28 224.61 118.63 C 220.25 120.90 215.78 122.98 211.55 125.49 C 207.10 128.10 203.49 131.83 199.87 135.44 C 199.28 135.64 198.70 135.85 198.12 136.06 C 195.76 140.12 191.33 141.63 187.14 143.02 C 186.37 144.36 186.00 146.21 184.37 146.80 C 179.80 148.82 175.38 151.16 170.99 153.53 C 171.52 154.41 172.07 155.28 172.61 156.16 C 168.07 157.73 164.07 160.39 160.22 163.20 C 153.58 167.43 147.65 172.64 141.47 177.49 C 141.01 177.01 140.54 176.53 140.08 176.06 C 134.87 180.74 130.09 186.37 123.60 189.28 C 125.87 185.13 129.37 181.92 132.60 178.54 C 122.27 185.41 113.99 194.79 104.12 202.22 C 102.17 203.76 101.41 200.87 100.79 199.59 C 103.34 196.84 105.84 194.05 108.43 191.34 C 108.45 190.39 108.46 189.45 108.47 188.51 C 114.01 185.22 116.62 179.22 119.61 173.83 C 118.59 174.51 117.58 175.20 116.56 175.88 C 116.15 175.41 115.33 174.46 114.92 173.98 C 113.23 175.65 111.50 177.26 109.73 178.83 C 110.55 179.45 111.36 180.07 112.18 180.70 C 109.28 183.11 106.37 185.51 103.65 188.12 C 103.61 189.19 103.56 190.27 103.52 191.35 C 102.78 192.08 102.04 192.81 101.30 193.55 C 101.48 191.95 101.65 190.35 101.84 188.75 C 100.29 190.38 98.72 192.00 97.11 193.56 C 97.50 191.65 97.29 189.36 98.91 187.95 C 103.76 182.76 109.65 178.43 113.26 172.17 C 109.47 174.42 106.23 177.43 103.25 180.66 C 103.41 179.09 103.58 177.53 103.75 175.97 C 100.22 179.87 96.57 183.70 92.14 186.59 C 95.81 181.21 99.33 175.57 104.46 171.43 C 104.45 170.45 104.44 169.48 104.43 168.51 C 107.98 165.11 111.57 161.74 114.67 157.91 C 108.09 162.84 102.40 168.80 96.39 174.38 C 94.68 175.97 92.64 177.12 90.61 178.24 C 92.17 176.25 93.84 174.35 95.59 172.53 C 94.98 171.89 94.38 171.25 93.78 170.62 C 95.26 170.59 96.74 170.55 98.22 170.53 C 108.28 160.21 119.16 150.73 130.50 141.83 C 128.14 142.89 125.80 143.96 123.46 145.04 C 130.20 137.47 139.34 132.71 146.56 125.68 C 137.30 130.76 129.57 138.11 120.57 143.59 C 115.78 146.20 113.51 152.35 107.67 153.11 C 109.84 150.33 112.22 147.72 114.57 145.09 C 106.65 151.76 98.05 157.65 90.77 165.05 C 87.48 166.37 85.13 169.06 83.21 171.95 C 82.02 171.48 80.83 171.01 79.64 170.53 C 79.62 171.47 79.60 172.41 79.59 173.35 C 77.92 174.52 76.26 175.70 74.60 176.87 C 74.62 177.74 74.63 178.62 74.63 179.50 C 73.40 179.55 72.16 179.59 70.92 179.64 C 67.72 185.95 63.70 191.88 58.56 196.78 C 59.61 194.63 60.69 192.49 61.79 190.36 C 59.50 192.17 57.19 193.96 54.84 195.69 C 58.48 191.02 62.66 186.81 66.24 182.10 C 66.56 179.68 67.12 177.30 67.83 174.96 C 64.33 178.78 60.53 182.31 56.96 186.06 C 55.95 185.59 54.95 185.12 53.95 184.66 C 51.17 188.30 47.63 191.21 44.12 194.10 C 35.76 201.83 28.44 210.59 20.83 219.04 C 24.22 214.55 27.60 210.05 30.28 205.10 C 32.70 200.39 37.60 197.83 40.59 193.58 C 42.90 190.45 44.98 187.14 46.80 183.70 C 45.81 183.37 44.10 184.07 43.86 182.63 C 45.00 181.11 46.89 180.69 48.71 180.85 C 50.79 179.48 52.95 178.09 54.43 176.06 C 55.76 173.85 56.17 171.24 56.88 168.80 C 52.00 170.76 47.20 172.94 42.78 175.79 C 44.42 173.28 45.85 170.65 47.37 168.07 C 48.51 166.26 49.42 164.31 50.10 162.28 C 46.15 165.09 42.86 169.01 38.05 170.40 C 41.86 165.25 45.18 159.17 51.45 156.68 C 50.95 156.00 50.45 155.33 49.95 154.66 C 53.21 150.70 56.78 147.02 60.43 143.42 C 64.59 139.40 67.56 134.37 71.55 130.20 C 70.78 130.35 69.25 130.65 68.48 130.80 C 73.28 124.85 79.40 120.19 84.48 114.51 C 90.56 107.63 97.45 101.55 103.60 94.75 C 106.39 91.88 109.70 89.48 111.93 86.11 C 112.98 85.21 114.03 84.31 115.09 83.43 C 113.82 83.46 111.27 83.53 110.00 83.56 C 113.09 81.63 116.25 79.81 119.35 77.91 C 113.06 80.19 107.73 84.39 101.56 86.93 C 103.62 85.00 105.77 83.19 107.90 81.35 C 106.07 81.30 104.24 81.25 102.41 81.18 C 106.03 77.68 111.14 77.32 115.62 75.58 C 112.80 75.96 110.02 76.55 107.24 77.08 C 110.73 74.40 114.44 72.04 118.23 69.81 C 110.51 73.69 102.51 77.04 95.08 81.46 C 95.24 80.52 95.41 79.57 95.58 78.62 C 96.21 78.61 97.48 78.58 98.11 78.57 C 102.38 73.73 108.57 71.47 113.41 67.35 C 112.83 66.82 111.68 65.78 111.11 65.26 C 116.98 62.68 122.29 59.06 127.76 55.75 C 130.89 53.84 133.82 51.44 137.40 50.42 C 140.64 49.49 144.00 49.19 147.32 48.70 C 148.13 49.31 148.93 49.92 149.74 50.54 C 151.31 50.44 152.88 50.34 154.45 50.23 C 151.25 51.62 148.53 53.80 145.66 55.73 C 143.12 56.95 140.18 56.80 137.44 57.12 C 137.36 58.73 137.31 60.35 137.24 61.97 C 143.47 60.22 149.30 57.06 155.80 56.34 C 149.13 62.56 140.05 64.97 132.58 70.01 C 143.18 66.53 152.51 59.88 163.37 57.06 C 163.54 56.59 163.86 55.65 164.02 55.18 C 161.86 55.37 159.70 55.54 157.54 55.68 C 163.42 52.58 170.13 51.53 175.91 48.22 C 178.82 46.45 182.27 46.51 185.55 46.42 C 182.07 48.19 178.28 49.65 175.71 52.76 C 176.88 52.46 179.23 51.85 180.40 51.55 C 177.39 54.02 174.60 56.75 172.28 59.88 C 179.01 58.51 185.60 56.44 192.40 55.37 C 192.47 54.67 192.62 53.28 192.70 52.58 M 153.63 150.13 C 149.47 152.30 144.93 153.96 141.37 157.11 C 138.67 159.86 136.38 162.98 133.55 165.61 C 136.61 163.48 139.89 161.69 143.22 160.00 C 148.31 157.63 151.29 152.16 156.99 150.84 C 159.97 147.75 163.40 145.16 167.14 143.07 C 162.56 145.28 158.23 147.95 153.63 150.13 Z" />
<path d=" M 187.57 149.50 C 192.39 145.26 197.51 141.17 203.52 138.75 C 198.48 142.73 192.99 146.07 187.57 149.50 Z" /></g>
</g><g >
<g fill="rgb(189,186,185)" stroke="rgb(189,186,185)" stroke-width=".05%" stroke-opacity="50%"><path d=" M 123.82 48.82 C 125.25 46.69 127.93 46.95 130.16 47.18 C 134.39 48.07 137.42 51.62 138.18 55.80 C 142.79 54.61 147.60 54.55 152.23 53.37 C 156.92 54.56 161.81 54.55 166.49 55.73 C 167.50 50.00 173.07 45.95 178.86 47.05 C 184.54 50.77 186.82 60.31 181.30 65.01 C 184.32 65.64 187.17 66.83 189.78 68.46 C 189.54 69.12 189.30 69.77 189.07 70.43 C 192.84 74.77 193.17 80.72 193.21 86.19 C 192.66 86.03 191.55 85.69 191.00 85.53 C 190.11 90.26 188.03 94.63 186.92 99.30 C 186.50 98.80 185.65 97.78 185.23 97.28 C 184.86 103.01 180.41 107.08 177.14 111.37 C 180.94 109.78 183.00 106.17 185.37 103.04 C 195.07 107.21 196.43 119.58 205.26 124.75 C 210.01 128.42 216.99 129.51 219.84 135.34 C 223.06 140.11 221.87 146.21 219.97 151.26 C 218.83 150.03 216.88 149.07 217.10 147.12 C 217.23 143.62 216.54 140.21 214.78 137.18 C 215.33 141.59 216.56 146.44 214.44 150.61 C 213.57 152.41 211.67 152.78 209.87 152.57 C 208.99 148.73 208.82 144.78 208.94 140.85 C 208.45 140.30 207.96 139.75 207.48 139.20 C 206.66 143.70 208.05 148.95 204.76 152.68 C 198.77 148.69 198.25 141.02 199.45 134.58 C 198.05 137.13 197.03 140.02 197.76 142.96 C 198.80 146.02 194.55 148.69 192.02 146.98 C 187.96 143.69 186.63 138.35 183.79 134.16 C 185.63 139.45 187.14 145.74 192.33 148.78 C 195.01 150.90 198.95 150.06 201.55 152.35 C 203.86 154.53 207.59 154.94 208.90 158.13 C 210.11 159.25 209.46 160.57 208.82 161.79 C 209.88 164.12 211.00 166.42 212.16 168.71 C 209.25 171.32 211.21 175.46 209.82 178.70 C 208.93 181.82 207.10 184.54 204.76 186.76 C 202.10 187.01 199.75 188.28 198.11 190.40 C 196.40 188.57 194.30 184.94 191.37 186.51 C 189.03 187.09 188.05 190.42 185.37 189.71 C 182.16 190.00 178.88 190.40 176.34 192.61 C 178.67 186.17 182.34 180.38 185.07 174.14 C 187.67 164.87 187.18 154.66 183.06 145.89 C 179.42 137.63 174.47 129.91 168.07 123.51 C 167.38 124.89 166.71 126.27 166.00 127.64 C 164.32 125.20 162.71 122.72 160.91 120.37 C 158.15 122.24 156.43 125.14 155.10 128.12 C 153.44 125.80 152.08 123.30 150.78 120.77 C 147.54 120.83 145.06 122.95 142.66 124.85 C 142.46 123.40 142.25 121.94 142.04 120.49 C 138.42 122.60 134.46 124.73 132.46 128.62 C 128.04 136.45 122.74 144.08 120.94 153.04 C 119.36 159.58 119.91 166.46 121.24 173.00 C 123.32 178.56 126.07 183.83 128.91 189.03 C 130.19 191.99 132.06 195.78 129.81 198.74 C 127.38 202.28 124.63 206.13 120.24 207.25 C 119.30 201.86 121.34 196.34 124.57 192.05 C 126.01 192.27 128.88 192.69 130.31 192.91 C 127.73 189.53 123.21 189.94 119.43 189.69 C 117.94 187.60 115.69 186.36 113.22 185.79 C 111.64 187.15 110.11 188.57 108.59 190.01 C 106.81 188.24 104.60 187.01 102.07 186.80 C 96.42 182.27 98.02 174.29 94.68 168.55 C 96.13 165.80 97.52 163.01 98.92 160.23 C 98.28 160.32 96.98 160.50 96.34 160.59 C 98.32 154.72 105.12 152.70 107.13 146.90 C 108.58 142.87 109.13 138.57 109.41 134.31 C 106.79 130.57 104.17 126.55 99.97 124.42 C 99.08 124.83 98.19 125.23 97.30 125.64 C 97.19 123.70 97.13 121.76 97.09 119.83 C 96.49 120.24 95.31 121.05 94.71 121.46 C 96.28 113.95 93.18 106.38 88.27 100.78 C 85.03 96.16 81.31 91.27 81.81 85.27 C 85.56 86.59 86.78 90.96 90.41 92.51 C 89.83 88.67 85.53 86.90 84.75 83.15 C 84.07 81.03 84.48 78.80 84.78 76.67 C 87.09 77.34 89.63 77.74 91.57 79.27 C 93.08 81.05 94.37 83.02 96.24 84.46 C 96.04 80.24 92.23 77.53 89.87 74.37 C 90.51 73.88 91.14 73.38 91.78 72.89 C 95.18 74.04 98.84 74.99 101.67 77.32 C 106.33 82.51 110.59 88.19 113.38 94.64 C 115.60 98.62 117.16 103.39 121.39 105.73 C 122.53 107.61 123.84 109.39 125.12 111.19 C 125.14 109.66 125.15 108.13 125.16 106.61 C 127.69 108.17 130.29 109.65 132.91 111.06 C 129.99 108.63 127.11 106.14 124.18 103.72 C 124.20 104.81 124.23 106.98 124.25 108.06 C 118.93 101.38 114.88 93.29 114.64 84.62 C 114.09 84.99 112.99 85.73 112.44 86.10 C 111.37 80.68 112.32 74.68 115.89 70.33 C 115.61 69.71 115.32 69.09 115.05 68.48 C 117.73 66.69 120.78 65.62 123.92 64.96 C 122.98 64.23 122.04 63.49 121.11 62.76 C 120.00 58.04 119.92 52.33 123.82 48.82 M 172.20 53.03 C 171.89 54.07 171.26 56.17 170.95 57.21 C 172.18 56.54 173.41 55.87 174.65 55.22 C 173.85 57.15 173.00 59.07 172.30 61.04 C 173.62 60.23 174.94 59.40 176.24 58.55 C 176.26 59.94 176.33 61.32 176.45 62.70 C 177.69 63.43 178.97 64.07 180.30 64.64 C 180.39 62.35 180.35 60.00 181.25 57.84 C 180.87 54.24 178.43 51.64 174.83 51.19 C 173.95 51.80 173.07 52.41 172.20 53.03 M 124.57 54.58 C 122.41 57.23 125.45 60.60 123.52 63.26 C 124.13 63.65 124.74 64.03 125.36 64.40 C 126.41 63.71 127.46 63.01 128.50 62.29 C 128.52 61.08 128.55 59.87 128.59 58.67 C 129.87 59.39 131.16 60.11 132.46 60.81 C 131.60 58.89 130.62 57.02 129.72 55.12 C 131.12 55.83 132.51 56.58 133.89 57.34 C 133.18 54.87 132.57 52.15 129.84 51.17 C 127.85 51.91 125.37 52.30 124.57 54.58 M 136.22 62.51 C 136.28 63.04 136.41 64.10 136.47 64.63 C 132.11 65.69 133.82 70.69 134.78 73.74 C 133.43 74.34 132.09 74.96 130.74 75.56 C 128.42 79.83 124.15 83.11 123.39 88.13 C 123.01 90.28 124.14 92.29 124.80 94.27 C 126.88 94.56 128.82 95.35 130.70 96.26 C 133.51 97.73 137.20 96.99 139.59 99.36 C 142.11 101.25 142.79 104.46 144.22 107.10 C 149.76 108.19 155.34 107.44 160.91 107.12 C 162.73 103.33 164.36 98.43 169.12 97.63 C 173.74 97.30 178.69 94.61 179.80 89.81 C 180.41 88.31 181.73 86.71 180.73 85.06 C 179.18 81.45 175.52 79.23 174.19 75.45 C 172.83 74.95 171.48 74.46 170.12 73.95 C 170.71 71.64 171.48 69.25 171.09 66.84 C 170.06 65.43 168.76 64.21 168.10 62.55 C 166.77 61.44 165.39 60.39 164.00 59.35 C 163.59 59.69 162.76 60.37 162.35 60.71 L 162.79 61.53 C 162.22 61.60 161.09 61.73 160.52 61.80 C 161.73 62.05 162.95 62.29 164.17 62.52 C 164.57 62.90 165.37 63.64 165.78 64.02 L 165.13 61.24 C 168.04 61.89 168.70 65.22 165.87 65.72 C 164.32 68.30 163.50 71.17 164.09 74.18 C 156.35 73.44 148.59 73.52 140.85 74.19 C 141.55 70.59 140.20 67.19 137.71 64.61 L 136.92 65.73 C 136.83 64.70 136.75 63.66 136.68 62.63 L 139.86 62.30 L 138.79 64.15 C 140.39 62.99 141.95 61.61 144.00 61.37 C 142.87 60.80 141.78 60.18 140.69 59.54 C 139.21 60.54 137.74 61.58 136.22 62.51 M 99.45 85.50 C 93.78 86.40 91.10 92.63 91.45 97.80 C 91.39 100.17 93.74 102.31 96.05 102.15 C 100.02 101.37 102.28 97.69 105.20 95.25 C 107.24 93.63 107.89 90.73 106.83 88.38 C 105.12 86.22 102.15 85.08 99.45 85.50 Z" />
<path d=" M 143.08 76.35 C 149.19 74.34 155.76 75.20 161.95 76.37 C 162.34 78.03 160.55 78.72 159.34 79.28 C 157.05 80.01 154.62 80.32 152.50 81.52 C 150.21 80.20 147.54 79.96 145.09 79.08 C 144.08 78.46 142.61 77.79 143.08 76.35 Z" />
<path d=" M 92.38 93.36 C 94.81 90.53 97.29 87.42 101.02 86.31 C 105.00 85.74 106.80 91.58 104.15 93.99 C 101.83 96.50 99.02 98.47 96.26 100.48 C 95.49 100.24 93.95 99.78 93.18 99.55 C 92.26 97.70 90.73 95.26 92.38 93.36 Z" />
<path d=" M 34.92 108.18 C 39.25 104.14 46.78 103.41 50.83 108.23 C 48.47 109.64 45.69 110.58 44.11 112.99 C 41.11 111.27 38.04 109.66 34.92 108.18 Z" />
<path d=" M 49.33 111.04 C 51.09 110.26 52.64 108.07 54.73 109.25 C 58.95 111.04 63.71 112.64 66.51 116.51 C 63.23 117.76 61.32 120.71 60.83 124.09 C 56.65 125.19 53.72 120.41 50.24 118.70 C 52.19 122.46 57.17 122.94 59.04 126.88 C 58.07 129.79 57.35 132.80 55.96 135.56 C 56.56 135.45 57.78 135.23 58.39 135.13 C 59.06 132.82 59.76 130.52 60.51 128.23 C 64.02 130.83 67.76 133.10 71.42 135.47 C 73.14 136.51 74.56 138.11 75.13 140.07 C 74.75 143.39 73.59 146.56 72.50 149.70 C 72.03 149.88 71.10 150.25 70.63 150.43 C 71.21 152.18 71.47 154.01 71.54 155.86 C 72.03 154.92 72.53 153.99 73.03 153.05 C 73.98 153.63 74.94 154.21 75.90 154.79 C 72.64 150.32 73.58 144.34 76.81 140.11 C 81.85 141.56 87.27 144.04 89.47 149.15 C 89.01 152.58 88.18 155.94 87.25 159.27 C 84.27 158.75 81.54 157.48 78.94 155.98 C 81.89 158.81 86.40 160.80 86.67 165.44 C 86.82 164.89 87.12 163.79 87.27 163.24 C 87.98 163.09 89.41 162.78 90.13 162.62 C 90.36 163.22 90.82 164.43 91.05 165.03 C 91.53 165.31 92.47 165.88 92.94 166.17 C 92.57 169.87 92.28 173.59 92.46 177.31 C 90.18 176.48 87.61 175.75 86.18 173.62 C 85.61 172.00 85.86 170.25 85.85 168.57 C 84.97 169.88 84.31 172.24 82.23 171.55 C 78.23 171.63 75.49 168.51 72.40 166.49 C 70.00 164.68 70.11 161.70 70.63 159.05 C 69.54 160.48 68.40 161.88 67.20 163.23 C 65.63 161.09 63.17 160.30 60.76 159.58 C 58.10 158.21 55.52 156.62 53.16 154.78 C 51.30 152.55 52.38 149.44 52.56 146.85 C 51.94 148.35 51.32 149.86 50.70 151.37 C 46.18 147.65 40.94 144.72 37.30 140.03 C 37.45 138.45 37.56 136.86 37.69 135.28 C 36.82 136.29 35.94 137.29 35.06 138.29 C 31.82 135.62 29.16 131.60 24.67 131.04 C 23.88 126.74 24.44 121.67 27.82 118.55 C 31.47 120.71 34.55 123.63 37.48 126.67 C 38.59 128.33 39.53 131.03 38.04 132.78 C 39.59 132.18 39.63 130.42 40.04 129.04 C 42.41 130.09 44.90 130.83 47.32 131.78 C 45.23 129.76 43.04 127.85 40.86 125.94 C 41.03 123.25 41.52 120.51 43.58 118.59 L 43.53 118.25 C 42.09 120.19 40.59 122.09 39.18 124.05 C 34.66 123.41 31.15 119.65 28.74 116.04 C 29.46 112.78 32.20 110.83 34.89 109.25 C 38.99 110.29 42.78 112.75 44.80 116.54 C 45.04 116.37 45.54 116.03 45.78 115.86 C 46.44 116.20 47.10 116.55 47.76 116.89 C 47.28 116.16 46.33 114.68 45.85 113.95 C 46.12 112.18 48.09 111.88 49.33 111.04 M 50.08 134.21 C 51.51 136.13 53.03 137.98 54.35 139.98 C 54.11 140.90 53.88 141.83 53.65 142.76 C 54.53 142.12 55.40 141.48 56.27 140.85 C 57.85 141.85 59.44 142.85 61.05 143.81 C 58.99 141.57 56.52 139.60 55.31 136.72 C 52.82 138.31 51.63 135.66 50.08 134.21 Z" />
<path d=" M 63.23 128.76 C 59.54 125.40 62.37 119.57 65.85 117.22 C 72.06 119.30 76.42 124.59 80.98 129.03 C 78.94 131.41 78.05 134.99 75.26 136.58 C 70.91 134.58 66.87 131.86 63.23 128.76 Z" />
<path d=" M 77.04 137.97 C 77.82 134.94 79.34 132.12 81.76 130.10 C 85.36 132.85 87.89 136.86 91.97 138.97 C 90.60 140.87 89.42 142.91 88.89 145.21 C 84.75 143.13 80.60 140.97 77.04 137.97 Z" />
<path d=" M 24.67 134.68 C 25.42 133.84 26.18 133.02 26.95 132.21 C 29.42 134.65 32.32 136.67 34.62 139.26 C 35.43 142.95 34.12 146.79 34.09 150.54 C 29.13 146.52 26.39 140.68 24.67 134.68 Z" />
<path d=" M 90.19 146.65 C 89.10 144.00 91.82 141.80 93.59 140.21 C 95.80 142.08 98.08 143.95 99.82 146.30 C 100.93 148.12 99.69 150.24 99.04 152.00 C 96.10 150.22 92.73 149.02 90.19 146.65 Z" />
<path d=" M 36.40 143.36 C 36.78 143.24 37.54 143.02 37.92 142.91 C 42.46 145.15 46.44 148.58 49.68 152.42 C 50.31 156.62 49.25 160.98 49.77 165.25 C 48.02 165.57 46.23 165.38 44.98 164.01 C 41.38 160.53 37.07 157.10 35.92 151.96 C 36.18 149.10 36.18 146.22 36.40 143.36 Z" />
<path d=" M 87.97 160.24 C 88.46 156.26 89.51 152.39 90.50 148.52 C 93.27 149.73 95.84 151.30 98.45 152.81 C 96.44 156.10 94.80 159.58 93.02 162.99 C 91.32 162.10 89.64 161.17 87.97 160.24 Z" />
<path d=" M 52.22 155.39 C 57.24 158.98 63.49 160.52 67.81 165.14 C 67.00 168.35 66.18 171.57 66.12 174.91 C 62.54 173.58 58.93 172.31 55.48 170.69 C 53.86 170.01 52.37 168.69 51.95 166.94 C 51.61 163.10 51.40 159.19 52.22 155.39 Z" />
<path d=" M 69.06 166.88 L 70.03 166.11 C 74.27 169.06 78.56 171.98 83.44 173.79 C 83.44 176.47 83.60 179.15 84.25 181.76 C 78.78 180.33 73.70 177.80 68.51 175.60 C 66.96 172.91 68.81 169.73 69.06 166.88 Z" />
<path d=" M 84.64 175.10 C 88.90 175.32 92.04 178.64 95.68 180.48 C 95.91 181.74 96.14 183.00 96.37 184.27 C 92.61 183.90 88.53 183.68 85.30 181.55 C 83.48 179.86 84.31 177.20 84.64 175.10 Z" />
<path d=" M 112.83 190.88 C 115.71 188.39 118.27 191.73 119.92 193.88 C 119.96 197.92 119.86 202.05 118.63 205.94 C 118.02 208.90 113.60 209.60 111.78 207.28 C 111.85 201.93 109.39 195.59 112.83 190.88 Z" />
<path d=" M 103.39 191.12 C 104.95 190.84 106.89 190.46 107.82 192.16 C 110.15 195.98 110.18 200.70 110.49 205.04 C 110.90 206.76 108.79 207.43 107.96 208.57 C 102.97 204.39 101.19 197.21 103.39 191.12 Z" />
<path d=" M 187.98 195.91 C 187.51 193.49 189.67 191.77 191.13 190.23 C 193.27 190.92 195.67 191.97 196.35 194.34 C 197.41 198.49 197.91 202.76 198.40 207.01 C 198.08 207.61 197.45 208.82 197.13 209.43 C 195.25 208.94 192.60 209.22 191.61 207.16 C 189.88 203.61 188.61 199.80 187.98 195.91 Z" />
<path d=" M 200.38 191.42 C 202.75 190.34 204.78 192.65 205.01 194.85 C 207.15 199.54 205.74 204.82 203.04 208.94 C 200.76 208.33 198.71 206.73 198.94 204.14 C 199.03 199.97 197.49 194.93 200.38 191.42 Z" />
<path d=" M 177.04 194.14 C 178.54 192.58 180.93 193.10 182.86 192.63 C 186.83 196.70 189.17 201.98 190.31 207.49 C 185.81 207.48 183.09 203.66 180.17 200.85 C 178.57 199.03 176.42 196.74 177.04 194.14 Z" /></g>
<g fill="rgb(194,97,106)" stroke="rgb(194,97,106)" stroke-width=".05%" stroke-opacity="50%"><path d=" M 135.12 68.07 C 138.67 65.40 141.67 71.50 138.06 73.43 C 135.26 73.38 134.15 70.39 135.12 68.07 Z" />
<path d=" M 166.20 68.19 C 167.21 66.91 169.83 67.23 169.92 69.01 C 170.61 70.86 169.23 73.62 167.02 73.14 C 164.82 72.73 164.36 69.38 166.20 68.19 Z" />
<path d=" M 129.22 79.37 C 131.65 74.90 137.46 74.82 141.83 75.82 C 141.79 76.57 141.70 78.07 141.66 78.81 C 144.73 80.64 148.23 81.44 151.56 82.61 C 151.82 85.73 151.79 89.23 149.99 91.92 C 146.30 94.45 141.83 97.23 137.18 95.94 C 133.63 95.22 130.01 94.05 127.21 91.68 C 124.24 87.91 126.93 82.80 129.22 79.37 Z" />
<path d=" M 161.61 79.72 C 163.46 78.76 163.92 76.54 165.04 74.93 C 167.85 74.86 170.83 75.33 173.32 76.67 C 176.97 80.41 180.08 85.57 178.60 90.99 C 174.86 94.33 169.91 96.07 164.95 96.30 C 161.37 95.79 158.02 94.05 155.17 91.88 C 153.18 89.31 152.98 85.74 153.42 82.63 C 156.10 81.52 159.02 81.07 161.61 79.72 Z" />
<path d=" M 142.28 97.34 C 145.10 96.44 148.89 93.56 151.49 96.34 C 152.40 99.26 152.46 102.60 151.52 105.51 C 149.43 106.41 147.04 105.93 144.83 106.10 C 143.81 103.23 142.99 100.30 142.28 97.34 Z" />
<path d=" M 153.81 95.67 C 156.95 94.47 159.91 96.18 162.75 97.36 C 162.09 100.11 161.60 102.92 160.56 105.56 C 158.35 106.16 156.02 105.90 153.76 105.97 C 153.60 102.54 153.67 99.10 153.81 95.67 Z" />
<path d=" M 160.61 122.85 C 162.48 124.98 164.20 127.24 165.84 129.55 C 166.83 128.59 167.82 127.63 168.81 126.68 C 172.67 131.38 175.92 136.52 179.53 141.41 C 181.76 145.15 182.47 149.55 183.53 153.72 C 185.20 160.77 183.49 167.94 182.42 174.93 C 181.55 179.10 179.48 182.87 177.89 186.79 C 176.49 190.71 173.16 193.42 170.26 196.22 C 168.02 198.40 164.75 198.10 161.89 198.39 C 153.68 199.44 145.35 198.24 137.31 196.64 C 133.89 193.95 132.08 189.78 129.83 186.15 C 123.30 175.52 120.36 162.14 123.84 149.97 C 126.22 140.08 131.62 130.56 140.14 124.75 C 140.48 125.78 140.82 126.82 141.17 127.85 C 142.73 127.34 144.29 126.83 145.88 126.40 C 145.92 126.13 146.00 125.59 146.04 125.32 C 147.35 125.00 148.67 124.70 149.99 124.40 C 151.89 126.66 153.58 129.09 155.11 131.61 C 157.07 128.77 159.04 125.92 160.61 122.85 Z" /></g>


</g></svg>