<svg width="64" height="64" viewBox="0 0 64 64" shape-rendering="geometricPrecision" version="1.1" xmlns="http://www.w3.org/2000/svg"><desc>Created by https://guilds.gw2w2w.com/</desc><rect x="0" y="0" width="64" height="64" fill="none" stroke="none" /><g transform="matrix(0.25,0,0,0.25,0,0)">
<g fill="rgb(53,53,116)" stroke="rgb(53,53,116)" stroke-width=".05%" stroke-opacity="50%" opacity="0.7"><path d=" M 118.41 51.68 C 133.99 49.73 150.20 52.51 164.06 59.97 C 184.46 70.49 199.40 90.78 203.66 113.30 C 207.32 132.06 203.62 152.19 193.45 168.38 C 177.18 195.47 142.82 210.14 112.02 202.89 C 88.88 198.06 68.55 181.79 58.67 160.33 C 52.26 146.11 49.36 129.85 52.63 114.44 C 55.61 97.78 64.22 82.14 76.83 70.82 C 88.28 60.38 103.04 53.65 118.41 51.68 Z" /></g>
</g><g transform="matrix(0.25,0,0,-0.25,0,64)">
<g fill="rgb(194,97,106)" stroke="rgb(194,97,106)" stroke-width=".05%" stroke-opacity="50%"><path d=" M 108.09 72.58 C 109.34 71.11 110.78 69.86 112.45 68.88 C 112.32 71.07 112.18 73.26 112.00 75.45 C 116.71 80.53 122.18 84.89 128.17 88.36 C 126.52 88.34 124.87 88.30 123.23 88.25 C 121.80 91.56 124.80 93.97 126.26 96.62 C 128.35 99.63 128.49 103.57 130.82 106.44 C 131.07 106.87 131.57 107.74 131.82 108.17 C 130.48 107.59 129.16 106.98 127.84 106.39 C 129.15 111.15 129.29 116.17 131.06 120.81 C 127.56 118.15 124.32 115.15 120.67 112.66 C 120.80 115.68 120.70 118.80 122.25 121.52 C 120.62 121.37 117.94 117.22 117.11 120.40 L 116.98 120.49 C 116.62 120.60 115.89 120.83 115.52 120.94 L 116.43 121.55 C 116.59 125.48 115.81 129.51 116.69 133.39 C 116.93 134.44 117.28 135.46 117.73 136.44 C 118.48 138.18 119.11 140.11 120.73 141.27 C 127.24 146.58 135.21 151.64 137.30 160.36 C 140.12 162.59 143.32 164.48 145.69 167.21 C 147.62 172.77 149.47 178.40 152.30 183.57 C 153.28 185.51 155.50 186.01 157.33 186.78 C 163.56 189.10 169.08 193.73 171.84 199.84 C 169.79 198.33 168.05 196.48 166.12 194.86 C 169.48 200.44 172.98 206.43 173.03 213.14 C 173.18 214.69 172.01 215.88 171.29 217.14 C 171.11 214.84 171.03 212.54 170.96 210.25 C 168.91 207.62 166.69 204.84 163.45 203.67 C 158.99 202.09 154.55 200.32 150.64 197.62 C 151.02 198.66 151.78 200.73 152.16 201.76 C 148.71 198.64 146.59 194.36 144.79 190.14 C 141.70 182.46 144.67 172.65 138.47 166.23 C 138.70 169.00 138.88 171.77 138.89 174.55 C 135.29 177.26 132.68 181.57 132.05 185.99 C 134.81 191.93 137.15 198.43 142.21 202.88 C 140.03 209.87 139.25 217.24 138.86 224.52 C 136.31 225.02 133.75 225.98 131.13 225.28 C 131.57 224.78 132.45 223.77 132.89 223.26 C 134.17 217.39 135.47 211.38 134.84 205.27 C 132.31 202.98 132.81 199.01 130.27 196.75 C 127.16 193.85 124.37 190.63 122.26 186.93 C 121.95 187.21 121.35 187.75 121.04 188.03 C 122.57 192.04 124.57 195.84 126.25 199.78 C 127.34 200.50 128.45 201.21 129.55 201.93 C 124.80 208.16 118.29 214.08 117.77 222.40 C 115.08 222.27 112.40 222.00 109.86 221.09 C 113.83 218.92 115.73 214.62 118.10 210.99 C 119.85 207.55 122.74 203.34 120.53 199.49 C 116.23 194.59 111.54 189.87 108.79 183.85 C 108.39 179.15 109.79 174.56 110.17 169.91 C 108.51 165.44 106.60 161.01 104.05 156.98 C 101.07 152.94 96.53 150.49 92.90 147.12 C 89.25 142.23 87.39 136.34 85.22 130.71 C 82.58 129.32 80.48 127.16 78.31 125.16 C 77.27 121.43 75.33 118.07 73.29 114.82 C 71.06 115.48 68.88 116.29 66.70 117.12 C 66.68 119.15 66.96 121.16 67.34 123.16 C 66.50 124.07 65.82 125.20 64.68 125.80 L 63.63 126.34 C 63.08 124.03 62.39 121.75 61.43 119.57 C 64.39 116.72 66.84 113.43 68.56 109.70 C 70.00 109.16 71.54 108.94 73.04 108.59 C 75.38 111.20 77.89 113.65 80.48 116.02 C 81.00 116.08 82.04 116.20 82.57 116.26 C 83.46 117.32 84.38 118.37 85.31 119.41 C 84.02 111.62 81.13 104.20 77.77 97.10 C 74.07 92.37 67.44 92.99 62.10 93.16 L 61.29 92.73 C 60.15 92.12 59.00 91.52 57.86 90.91 C 58.23 89.86 58.62 88.80 59.01 87.75 C 63.04 90.10 67.87 89.26 72.25 90.36 C 75.95 91.38 80.80 90.85 82.59 95.02 C 82.52 99.45 86.54 102.64 88.03 106.67 C 89.79 104.91 91.61 103.22 93.53 101.65 C 95.24 101.86 96.96 102.05 98.68 102.19 C 100.52 98.43 101.68 94.38 102.24 90.24 C 100.41 90.07 98.57 89.93 96.73 89.86 C 95.08 87.87 93.19 85.98 90.46 85.75 C 89.94 86.40 88.91 87.69 88.40 88.33 C 86.53 87.34 84.76 86.17 83.11 84.84 C 83.89 83.27 84.63 81.69 85.55 80.20 C 90.57 80.04 94.89 77.31 99.70 76.22 C 100.13 75.77 100.99 74.85 101.42 74.40 C 102.84 74.09 104.23 73.68 105.58 73.17 C 106.40 72.89 107.23 72.69 108.09 72.58 Z" /></g>
<g fill="rgb(189,186,185)" stroke="rgb(189,186,185)" stroke-width=".05%" stroke-opacity="50%"><path d=" M 174.02 53.18 C 189.41 46.05 202.72 35.34 215.67 24.55 C 214.24 31.90 210.95 38.75 206.96 45.03 C 204.53 48.94 200.89 51.81 197.91 55.24 C 203.43 53.37 206.51 48.35 210.29 44.33 C 207.07 53.66 202.35 62.70 195.19 69.63 C 196.60 68.84 198.01 68.06 199.43 67.28 C 197.66 70.05 195.77 72.73 193.97 75.48 C 200.17 72.43 206.03 68.66 210.97 63.80 C 208.95 71.62 204.64 78.59 199.89 85.02 C 196.28 89.91 191.16 93.41 187.57 98.31 C 191.72 96.51 194.48 92.79 198.21 90.38 C 197.07 93.99 195.76 97.59 193.78 100.83 C 191.79 104.08 188.58 106.25 185.62 108.51 C 186.29 108.63 187.64 108.88 188.31 109.00 C 184.87 113.87 180.14 117.57 174.87 120.29 C 180.44 119.58 186.06 119.09 191.69 119.08 C 188.05 123.83 182.19 126.19 176.71 128.13 C 177.59 128.52 178.47 128.91 179.34 129.30 C 175.88 131.70 171.74 132.42 167.68 133.10 C 170.90 134.10 174.23 134.65 177.53 135.27 C 174.85 137.32 172.11 139.44 168.91 140.61 C 164.16 141.38 159.36 140.22 154.64 139.62 C 158.33 142.40 162.22 144.89 166.11 147.38 C 159.49 149.13 152.81 147.16 147.08 143.79 C 148.68 146.63 150.63 149.25 152.69 151.78 C 151.19 151.97 149.69 152.17 148.19 152.38 C 146.02 150.98 143.89 149.53 141.76 148.08 C 142.01 148.94 142.49 150.65 142.74 151.51 C 139.42 149.75 136.05 148.07 132.81 146.16 C 129.87 144.50 128.12 141.51 126.02 138.99 C 125.84 139.83 125.47 141.52 125.28 142.37 C 122.84 140.29 120.26 138.40 117.73 136.44 C 117.28 135.46 116.93 134.44 116.69 133.39 C 116.78 129.74 115.76 125.60 117.31 122.24 C 117.71 122.14 118.50 121.94 118.89 121.84 C 120.97 122.72 122.51 124.47 124.29 125.82 C 130.66 121.80 137.33 118.09 142.88 112.93 C 144.32 106.05 145.33 98.96 144.29 91.96 C 144.14 89.52 142.17 87.90 140.87 86.04 C 138.83 83.49 137.36 80.56 135.98 77.61 C 138.76 73.03 142.02 68.55 146.33 65.30 C 155.23 60.55 164.98 57.66 174.02 53.18 Z" />
<path d=" M 93.10 57.45 C 96.92 60.76 99.66 65.08 102.88 68.94 C 103.79 70.32 105.26 71.48 105.58 73.17 C 104.23 73.68 102.84 74.09 101.42 74.40 C 99.14 68.51 95.64 63.22 93.10 57.45 Z" />
<path d=" M 49.44 92.75 C 52.31 92.50 55.31 92.45 57.86 90.91 C 59.00 91.52 60.15 92.12 61.29 92.73 C 60.42 94.31 59.57 95.90 58.70 97.49 C 55.58 95.98 52.32 94.71 49.44 92.75 Z" />
<path d=" M 63.63 126.34 L 64.68 125.80 C 66.84 124.46 68.94 126.65 70.65 127.76 C 68.36 130.23 66.05 132.69 63.60 135.01 C 63.66 132.12 63.48 129.23 63.63 126.34 Z" />
<path d=" M 103.77 227.95 C 105.76 225.63 107.76 223.31 109.86 221.09 C 112.40 222.00 115.08 222.27 117.77 222.40 C 117.02 224.22 116.65 226.17 116.05 228.05 C 111.96 227.85 107.86 227.88 103.77 227.95 Z" />
<path d=" M 128.41 231.17 C 129.31 229.20 130.22 227.24 131.13 225.28 C 133.75 225.98 136.31 225.02 138.86 224.52 C 139.30 226.71 139.22 228.94 139.08 231.15 C 135.54 231.68 131.96 231.60 128.41 231.17 Z" /></g>


</g></svg>